<svg width="943" height="359" viewBox="0 0 943 359" fill="none" xmlns="http://www.w3.org/2000/svg">
<g clip-path="url(#clip0_559_614)">
<path d="M768.511 185.368L736.011 176.66V116.66V97.6598L754.011 78.7553V72.1598L783.511 80.0643V86.6598L801.011 97.6598V176.66L768.511 185.368Z" fill="white"/>
<path d="M768.511 185.368L736.011 176.66V116.66V97.6598M768.511 185.368L801.011 176.66V97.6598M768.511 185.368V106.368M801.011 97.6598L768.511 106.368M801.011 97.6598L783.511 86.6598M768.511 106.368L736.011 97.6598M768.511 106.368L783.511 86.6598M736.011 97.6598L754.011 78.7553M783.511 86.6598L754.011 78.7553M783.511 86.6598V80.0643L754.011 72.1598V78.7553" stroke="black" stroke-width="1.5" stroke-linecap="round"/>
<path d="M768.511 154.868L736.011 146.16V118.66L768.511 127.368L801.011 118.66V146.16L768.511 154.868Z" fill="#009CFF"/>
<path d="M768.511 154.868L736.011 146.16V118.66L768.511 127.368M768.511 154.868L801.011 146.16V118.66L768.511 127.368M768.511 154.868V127.368" stroke="black" stroke-width="1.5" stroke-linecap="round"/>
<path d="M463.511 145L175.011 222.303L177.259 223.16L434.511 292.09L723.484 214.66L463.511 145Z" stroke="black" stroke-width="1.5"/>
<path d="M463.511 145L175.011 222.303L177.259 223.16L434.511 292.09L723.484 214.66L463.511 145Z" fill="white" stroke="black" stroke-width="1.5"/>
<mask id="mask0_559_614" style="mask-type:alpha" maskUnits="userSpaceOnUse" x="175" y="145" width="549" height="148">
<path d="M463.511 145L175.011 222.303L177.259 223.16L434.511 292.09L723.484 214.66L463.511 145Z" fill="#0A1653"/>
</mask>
<g mask="url(#mask0_559_614)">
</g>
<mask id="mask1_559_614" style="mask-type:alpha" maskUnits="userSpaceOnUse" x="175" y="145" width="549" height="148">
<path d="M463.511 145L175.011 222.303L177.259 223.16L434.511 292.09L723.484 214.66L463.511 145Z" fill="#0A1653"/>
</mask>
<g mask="url(#mask1_559_614)">
</g>
<mask id="mask2_559_614" style="mask-type:alpha" maskUnits="userSpaceOnUse" x="175" y="145" width="549" height="148">
<path d="M463.511 145L175.011 222.303L177.259 223.16L434.511 292.09L723.484 214.66L463.511 145Z" fill="#0A1653"/>
</mask>
<g mask="url(#mask2_559_614)">
<path d="M463.511 175L175.011 252.303L177.259 253.16L434.511 322.09L723.484 244.66L463.511 175Z" fill="#009CFF" stroke="black" stroke-width="1.5"/>
</g>
<path d="M463.511 145.16V174.66" stroke="black" stroke-width="1.5"/>
<mask id="mask3_559_614" style="mask-type:alpha" maskUnits="userSpaceOnUse" x="175" y="-125" width="549" height="418">
<path d="M435.011 292.16L723.484 214.66L721.236 -124.397L463.511 -125L177.259 -124.397L175.011 222.303L177.259 223.16L435.011 292.16Z" fill="#FF0000"/>
</mask>
<g mask="url(#mask3_559_614)">
<rect x="492.084" y="4.81177" width="63.5" height="364.5" rx="31.75" transform="rotate(22.2519 492.084 4.81177)" fill="white" stroke="black" stroke-width="1.5"/>
<mask id="path-14-inside-1_559_614" fill="white">
<path d="M673.063 115.971L508.588 70.0636L508.59 70.0571C508.429 70.0164 508.268 69.9742 508.107 69.9292C497.734 67.034 491.672 56.2778 494.567 45.9048C497.462 35.5317 508.218 29.4697 518.592 32.365C518.753 32.4099 518.913 32.4564 519.072 32.5051L519.073 32.4994L683.547 78.4064L673.063 115.971Z"/>
</mask>
<path d="M673.063 115.971L508.588 70.0636L508.59 70.0571C508.429 70.0164 508.268 69.9742 508.107 69.9292C497.734 67.034 491.672 56.2778 494.567 45.9048C497.462 35.5317 508.218 29.4697 518.592 32.365C518.753 32.4099 518.913 32.4564 519.072 32.5051L519.073 32.4994L683.547 78.4064L673.063 115.971Z" fill="white"/>
<path d="M673.063 115.971L672.659 117.415L674.104 117.819L674.507 116.374L673.063 115.971ZM508.588 70.0636L507.144 69.6604L506.74 71.1052L508.185 71.5084L508.588 70.0636ZM508.59 70.0571L510.035 70.4603L510.449 68.9787L508.957 68.6026L508.59 70.0571ZM519.072 32.5051L518.632 33.9392L520.103 34.3899L520.516 32.9083L519.072 32.5051ZM519.073 32.4994L519.476 31.0546L518.032 30.6514L517.628 32.0962L519.073 32.4994ZM683.547 78.4064L684.992 78.8097L685.395 77.3649L683.951 76.9617L683.547 78.4064ZM673.063 115.971L673.466 114.526L508.992 68.6189L508.588 70.0636L508.185 71.5084L672.659 117.415L673.063 115.971ZM508.588 70.0636L510.033 70.4669L510.035 70.4603L508.59 70.0571L507.145 69.6538L507.144 69.6604L508.588 70.0636ZM508.59 70.0571L508.957 68.6026C508.805 68.5642 508.656 68.5252 508.51 68.4844L508.107 69.9292L507.704 71.374C507.88 71.4232 508.054 71.4687 508.223 71.5115L508.59 70.0571ZM508.107 69.9292L508.51 68.4844C498.935 65.8119 493.339 55.8832 496.012 46.308L494.567 45.9048L493.122 45.5015C490.004 56.6725 496.533 68.256 507.704 71.374L508.107 69.9292ZM494.567 45.9048L496.012 46.308C498.684 36.7329 508.613 31.1372 518.188 33.8098L518.592 32.365L518.995 30.9202C507.824 27.8022 496.24 34.3305 493.122 45.5015L494.567 45.9048ZM518.592 32.365L518.188 33.8098C518.34 33.8521 518.487 33.8949 518.632 33.9392L519.072 32.5051L519.511 31.0709C519.338 31.0178 519.165 30.9678 518.995 30.9202L518.592 32.365ZM519.072 32.5051L520.516 32.9083L520.518 32.9027L519.073 32.4994L517.628 32.0962L517.627 32.1018L519.072 32.5051ZM519.073 32.4994L518.67 33.9442L683.144 79.8512L683.547 78.4064L683.951 76.9617L519.476 31.0546L519.073 32.4994ZM683.547 78.4064L682.103 78.0032L671.618 115.567L673.063 115.971L674.507 116.374L684.992 78.8097L683.547 78.4064Z" fill="black" mask="url(#path-14-inside-1_559_614)"/>
<mask id="path-16-inside-2_559_614" fill="white">
<path d="M638.792 202.939L474.318 157.032L474.32 157.026C474.158 156.985 473.997 156.943 473.836 156.898C463.463 154.002 457.401 143.246 460.296 132.873C463.192 122.5 473.948 116.438 484.321 119.334C484.482 119.378 484.642 119.425 484.801 119.474L484.802 119.468L649.277 165.375L638.792 202.939Z"/>
</mask>
<path d="M638.792 202.939L474.318 157.032L474.32 157.026C474.158 156.985 473.997 156.943 473.836 156.898C463.463 154.002 457.401 143.246 460.296 132.873C463.192 122.5 473.948 116.438 484.321 119.334C484.482 119.378 484.642 119.425 484.801 119.474L484.802 119.468L649.277 165.375L638.792 202.939Z" fill="white"/>
<path d="M638.792 202.939L638.389 204.384L639.834 204.787L640.237 203.342L638.792 202.939ZM474.318 157.032L472.873 156.629L472.47 158.074L473.915 158.477L474.318 157.032ZM474.32 157.026L475.764 157.429L476.178 155.947L474.686 155.571L474.32 157.026ZM484.801 119.474L484.361 120.908L485.832 121.358L486.246 119.877L484.801 119.474ZM484.802 119.468L485.206 118.023L483.761 117.62L483.358 119.065L484.802 119.468ZM649.277 165.375L650.721 165.778L651.125 164.333L649.68 163.93L649.277 165.375ZM638.792 202.939L639.195 201.494L474.721 155.587L474.318 157.032L473.915 158.477L638.389 204.384L638.792 202.939ZM474.318 157.032L475.763 157.435L475.764 157.429L474.32 157.026L472.875 156.622L472.873 156.629L474.318 157.032ZM474.32 157.026L474.686 155.571C474.534 155.533 474.385 155.494 474.239 155.453L473.836 156.898L473.433 158.343C473.609 158.392 473.783 158.437 473.953 158.48L474.32 157.026ZM473.836 156.898L474.239 155.453C464.664 152.78 459.069 142.852 461.741 133.277L460.296 132.873L458.852 132.47C455.734 143.641 462.262 155.225 473.433 158.343L473.836 156.898ZM460.296 132.873L461.741 133.277C464.414 123.701 474.342 118.106 483.918 120.778L484.321 119.334L484.724 117.889C473.553 114.771 461.97 121.299 458.852 132.47L460.296 132.873ZM484.321 119.334L483.918 120.778C484.069 120.821 484.217 120.863 484.361 120.908L484.801 119.474L485.24 118.039C485.067 117.986 484.895 117.936 484.724 117.889L484.321 119.334ZM484.801 119.474L486.246 119.877L486.247 119.871L484.802 119.468L483.358 119.065L483.356 119.07L484.801 119.474ZM484.802 119.468L484.399 120.913L648.873 166.82L649.277 165.375L649.68 163.93L485.206 118.023L484.802 119.468ZM649.277 165.375L647.832 164.972L637.347 202.536L638.792 202.939L640.237 203.342L650.721 165.778L649.277 165.375Z" fill="black" mask="url(#path-16-inside-2_559_614)"/>
<mask id="path-18-inside-3_559_614" fill="white">
<path d="M604.521 289.908L440.047 244.001L440.049 243.994C439.888 243.954 439.727 243.911 439.566 243.866C429.193 240.971 423.131 230.215 426.026 219.842C428.921 209.469 439.677 203.407 450.05 206.302C450.211 206.347 450.371 206.393 450.53 206.442L450.532 206.437L615.006 252.344L604.521 289.908Z"/>
</mask>
<path d="M604.521 289.908L440.047 244.001L440.049 243.994C439.888 243.954 439.727 243.911 439.566 243.866C429.193 240.971 423.131 230.215 426.026 219.842C428.921 209.469 439.677 203.407 450.05 206.302C450.211 206.347 450.371 206.393 450.53 206.442L450.532 206.437L615.006 252.344L604.521 289.908Z" fill="white"/>
<path d="M604.521 289.908L604.118 291.353L605.563 291.756L605.966 290.311L604.521 289.908ZM440.047 244.001L438.602 243.597L438.199 245.042L439.644 245.446L440.047 244.001ZM440.049 243.994L441.494 244.397L441.907 242.916L440.416 242.54L440.049 243.994ZM450.53 206.442L450.091 207.876L451.562 208.327L451.975 206.845L450.53 206.442ZM450.532 206.437L450.935 204.992L449.49 204.588L449.087 206.033L450.532 206.437ZM615.006 252.344L616.451 252.747L616.854 251.302L615.409 250.899L615.006 252.344ZM604.521 289.908L604.925 288.463L440.45 242.556L440.047 244.001L439.644 245.446L604.118 291.353L604.521 289.908ZM440.047 244.001L441.492 244.404L441.494 244.397L440.049 243.994L438.604 243.591L438.602 243.597L440.047 244.001ZM440.049 243.994L440.416 242.54C440.263 242.501 440.115 242.462 439.969 242.422L439.566 243.866L439.162 245.311C439.338 245.36 439.512 245.406 439.682 245.449L440.049 243.994ZM439.566 243.866L439.969 242.422C430.394 239.749 424.798 229.82 427.471 220.245L426.026 219.842L424.581 219.439C421.463 230.61 427.991 242.193 439.162 245.311L439.566 243.866ZM426.026 219.842L427.471 220.245C430.143 210.67 440.072 205.074 449.647 207.747L450.05 206.302L450.454 204.857C439.283 201.739 427.699 208.268 424.581 219.439L426.026 219.842ZM450.05 206.302L449.647 207.747C449.799 207.789 449.946 207.832 450.091 207.876L450.53 206.442L450.97 205.008C450.797 204.955 450.624 204.905 450.454 204.857L450.05 206.302ZM450.53 206.442L451.975 206.845L451.977 206.84L450.532 206.437L449.087 206.033L449.086 206.039L450.53 206.442ZM450.532 206.437L450.129 207.881L614.603 253.788L615.006 252.344L615.409 250.899L450.935 204.992L450.532 206.437ZM615.006 252.344L613.561 251.94L603.077 289.504L604.521 289.908L605.966 290.311L616.451 252.747L615.006 252.344Z" fill="black" mask="url(#path-18-inside-3_559_614)"/>
<mask id="path-20-inside-4_559_614" fill="white">
<path d="M570.251 376.876L405.777 330.969L405.778 330.963C405.617 330.922 405.456 330.88 405.295 330.835C394.922 327.94 388.86 317.183 391.755 306.81C394.65 296.437 405.407 290.375 415.78 293.271C415.941 293.316 416.101 293.362 416.26 293.411L416.261 293.405L580.736 339.312L570.251 376.876Z"/>
</mask>
<path d="M570.251 376.876L405.777 330.969L405.778 330.963C405.617 330.922 405.456 330.88 405.295 330.835C394.922 327.94 388.86 317.183 391.755 306.81C394.65 296.437 405.407 290.375 415.78 293.271C415.941 293.316 416.101 293.362 416.26 293.411L416.261 293.405L580.736 339.312L570.251 376.876Z" fill="white"/>
<path d="M570.251 376.876L569.848 378.321L571.292 378.724L571.696 377.28L570.251 376.876ZM405.777 330.969L404.332 330.566L403.929 332.011L405.373 332.414L405.777 330.969ZM405.778 330.963L407.223 331.366L407.637 329.884L406.145 329.508L405.778 330.963ZM416.26 293.411L415.82 294.845L417.291 295.296L417.704 293.814L416.26 293.411ZM416.261 293.405L416.665 291.96L415.22 291.557L414.816 293.002L416.261 293.405ZM580.736 339.312L582.18 339.715L582.584 338.271L581.139 337.867L580.736 339.312ZM570.251 376.876L570.654 375.432L406.18 329.524L405.777 330.969L405.373 332.414L569.848 378.321L570.251 376.876ZM405.777 330.969L407.221 331.373L407.223 331.366L405.778 330.963L404.334 330.559L404.332 330.566L405.777 330.969ZM405.778 330.963L406.145 329.508C405.993 329.47 405.844 329.431 405.698 329.39L405.295 330.835L404.892 332.28C405.068 332.329 405.242 332.374 405.412 332.417L405.778 330.963ZM405.295 330.835L405.698 329.39C396.123 326.718 390.527 316.789 393.2 307.214L391.755 306.81L390.31 306.407C387.192 317.578 393.721 329.162 404.892 332.28L405.295 330.835ZM391.755 306.81L393.2 307.214C395.873 297.638 405.801 292.043 415.376 294.715L415.78 293.271L416.183 291.826C405.012 288.708 393.428 295.236 390.31 306.407L391.755 306.81ZM415.78 293.271L415.376 294.715C415.528 294.758 415.676 294.801 415.82 294.845L416.26 293.411L416.699 291.977C416.526 291.923 416.353 291.873 416.183 291.826L415.78 293.271ZM416.26 293.411L417.704 293.814L417.706 293.808L416.261 293.405L414.816 293.002L414.815 293.007L416.26 293.411ZM416.261 293.405L415.858 294.85L580.332 340.757L580.736 339.312L581.139 337.867L416.665 291.96L416.261 293.405ZM580.736 339.312L579.291 338.909L568.806 376.473L570.251 376.876L571.696 377.28L582.18 339.715L580.736 339.312Z" fill="black" mask="url(#path-20-inside-4_559_614)"/>
<rect x="661.368" y="47.6947" width="63.5" height="364.5" rx="31.75" transform="rotate(22.2519 661.368 47.6947)" fill="white" stroke="black" stroke-width="1.5"/>
<circle cx="677.449" cy="95.2825" r="9.25" transform="rotate(-5.88013 677.449 95.2825)" stroke="black" stroke-width="1.5"/>
<circle cx="643.178" cy="182.251" r="9.25" transform="rotate(-5.88013 643.178 182.251)" stroke="black" stroke-width="1.5"/>
<circle cx="607.913" cy="269.322" r="9.25" transform="rotate(-5.88013 607.913 269.322)" stroke="black" stroke-width="1.5"/>
</g>
<path d="M663.41 311.184L750.068 314.204" stroke="black" stroke-width="8" stroke-linecap="round"/>
<path d="M625.812 309.874C625.819 309.67 626.204 308.255 629.709 306.766C632.885 305.417 637.517 304.568 642.811 304.752C648.104 304.937 652.667 306.106 655.74 307.673C659.134 309.403 659.419 310.841 659.412 311.045C659.405 311.25 659.019 312.664 655.515 314.154C652.339 315.503 647.707 316.352 642.413 316.167C637.12 315.983 632.557 314.813 629.484 313.246C626.091 311.517 625.805 310.079 625.812 309.874Z" stroke="black" stroke-width="8" stroke-linecap="round"/>
<path d="M670.453 298.669L730.021 349.823" stroke="black" stroke-width="8" stroke-linecap="round"/>
<path d="M644.895 276.722C645.715 276.111 647.612 275.599 651.041 276.446C654.349 277.264 658.26 279.206 661.767 282.217C665.273 285.229 667.417 288.486 668.201 291.183C669.014 293.977 668.238 295.453 667.418 296.064C666.598 296.674 664.702 297.186 661.274 296.339C657.966 295.521 654.055 293.58 650.548 290.568C647.041 287.556 644.898 284.299 644.114 281.603C643.301 278.808 644.075 277.332 644.895 276.722Z" stroke="black" stroke-width="8" stroke-linecap="round"/>
<path d="M929.032 250.994L850.041 272.16L761.011 248.304V173.835L795.94 164.931L809.478 161.48L842.115 153.16L929.032 176.449V176.525V250.994Z" fill="white"/>
<path d="M929.032 176.525V250.994L850.041 272.16M929.032 176.525V176.449L842.115 153.16L809.478 161.48M929.032 176.525L897.33 185.02M850.041 197.691V272.16M850.041 197.691L761.011 173.835M850.041 197.691L884.121 188.559M850.041 272.16L761.011 248.304V173.835M761.011 173.835L795.94 164.931M884.121 188.559V201.622L897.33 198.083V185.02M884.121 188.559L897.33 185.02M884.121 188.559L795.94 164.931M897.33 185.02L809.478 161.48M809.478 161.48L795.94 164.931" stroke="black" stroke-width="1.5"/>
<mask id="path-32-inside-5_559_614" fill="white">
<path d="M343.011 290.301C343.864 290.163 344.739 290.091 345.631 290.091C354.677 290.091 362.01 297.424 362.011 306.469C362.011 315.516 354.677 322.849 345.631 322.849C344.739 322.849 343.864 322.777 343.011 322.639V331.367H342.966C342.144 337.575 329.719 342.505 314.511 342.505C299.302 342.505 286.878 337.575 286.056 331.367H286.011V278.953H343.011V290.301ZM345.631 299.348C344.705 299.348 343.822 299.527 343.011 299.848V313.092C343.822 313.413 344.705 313.591 345.631 313.592C349.564 313.592 352.753 310.403 352.753 306.469C352.753 302.537 349.564 299.348 345.631 299.348Z"/>
</mask>
<path d="M343.011 290.301C343.864 290.163 344.739 290.091 345.631 290.091C354.677 290.091 362.01 297.424 362.011 306.469C362.011 315.516 354.677 322.849 345.631 322.849C344.739 322.849 343.864 322.777 343.011 322.639V331.367H342.966C342.144 337.575 329.719 342.505 314.511 342.505C299.302 342.505 286.878 337.575 286.056 331.367H286.011V278.953H343.011V290.301ZM345.631 299.348C344.705 299.348 343.822 299.527 343.011 299.848V313.092C343.822 313.413 344.705 313.591 345.631 313.592C349.564 313.592 352.753 310.403 352.753 306.469C352.753 302.537 349.564 299.348 345.631 299.348Z" fill="white"/>
<path d="M343.011 290.301H341.511V292.061L343.249 291.782L343.011 290.301ZM345.631 290.091L345.631 288.591L345.631 288.591L345.631 290.091ZM362.011 306.469L363.511 306.469L363.511 306.469L362.011 306.469ZM345.631 322.849L345.631 324.349H345.631V322.849ZM343.011 322.639L343.249 321.158L341.511 320.879V322.639H343.011ZM343.011 331.367V332.867H344.511V331.367H343.011ZM342.966 331.367V329.867H341.651L341.479 331.17L342.966 331.367ZM286.056 331.367L287.543 331.17L287.37 329.867H286.056V331.367ZM286.011 331.367H284.511V332.867H286.011V331.367ZM286.011 278.953V277.453H284.511V278.953H286.011ZM343.011 278.953H344.511V277.453H343.011V278.953ZM345.631 299.348L345.631 297.848L345.631 297.848L345.631 299.348ZM343.011 299.848L342.458 298.454L341.511 298.829V299.848H343.011ZM343.011 313.092H341.511V314.111L342.458 314.486L343.011 313.092ZM345.631 313.592L345.631 315.092H345.631V313.592ZM352.753 306.469L354.253 306.469L354.253 306.469L352.753 306.469ZM343.011 290.301L343.249 291.782C344.025 291.657 344.821 291.591 345.631 291.591L345.631 290.091L345.631 288.591C344.657 288.591 343.703 288.67 342.773 288.82L343.011 290.301ZM345.631 290.091V291.591C353.848 291.591 360.51 298.252 360.511 306.47L362.011 306.469L363.511 306.469C363.51 296.595 355.505 288.591 345.631 288.591V290.091ZM362.011 306.469H360.511C360.511 314.687 353.848 321.349 345.631 321.349V322.849V324.349C355.505 324.349 363.511 316.344 363.511 306.469H362.011ZM345.631 322.849L345.631 321.349C344.821 321.349 344.025 321.283 343.249 321.158L343.011 322.639L342.773 324.12C343.703 324.27 344.657 324.349 345.631 324.349L345.631 322.849ZM343.011 322.639H341.511V331.367H343.011H344.511V322.639H343.011ZM343.011 331.367V329.867H342.966V331.367V332.867H343.011V331.367ZM342.966 331.367L341.479 331.17C341.337 332.244 340.672 333.412 339.321 334.6C337.973 335.785 336.036 336.904 333.584 337.868C328.686 339.793 321.97 341.005 314.511 341.005V342.505V344.005C322.259 344.005 329.361 342.751 334.682 340.66C337.34 339.615 339.614 338.338 341.302 336.853C342.988 335.37 344.184 333.594 344.453 331.564L342.966 331.367ZM314.511 342.505V341.005C307.051 341.005 300.336 339.793 295.437 337.868C292.985 336.904 291.048 335.785 289.701 334.6C288.35 333.412 287.685 332.244 287.543 331.17L286.056 331.367L284.569 331.564C284.837 333.594 286.034 335.37 287.719 336.853C289.408 338.338 291.681 339.615 294.34 340.66C299.661 342.751 306.762 344.005 314.511 344.005V342.505ZM286.056 331.367V329.867H286.011V331.367V332.867H286.056V331.367ZM286.011 331.367H287.511V278.953H286.011H284.511V331.367H286.011ZM286.011 278.953V280.453H343.011V278.953V277.453H286.011V278.953ZM343.011 278.953H341.511V290.301H343.011H344.511V278.953H343.011ZM345.631 299.348L345.631 297.848C344.511 297.848 343.44 298.065 342.458 298.454L343.011 299.848L343.563 301.243C344.204 300.989 344.9 300.848 345.631 300.848L345.631 299.348ZM343.011 299.848H341.511V313.092H343.011H344.511V299.848H343.011ZM343.011 313.092L342.458 314.486C343.44 314.875 344.511 315.091 345.631 315.092L345.631 313.592L345.631 312.092C344.9 312.092 344.204 311.951 343.563 311.697L343.011 313.092ZM345.631 313.592V315.092C350.392 315.092 354.253 311.231 354.253 306.469H352.753H351.253C351.253 309.574 348.735 312.092 345.631 312.092V313.592ZM352.753 306.469L354.253 306.469C354.253 301.708 350.392 297.848 345.631 297.848V299.348V300.848C348.735 300.848 351.253 303.365 351.253 306.47L352.753 306.469Z" fill="black" mask="url(#path-32-inside-5_559_614)"/>
<rect x="295.183" y="307.125" width="7.2069" height="9.17241" fill="#009CFF"/>
<rect x="302.39" y="302.539" width="7.2069" height="9.17241" fill="#009CFF"/>
<rect x="309.597" y="307.125" width="7.2069" height="9.17241" fill="#009CFF"/>
<rect x="316.804" y="311.712" width="7.2069" height="9.17241" fill="#009CFF"/>
<path d="M314.511 267.91C322.307 267.91 329.331 269.219 334.377 271.307C336.902 272.352 338.896 273.577 340.247 274.899C341.595 276.218 342.261 277.588 342.261 278.953C342.261 280.318 341.596 281.688 340.247 283.007C338.896 284.329 336.902 285.555 334.377 286.599C329.331 288.687 322.307 289.996 314.511 289.996C306.714 289.996 299.691 288.687 294.645 286.599C292.12 285.555 290.126 284.329 288.774 283.007C287.426 281.688 286.761 280.318 286.761 278.953C286.761 277.588 287.426 276.218 288.774 274.899C290.126 273.577 292.12 272.352 294.645 271.307C299.691 269.219 306.714 267.91 314.511 267.91Z" fill="white" stroke="black" stroke-width="1.5"/>
<path d="M314.51 269.22C321.585 269.22 327.955 270.383 332.529 272.236C334.817 273.163 336.62 274.248 337.837 275.414C339.053 276.579 339.64 277.774 339.64 278.953C339.64 280.131 339.054 281.327 337.837 282.492C336.62 283.658 334.817 284.743 332.529 285.67C327.955 287.523 321.585 288.686 314.51 288.686C307.436 288.686 301.066 287.523 296.493 285.67C294.204 284.743 292.402 283.658 291.184 282.492C289.968 281.327 289.381 280.131 289.381 278.953C289.382 277.774 289.968 276.579 291.184 275.414C292.402 274.248 294.204 273.163 296.493 272.236C301.066 270.383 307.436 269.22 314.51 269.22Z" fill="#D9D9D9" stroke="black" stroke-width="1.5"/>
<mask id="mask4_559_614" style="mask-type:alpha" maskUnits="userSpaceOnUse" x="289" y="269" width="51" height="20">
<ellipse cx="314.511" cy="278.953" rx="25.2241" ry="9.82759" fill="#FF0000"/>
</mask>
<g mask="url(#mask4_559_614)">
<path d="M314.51 274.462C321.585 274.462 327.955 275.625 332.529 277.477C334.817 278.404 336.62 279.489 337.837 280.656C339.053 281.82 339.64 283.016 339.64 284.194C339.64 285.372 339.054 286.568 337.837 287.733C336.62 288.899 334.817 289.985 332.529 290.912C327.955 292.764 321.585 293.927 314.51 293.927C307.436 293.927 301.066 292.764 296.493 290.912C294.204 289.985 292.402 288.899 291.184 287.733C289.968 286.568 289.381 285.372 289.381 284.194C289.382 283.016 289.968 281.82 291.184 280.656C292.402 279.489 294.204 278.404 296.493 277.477C301.066 275.625 307.436 274.462 314.51 274.462Z" fill="black" stroke="black" stroke-width="1.5"/>
</g>
<path d="M134.168 300.66L11.0107 267.66L96.5107 244.75L219.331 277.66L215.011 278.998L134.168 300.66Z" fill="white" stroke="black" stroke-width="1.5"/>
<path d="M182.168 300.069L59.0107 267.069L144.511 244.16L267.331 277.069L263.011 278.408L182.168 300.069Z" fill="white" stroke="black" stroke-width="1.5"/>
<mask id="path-44-inside-6_559_614" fill="white">
<path d="M308.833 95.1598C308.991 98.6773 316.732 101.511 326.261 101.511C326.36 101.511 326.458 101.509 326.557 101.508V109.176H245.011V95.1598H308.833Z"/>
</mask>
<path d="M308.833 95.1598C308.991 98.6773 316.732 101.511 326.261 101.511C326.36 101.511 326.458 101.509 326.557 101.508V109.176H245.011V95.1598H308.833Z" fill="#009CFF"/>
<path d="M308.833 95.1598L310.332 95.0926L310.267 93.6598H308.833V95.1598ZM326.261 101.511L326.261 103.011H326.261V101.511ZM326.557 101.508H328.057V99.9991L326.547 100.008L326.557 101.508ZM326.557 109.176V110.676H328.057V109.176H326.557ZM245.011 109.176H243.511V110.676H245.011V109.176ZM245.011 95.1598V93.6598H243.511V95.1598H245.011ZM308.833 95.1598L307.335 95.227C307.4 96.6792 308.24 97.8711 309.313 98.7803C310.392 99.6952 311.849 100.455 313.519 101.064C316.867 102.286 321.367 103.011 326.261 103.011L326.261 101.511L326.261 100.011C321.626 100.011 317.491 99.3198 314.547 98.2455C313.07 97.7066 311.967 97.0979 311.253 96.492C310.532 95.8806 310.345 95.3992 310.332 95.0926L308.833 95.1598ZM326.261 101.511V103.011C326.349 103.011 326.519 103.009 326.566 103.008L326.557 101.508L326.547 100.008C326.398 100.009 326.37 100.011 326.261 100.011V101.511ZM326.557 101.508H325.057V109.176H326.557H328.057V101.508H326.557ZM326.557 109.176V107.676H245.011V109.176V110.676H326.557V109.176ZM245.011 109.176H246.511V95.1598H245.011H243.511V109.176H245.011ZM245.011 95.1598V96.6598H308.833V95.1598V93.6598H245.011V95.1598Z" fill="black" mask="url(#path-44-inside-6_559_614)"/>
<rect x="245.761" y="109.501" width="80.0456" height="12.0909" fill="#009CFF" stroke="black" stroke-width="1.5"/>
<mask id="path-47-inside-7_559_614" fill="white">
<path d="M285.488 111.114C291.19 111.114 295.871 113.711 296.374 117.024H296.42V167.511H296.409C296.179 170.98 291.379 173.751 285.488 173.751C279.597 173.751 274.798 170.98 274.568 167.511H274.556V117.024H274.603C275.105 113.711 279.786 111.114 285.488 111.114Z"/>
</mask>
<path d="M285.488 111.114C291.19 111.114 295.871 113.711 296.374 117.024H296.42V167.511H296.409C296.179 170.98 291.379 173.751 285.488 173.751C279.597 173.751 274.798 170.98 274.568 167.511H274.556V117.024H274.603C275.105 113.711 279.786 111.114 285.488 111.114Z" fill="white"/>
<path d="M285.488 111.114L285.488 109.614L285.488 109.614L285.488 111.114ZM296.374 117.024L294.891 117.248L295.084 118.524H296.374V117.024ZM296.42 117.024H297.92V115.524H296.42V117.024ZM296.42 167.511V169.011H297.92V167.511H296.42ZM296.409 167.511V166.011H295.005L294.912 167.412L296.409 167.511ZM285.488 173.751L285.488 175.251H285.488V173.751ZM274.568 167.511L276.065 167.412L275.972 166.011H274.568V167.511ZM274.556 167.511H273.056V169.011H274.556V167.511ZM274.556 117.024V115.524H273.056V117.024H274.556ZM274.603 117.024V118.524H275.893L276.086 117.248L274.603 117.024ZM285.488 111.114V112.614C288.126 112.614 290.468 113.217 292.162 114.143C293.889 115.087 294.737 116.236 294.891 117.248L296.374 117.024L297.857 116.799C297.508 114.498 295.764 112.693 293.6 111.51C291.402 110.31 288.552 109.614 285.488 109.614V111.114ZM296.374 117.024V118.524H296.42V117.024V115.524H296.374V117.024ZM296.42 117.024H294.92V167.511H296.42H297.92V117.024H296.42ZM296.42 167.511V166.011H296.409V167.511V169.011H296.42V167.511ZM296.409 167.511L294.912 167.412C294.844 168.446 294.062 169.635 292.325 170.631C290.622 171.607 288.215 172.251 285.488 172.251V173.751V175.251C288.652 175.251 291.59 174.51 293.817 173.233C296.011 171.976 297.744 170.045 297.906 167.61L296.409 167.511ZM285.488 173.751L285.488 172.251C282.761 172.251 280.354 171.607 278.651 170.631C276.914 169.635 276.133 168.446 276.065 167.412L274.568 167.511L273.071 167.61C273.232 170.045 274.966 171.976 277.159 173.233C279.386 174.51 282.324 175.251 285.488 175.251L285.488 173.751ZM274.568 167.511V166.011H274.556V167.511V169.011H274.568V167.511ZM274.556 167.511H276.056V117.024H274.556H273.056V167.511H274.556ZM274.556 117.024V118.524H274.603V117.024V115.524H274.556V117.024ZM274.603 117.024L276.086 117.248C276.24 116.236 277.087 115.087 278.815 114.143C280.509 113.217 282.85 112.614 285.488 112.614L285.488 111.114L285.488 109.614C282.424 109.614 279.574 110.31 277.376 111.51C275.212 112.693 273.469 114.498 273.12 116.799L274.603 117.024Z" fill="black" mask="url(#path-47-inside-7_559_614)"/>
<ellipse cx="285.511" cy="167.16" rx="10.5" ry="6" fill="white" stroke="black" stroke-width="1.5"/>
<path d="M101.609 90.5665C100.79 83.2509 106.951 59.6607 141.858 59.6607C200.011 59.6607 194.983 81.4601 193.511 90.5665C192.039 99.6729 189.785 90.9072 153.511 115.16C148.71 119.162 141.858 124.927 139.011 143.66" stroke="#009CFF" stroke-width="40.5197" stroke-linecap="round"/>
<path d="M131.059 169.218C143.652 166.576 155.784 173.777 158.191 185.251C160.597 196.724 152.383 208.194 139.79 210.835C127.196 213.477 115.065 206.276 112.658 194.803C110.251 183.329 118.466 171.86 131.059 169.218Z" fill="#009CFF" stroke="#009CFF" stroke-width="0.476703"/>
</g>
<defs>
<clipPath id="clip0_559_614">
<rect width="942" height="359" fill="white" transform="translate(0.0107422)"/>
</clipPath>
</defs>
</svg>
