<svg width="33" height="32" viewBox="0 0 33 32" fill="none" xmlns="http://www.w3.org/2000/svg">
<g clip-path="url(#clip0_262_10295)">
<path d="M16.233 3.05176e-05C7.45176 3.05176e-05 0.333008 7.11878 0.333008 15.9C0.333008 23.3565 5.4668 29.6135 12.3922 31.3319V20.7591H9.11362V15.9H12.3922V13.8063C12.3922 8.3946 14.8414 5.88621 20.1546 5.88621C21.162 5.88621 22.9002 6.08401 23.6112 6.28117V10.6855C23.236 10.646 22.5841 10.6263 21.7745 10.6263C19.1675 10.6263 18.1601 11.614 18.1601 14.1816V15.9H23.3537L22.4614 20.7591H18.1601V31.6836C26.0331 30.7328 32.1336 24.0294 32.1336 15.9C32.133 7.11878 25.0143 3.05176e-05 16.233 3.05176e-05Z" fill="white"/>
</g>
<defs>
<clipPath id="clip0_262_10295">
<rect width="31.8" height="31.8" fill="white" transform="translate(0.333008 3.05176e-05)"/>
</clipPath>
</defs>
</svg>
