<svg width="844" height="992" viewBox="0 0 844 992" fill="none" xmlns="http://www.w3.org/2000/svg">
<rect x="216.5" y="310.5" width="110" height="97" fill="#D9D9D9"/>
<rect x="216.5" y="310.5" width="110" height="97" fill="#D1EDFF"/>
<rect x="216.5" y="310.5" width="110" height="97" stroke="#009CFF"/>
<rect x="177" y="96" width="39" height="108" fill="#70C7FF"/>
<rect x="177" y="204" width="39" height="108" fill="#70C7FF"/>
<rect x="197" y="312" width="19" height="267" fill="#70C7FF"/>
<rect x="216.5" y="200.5" width="217" height="111" fill="#D9D9D9"/>
<rect x="216.5" y="200.5" width="217" height="111" fill="#D1EDFF"/>
<rect x="216.5" y="200.5" width="217" height="111" stroke="#009CFF"/>
<rect x="216.5" y="270.5" width="35" height="41" fill="#D9D9D9"/>
<rect x="216.5" y="270.5" width="35" height="41" fill="#D1EDFF"/>
<rect x="216.5" y="270.5" width="35" height="41" stroke="#009CFF"/>
<rect x="250.5" y="270.5" width="76" height="41" fill="#D9D9D9"/>
<rect x="250.5" y="270.5" width="76" height="41" fill="#D1EDFF"/>
<rect x="250.5" y="270.5" width="76" height="41" stroke="#009CFF"/>
<rect x="216.5" y="200.5" width="34" height="32" fill="#D1EDFF" stroke="#009CFF"/>
<rect x="250.5" y="200.5" width="22" height="20" fill="#D1EDFF" stroke="#009CFF"/>
<path d="M250.5 232.5V247" stroke="#009CFF"/>
<path d="M325.5 200.5V247" stroke="#009CFF"/>
<rect x="387.762" y="239.5" width="2.87692" height="8" fill="#D1EDFF" stroke="#009CFF"/>
<rect x="376.5" y="239.5" width="2.87692" height="8" fill="#D1EDFF" stroke="#009CFF"/>
<rect x="379.315" y="239.5" width="2.87692" height="8" fill="#D1EDFF" stroke="#009CFF"/>
<rect x="382.131" y="239.5" width="2.87692" height="8" fill="#D1EDFF" stroke="#009CFF"/>
<rect x="384.946" y="239.5" width="2.87692" height="8" fill="#D1EDFF" stroke="#009CFF"/>
<rect x="390.577" y="239.5" width="2.87692" height="8" fill="#D1EDFF" stroke="#009CFF"/>
<rect x="393.392" y="239.5" width="2.87692" height="8" fill="#D1EDFF" stroke="#009CFF"/>
<rect x="396.208" y="239.5" width="2.87692" height="8" fill="#D1EDFF" stroke="#009CFF"/>
<rect x="399.023" y="239.5" width="2.87692" height="8" fill="#D1EDFF" stroke="#009CFF"/>
<rect x="401.838" y="239.5" width="2.87692" height="8" fill="#D1EDFF" stroke="#009CFF"/>
<rect x="404.654" y="239.5" width="2.87692" height="8" fill="#D1EDFF" stroke="#009CFF"/>
<path d="M407.5 243.5H377" stroke="#009CFF"/>
<path d="M382.162 247.5L377 243.5L382.162 240" stroke="#009CFF"/>
<mask id="path-25-outside-1_430_1344" maskUnits="userSpaceOnUse" x="326" y="311" width="325" height="110" fill="black">
<rect fill="white" x="326" y="311" width="325" height="110"/>
<path d="M411 407H327V312H650V420H411V407Z"/>
</mask>
<path d="M411 407H327V312H650V420H411V407Z" fill="#D1EDFF"/>
<path d="M411 407H412V406H411V407ZM327 407H326V408H327V407ZM327 312V311H326V312H327ZM650 312H651V311H650V312ZM650 420V421H651V420H650ZM411 420H410V421H411V420ZM411 407V406H327V407V408H411V407ZM327 407H328V312H327H326V407H327ZM327 312V313H650V312V311H327V312ZM650 312H649V420H650H651V312H650ZM650 420V419H411V420V421H650V420ZM411 420H412V407H411H410V420H411Z" fill="#009CFF" mask="url(#path-25-outside-1_430_1344)"/>
<rect x="689.5" y="271.5" width="41" height="51" fill="#D1EDFF" stroke="#009CFF"/>
<mask id="path-28-outside-2_430_1344" maskUnits="userSpaceOnUse" x="651" y="241" width="90" height="71" fill="black">
<rect fill="white" x="651" y="241" width="90" height="71"/>
<path d="M740 272H689V311H673V302H652V273H673V242H740V272Z"/>
</mask>
<path d="M740 272H689V311H673V302H652V273H673V242H740V272Z" fill="#D1EDFF"/>
<path d="M740 272V273H741V272H740ZM689 272V271H688V272H689ZM689 311V312H690V311H689ZM673 311H672V312H673V311ZM673 302H674V301H673V302ZM652 302H651V303H652V302ZM652 273V272H651V273H652ZM673 273V274H674V273H673ZM673 242V241H672V242H673ZM740 242H741V241H740V242ZM740 272V271H689V272V273H740V272ZM689 272H688V311H689H690V272H689ZM689 311V310H673V311V312H689V311ZM673 311H674V302H673H672V311H673ZM673 302V301H652V302V303H673V302ZM652 302H653V273H652H651V302H652ZM652 273V274H673V273V272H652V273ZM673 273H674V242H673H672V273H673ZM673 242V243H740V242V241H673V242ZM740 242H739V272H740H741V242H740Z" fill="#009CFF" mask="url(#path-28-outside-2_430_1344)"/>
<rect x="688.5" y="548.5" width="42" height="32" fill="#D1EDFF" stroke="#009CFF"/>
<rect x="650.5" y="392.5" width="22" height="42" fill="#D1EDFF" stroke="#009CFF"/>
<rect x="0.5" y="-0.5" width="22" height="20" transform="matrix(1 0 0 -1 650 454)" fill="#D1EDFF" stroke="#009CFF"/>
<rect x="0.5" y="-0.5" width="22" height="20" transform="matrix(1 0 0 -1 650 474)" fill="#D1EDFF" stroke="#009CFF"/>
<rect x="0.5" y="-0.5" width="22" height="34" transform="matrix(1 0 0 -1 650 508)" fill="#D1EDFF" stroke="#009CFF"/>
<rect x="0.5" y="-0.5" width="22" height="21" transform="matrix(1 0 0 -1 650 529)" fill="#D1EDFF" stroke="#009CFF"/>
<rect x="0.5" y="-0.5" width="22" height="26" transform="matrix(1 0 0 -1 650 555)" fill="#D1EDFF" stroke="#009CFF"/>
<rect x="0.5" y="-0.5" width="22" height="24" transform="matrix(1 0 0 -1 650 579)" fill="#D1EDFF" stroke="#009CFF"/>
<mask id="path-38-outside-3_430_1344" maskUnits="userSpaceOnUse" x="659" y="569" width="72" height="29" fill="black">
<rect fill="white" x="659" y="569" width="72" height="29"/>
<path d="M688 580H730V597H660V580H673V570H688V580Z"/>
</mask>
<path d="M688 580H730V597H660V580H673V570H688V580Z" fill="#D1EDFF"/>
<path d="M688 580H687V581H688V580ZM730 580H731V579H730V580ZM730 597V598H731V597H730ZM660 597H659V598H660V597ZM660 580V579H659V580H660ZM673 580V581H674V580H673ZM673 570V569H672V570H673ZM688 570H689V569H688V570ZM688 580V581H730V580V579H688V580ZM730 580H729V597H730H731V580H730ZM730 597V596H660V597V598H730V597ZM660 597H661V580H660H659V597H660ZM660 580V581H673V580V579H660V580ZM673 580H674V570H673H672V580H673ZM673 570V571H688V570V569H673V570ZM688 570H687V580H688H689V570H688Z" fill="#009CFF" mask="url(#path-38-outside-3_430_1344)"/>
<rect x="650.5" y="311.5" width="28" height="11" fill="#D1EDFF" stroke="#009CFF"/>
<path d="M381 421H638V583H583V744H326V851H229V896H128V851H216V418H381V421ZM728 851H651V785H728V851ZM659 597H731V646H650V580H659V597ZM678 358H651V323H678V358ZM651 193H731V241H672V272H651V303H672V311H433.5V201H216V96H651V193Z" fill="#0A1653"/>
<mask id="path-42-inside-4_430_1344" fill="white">
<path d="M690 322H731V549H689V570H672V393H650V358H678V311H690V322Z"/>
</mask>
<path d="M690 322H731V549H689V570H672V393H650V358H678V311H690V322Z" fill="#D1EDFF"/>
<path d="M690 322H689V323H690V322ZM731 322H732V321H731V322ZM731 549V550H732V549H731ZM689 549V548H688V549H689ZM689 570V571H690V570H689ZM672 570H671V571H672V570ZM672 393H673V392H672V393ZM650 393H649V394H650V393ZM650 358V357H649V358H650ZM678 358V359H679V358H678ZM678 311V310H677V311H678ZM690 311H691V310H690V311ZM690 322V323H731V322V321H690V322ZM731 322H730V549H731H732V322H731ZM731 549V548H689V549V550H731V549ZM689 549H688V570H689H690V549H689ZM689 570V569H672V570V571H689V570ZM672 570H673V393H672H671V570H672ZM672 393V392H650V393V394H672V393ZM650 393H651V358H650H649V393H650ZM650 358V359H678V358V357H650V358ZM678 358H679V311H678H677V358H678ZM678 311V312H690V311V310H678V311ZM690 311H689V322H690H691V311H690Z" fill="#009CFF" mask="url(#path-42-inside-4_430_1344)"/>
<rect x="431.5" y="420.5" width="41" height="29" fill="#D1EDFF" stroke="#009CFF"/>
<rect x="0.5" y="-0.5" width="13" height="20" transform="matrix(-1 0 0 1 432 421)" fill="#D1EDFF" stroke="#009CFF"/>
<rect x="393.5" y="407.5" width="17" height="32" fill="#D1EDFF" stroke="#009CFF"/>
<rect x="0.5" y="-0.5" width="12" height="17" transform="matrix(-1 0 0 1 394 418)" fill="#D1EDFF" stroke="#009CFF"/>
<rect x="0.5" y="-0.5" width="177" height="10" transform="matrix(-1 0 0 1 394 408)" fill="#D1EDFF" stroke="#009CFF"/>
<rect x="0.5" y="0.5" width="162" height="13" transform="matrix(1.19249e-08 -1 -1 -1.19249e-08 651 583)" fill="#D1EDFF" stroke="#009CFF"/>
<rect x="-0.5" y="0.5" width="68" height="160" transform="matrix(1 2.38498e-08 2.38498e-08 -1 583 744)" fill="#D1EDFF" stroke="#009CFF"/>
<rect x="-0.5" y="-0.5" width="42" height="324" transform="matrix(-3.57746e-08 1 1 3.57746e-08 327 744)" fill="#70C7FF" stroke="#009CFF"/>
<rect x="358.5" y="850.5" width="65" height="48" transform="rotate(-90 358.5 850.5)" fill="#D1EDFF" stroke="#009CFF"/>
<rect x="0.5" y="0.5" width="65" height="33" transform="matrix(3.57746e-08 -1 -1 -3.57746e-08 360 851)" fill="#D1EDFF" stroke="#009CFF"/>
<rect x="406.5" y="850.5" width="65" height="49" transform="rotate(-90 406.5 850.5)" fill="#D1EDFF" stroke="#009CFF"/>
<rect x="455.5" y="850.5" width="65" height="32" transform="rotate(-90 455.5 850.5)" fill="#D1EDFF" stroke="#009CFF"/>
<rect x="487.5" y="850.5" width="65" height="163" transform="rotate(-90 487.5 850.5)" fill="#D1EDFF" stroke="#009CFF"/>
<path d="M156.839 456.474L156.917 456.5H196V463H157L156.791 463.954L187.821 478.237L184.274 485.332L155.221 471.052L155.146 471.015L155.063 471.004L104.616 464.574L110.357 440.65L156.839 456.474Z" fill="#D1EDFF" stroke="#009CFF"/>
<path d="M118 442.5L112.5 466" stroke="#009CFF"/>
<path d="M120 443.5L115 466.5M122 444.5L117.5 466.5M124 445L119.5 467M126 445.5L121.5 467M128 446.5L123.5 467.5M130 447L126 467.5M132.5 447.5L128.5 468" stroke="#009CFF"/>
<path d="M135 448.5L131 468.5M137 449.5L133.5 468.5M139 450L135.5 469M141 451L137.5 469" stroke="#009CFF"/>
<path d="M164.5 467L161 474.5M166.5 468L163 475.5M168.5 469L165 476.5M170.5 470L167 477.5M172.5 471L169 478.5M174.5 472L171 479.5M176.5 473L173 480.5M179 473.5L175 481.5M181 474.5L177 482.5" stroke="#009CFF"/>
<path d="M163 456V463" stroke="#009CFF"/>
<path d="M165 456V463" stroke="#009CFF"/>
<path d="M167 456V463" stroke="#009CFF"/>
<path d="M169 456V463" stroke="#009CFF"/>
<path d="M171 456V463" stroke="#009CFF"/>
<path d="M173 456V463" stroke="#009CFF"/>
<path d="M175 456V463" stroke="#009CFF"/>
<path d="M177 456V463" stroke="#009CFF"/>
<path d="M179 456V463" stroke="#009CFF"/>
<path d="M181 456V463" stroke="#009CFF"/>
<path d="M183 456V463" stroke="#009CFF"/>
<path d="M185 456V463" stroke="#009CFF"/>
<path d="M187 456V463" stroke="#009CFF"/>
<rect x="612.5" y="343.5" width="3" height="8" fill="#D1EDFF" stroke="#009CFF"/>
<rect x="600.5" y="343.5" width="3" height="8" fill="#D1EDFF" stroke="#009CFF"/>
<rect x="603.5" y="343.5" width="3" height="8" fill="#D1EDFF" stroke="#009CFF"/>
<rect x="606.5" y="343.5" width="3" height="8" fill="#D1EDFF" stroke="#009CFF"/>
<rect x="609.5" y="343.5" width="3" height="8" fill="#D1EDFF" stroke="#009CFF"/>
<rect x="615.5" y="343.5" width="3" height="8" fill="#D1EDFF" stroke="#009CFF"/>
<rect x="618.5" y="343.5" width="3" height="8" fill="#D1EDFF" stroke="#009CFF"/>
<rect x="621.5" y="343.5" width="3" height="8" fill="#D1EDFF" stroke="#009CFF"/>
<rect x="624.5" y="343.5" width="3" height="8" fill="#D1EDFF" stroke="#009CFF"/>
<rect x="627.5" y="343.5" width="3" height="8" fill="#D1EDFF" stroke="#009CFF"/>
<rect x="630.5" y="343.5" width="3" height="8" fill="#D1EDFF" stroke="#009CFF"/>
<path d="M633.5 347.5H601" stroke="#009CFF"/>
<path d="M606.5 351.5L601 347.5L606.5 344" stroke="#009CFF"/>
<rect x="0.5" y="-0.5" width="3" height="6.6" transform="matrix(-1 0 0 1 408.5 366)" fill="#D1EDFF" stroke="#009CFF"/>
<rect x="0.5" y="-0.5" width="3" height="6.6" transform="matrix(-1 0 0 1 420.5 366)" fill="#D1EDFF" stroke="#009CFF"/>
<rect x="0.5" y="-0.5" width="3" height="6.6" transform="matrix(-1 0 0 1 417.5 366)" fill="#D1EDFF" stroke="#009CFF"/>
<rect x="0.5" y="-0.5" width="3" height="6.6" transform="matrix(-1 0 0 1 414.5 366)" fill="#D1EDFF" stroke="#009CFF"/>
<rect x="0.5" y="-0.5" width="3" height="6.6" transform="matrix(-1 0 0 1 411.5 366)" fill="#D1EDFF" stroke="#009CFF"/>
<rect x="0.5" y="-0.5" width="3" height="6.6" transform="matrix(-1 0 0 1 405.5 366)" fill="#D1EDFF" stroke="#009CFF"/>
<rect x="0.5" y="-0.5" width="3" height="6.6" transform="matrix(-1 0 0 1 402.5 366)" fill="#D1EDFF" stroke="#009CFF"/>
<rect x="0.5" y="-0.5" width="3" height="6.6" transform="matrix(-1 0 0 1 399.5 366)" fill="#D1EDFF" stroke="#009CFF"/>
<rect x="0.5" y="-0.5" width="3" height="6.6" transform="matrix(-1 0 0 1 396.5 366)" fill="#D1EDFF" stroke="#009CFF"/>
<rect x="0.5" y="-0.5" width="3" height="6.6" transform="matrix(-1 0 0 1 393.5 366)" fill="#D1EDFF" stroke="#009CFF"/>
<rect x="0.5" y="-0.5" width="3" height="6.6" transform="matrix(-1 0 0 1 390.5 366)" fill="#D1EDFF" stroke="#009CFF"/>
<path d="M387 368.8H419.5" stroke="#009CFF"/>
<path d="M414 372L419.5 368.8L414 366" stroke="#009CFF"/>
<rect x="568.5" y="336.5" width="3" height="6.6" fill="#D1EDFF" stroke="#009CFF"/>
<rect x="556.5" y="336.5" width="3" height="6.6" fill="#D1EDFF" stroke="#009CFF"/>
<rect x="559.5" y="336.5" width="3" height="6.6" fill="#D1EDFF" stroke="#009CFF"/>
<rect x="562.5" y="336.5" width="3" height="6.6" fill="#D1EDFF" stroke="#009CFF"/>
<rect x="565.5" y="336.5" width="3" height="6.6" fill="#D1EDFF" stroke="#009CFF"/>
<rect x="571.5" y="336.5" width="3" height="6.6" fill="#D1EDFF" stroke="#009CFF"/>
<rect x="574.5" y="336.5" width="3" height="6.6" fill="#D1EDFF" stroke="#009CFF"/>
<rect x="577.5" y="336.5" width="3" height="6.6" fill="#D1EDFF" stroke="#009CFF"/>
<rect x="580.5" y="336.5" width="3" height="6.6" fill="#D1EDFF" stroke="#009CFF"/>
<rect x="583.5" y="336.5" width="3" height="6.6" fill="#D1EDFF" stroke="#009CFF"/>
<rect x="586.5" y="336.5" width="3" height="6.6" fill="#D1EDFF" stroke="#009CFF"/>
<path d="M589.5 339.8H557" stroke="#009CFF"/>
<path d="M562.5 343L557 339.8L562.5 337" stroke="#009CFF"/>
<rect x="446.5" y="336.5" width="3" height="6.6" fill="#D1EDFF" stroke="#009CFF"/>
<rect x="434.5" y="336.5" width="3" height="6.6" fill="#D1EDFF" stroke="#009CFF"/>
<rect x="437.5" y="336.5" width="3" height="6.6" fill="#D1EDFF" stroke="#009CFF"/>
<rect x="440.5" y="336.5" width="3" height="6.6" fill="#D1EDFF" stroke="#009CFF"/>
<rect x="443.5" y="336.5" width="3" height="6.6" fill="#D1EDFF" stroke="#009CFF"/>
<rect x="449.5" y="336.5" width="3" height="6.6" fill="#D1EDFF" stroke="#009CFF"/>
<rect x="452.5" y="336.5" width="3" height="6.6" fill="#D1EDFF" stroke="#009CFF"/>
<rect x="455.5" y="336.5" width="3" height="6.6" fill="#D1EDFF" stroke="#009CFF"/>
<rect x="458.5" y="336.5" width="3" height="6.6" fill="#D1EDFF" stroke="#009CFF"/>
<rect x="461.5" y="336.5" width="3" height="6.6" fill="#D1EDFF" stroke="#009CFF"/>
<rect x="464.5" y="336.5" width="3" height="6.6" fill="#D1EDFF" stroke="#009CFF"/>
<path d="M467.5 339.8H435" stroke="#009CFF"/>
<path d="M440.5 343L435 339.8L440.5 337" stroke="#009CFF"/>
<mask id="path-127-outside-5_430_1344" maskUnits="userSpaceOnUse" x="326" y="200" width="108" height="96" fill="black">
<rect fill="white" x="326" y="200" width="108" height="96"/>
<path d="M433 239H376.532V276H433V295H327V201H433V239Z"/>
</mask>
<path d="M433 239H376.532V276H433V295H327V201H433V239Z" fill="#D1EDFF"/>
<path d="M433 239V239.5H433.5V239H433ZM376.532 239V238.5H376.032V239H376.532ZM376.532 276H376.032V276.5H376.532V276ZM433 276H433.5V275.5H433V276ZM433 295V295.5H433.5V295H433ZM327 295H326.5V295.5H327V295ZM327 201V200.5H326.5V201H327ZM433 201H433.5V200.5H433V201ZM433 239V238.5H431.992V239V239.5H433V239ZM429.975 239V238.5H427.958V239V239.5H429.975V239ZM425.942 239V238.5H423.925V239V239.5H425.942V239ZM421.908 239V238.5H419.891V239V239.5H421.908V239ZM417.875 239V238.5H415.858V239V239.5H417.875V239ZM413.841 239V238.5H411.825V239V239.5H413.841V239ZM409.808 239V238.5H407.791V239V239.5H409.808V239ZM405.774 239V238.5H403.758V239V239.5H405.774V239ZM401.741 239V238.5H399.724V239V239.5H401.741V239ZM397.708 239V238.5H395.691V239V239.5H397.708V239ZM393.674 239V238.5H391.658V239V239.5H393.674V239ZM389.641 239V238.5H387.624V239V239.5H389.641V239ZM385.607 239V238.5H383.591V239V239.5H385.607V239ZM381.574 239V238.5H379.557V239V239.5H381.574V239ZM377.541 239V238.5H376.532V239V239.5H377.541V239ZM376.532 239H376.032V240.028H376.532H377.032V239H376.532ZM376.532 242.083H376.032V244.139H376.532H377.032V242.083H376.532ZM376.532 246.194H376.032V248.25H376.532H377.032V246.194H376.532ZM376.532 250.306H376.032V252.361H376.532H377.032V250.306H376.532ZM376.532 254.417H376.032V256.472H376.532H377.032V254.417H376.532ZM376.532 258.528H376.032V260.583H376.532H377.032V258.528H376.532ZM376.532 262.639H376.032V264.694H376.532H377.032V262.639H376.532ZM376.532 266.75H376.032V268.806H376.532H377.032V266.75H376.532ZM376.532 270.861H376.032V272.917H376.532H377.032V270.861H376.532ZM376.532 274.972H376.032V276H376.532H377.032V274.972H376.532ZM376.532 276V276.5H377.541V276V275.5H376.532V276ZM379.557 276V276.5H381.574V276V275.5H379.557V276ZM383.591 276V276.5H385.607V276V275.5H383.591V276ZM387.624 276V276.5H389.641V276V275.5H387.624V276ZM391.658 276V276.5H393.674V276V275.5H391.658V276ZM395.691 276V276.5H397.708V276V275.5H395.691V276ZM399.724 276V276.5H401.741V276V275.5H399.724V276ZM403.758 276V276.5H405.774V276V275.5H403.758V276ZM407.791 276V276.5H409.808V276V275.5H407.791V276ZM411.825 276V276.5H413.841V276V275.5H411.825V276ZM415.858 276V276.5H417.875V276V275.5H415.858V276ZM419.891 276V276.5H421.908V276V275.5H419.891V276ZM423.925 276V276.5H425.942V276V275.5H423.925V276ZM427.958 276V276.5H429.975V276V275.5H427.958V276ZM431.992 276V276.5H433V276V275.5H431.992V276ZM433 276H432.5V276.95H433H433.5V276H433ZM433 278.85H432.5V280.75H433H433.5V278.85H433ZM433 282.65H432.5V284.55H433H433.5V282.65H433ZM433 286.45H432.5V288.35H433H433.5V286.45H433ZM433 290.25H432.5V292.15H433H433.5V290.25H433ZM433 294.05H432.5V295H433H433.5V294.05H433ZM433 295V294.5H432.019V295V295.5H433V295ZM430.056 295V294.5H428.093V295V295.5H430.056V295ZM426.13 295V294.5H424.167V295V295.5H426.13V295ZM422.204 295V294.5H420.241V295V295.5H422.204V295ZM418.278 295V294.5H416.315V295V295.5H418.278V295ZM414.352 295V294.5H412.389V295V295.5H414.352V295ZM410.426 295V294.5H408.463V295V295.5H410.426V295ZM406.5 295V294.5H404.537V295V295.5H406.5V295ZM402.574 295V294.5H400.611V295V295.5H402.574V295ZM398.648 295V294.5H396.685V295V295.5H398.648V295ZM394.722 295V294.5H392.759V295V295.5H394.722V295ZM390.796 295V294.5H388.833V295V295.5H390.796V295ZM386.87 295V294.5H384.907V295V295.5H386.87V295ZM382.944 295V294.5H380.981V295V295.5H382.944V295ZM379.019 295V294.5H377.056V295V295.5H379.019V295ZM375.093 295V294.5H373.13V295V295.5H375.093V295ZM371.167 295V294.5H369.204V295V295.5H371.167V295ZM367.241 295V294.5H365.278V295V295.5H367.241V295ZM363.315 295V294.5H361.352V295V295.5H363.315V295ZM359.389 295V294.5H357.426V295V295.5H359.389V295ZM355.463 295V294.5H353.5V295V295.5H355.463V295ZM351.537 295V294.5H349.574V295V295.5H351.537V295ZM347.611 295V294.5H345.648V295V295.5H347.611V295ZM343.685 295V294.5H341.722V295V295.5H343.685V295ZM339.759 295V294.5H337.796V295V295.5H339.759V295ZM335.833 295V294.5H333.87V295V295.5H335.833V295ZM331.907 295V294.5H329.945V295V295.5H331.907V295ZM327.982 295V294.5H327V295V295.5H327.982V295ZM327 295H327.5V294.021H327H326.5V295H327ZM327 292.062H327.5V290.104H327H326.5V292.062H327ZM327 288.146H327.5V286.188H327H326.5V288.146H327ZM327 284.229H327.5V282.271H327H326.5V284.229H327ZM327 280.313H327.5V278.354H327H326.5V280.313H327ZM327 276.396H327.5V274.438H327H326.5V276.396H327ZM327 272.479H327.5V270.521H327H326.5V272.479H327ZM327 268.562H327.5V266.604H327H326.5V268.562H327ZM327 264.646H327.5V262.687H327H326.5V264.646H327ZM327 260.729H327.5V258.771H327H326.5V260.729H327ZM327 256.812H327.5V254.854H327H326.5V256.812H327ZM327 252.896H327.5V250.938H327H326.5V252.896H327ZM327 248.979H327.5V247.021H327H326.5V248.979H327ZM327 245.063H327.5V243.104H327H326.5V245.063H327ZM327 241.146H327.5V239.188H327H326.5V241.146H327ZM327 237.229H327.5V235.271H327H326.5V237.229H327ZM327 233.313H327.5V231.354H327H326.5V233.313H327ZM327 229.396H327.5V227.438H327H326.5V229.396H327ZM327 225.479H327.5V223.521H327H326.5V225.479H327ZM327 221.563H327.5V219.604H327H326.5V221.563H327ZM327 217.646H327.5V215.688H327H326.5V217.646H327ZM327 213.729H327.5V211.771H327H326.5V213.729H327ZM327 209.812H327.5V207.854H327H326.5V209.812H327ZM327 205.896H327.5V203.937H327H326.5V205.896H327ZM327 201.979H327.5V201H327H326.5V201.979H327ZM327 201V201.5H327.981V201V200.5H327V201ZM329.944 201V201.5H331.907V201V200.5H329.944V201ZM333.87 201V201.5H335.833V201V200.5H333.87V201ZM337.796 201V201.5H339.759V201V200.5H337.796V201ZM341.722 201V201.5H343.685V201V200.5H341.722V201ZM345.648 201V201.5H347.611V201V200.5H345.648V201ZM349.574 201V201.5H351.537V201V200.5H349.574V201ZM353.5 201V201.5H355.463V201V200.5H353.5V201ZM357.426 201V201.5H359.389V201V200.5H357.426V201ZM361.352 201V201.5H363.315V201V200.5H361.352V201ZM365.278 201V201.5H367.241V201V200.5H365.278V201ZM369.204 201V201.5H371.167V201V200.5H369.204V201ZM373.13 201V201.5H375.093V201V200.5H373.13V201ZM377.056 201V201.5H379.019V201V200.5H377.056V201ZM380.981 201V201.5H382.944V201V200.5H380.981V201ZM384.907 201V201.5H386.87V201V200.5H384.907V201ZM388.833 201V201.5H390.796V201V200.5H388.833V201ZM392.759 201V201.5H394.722V201V200.5H392.759V201ZM396.685 201V201.5H398.648V201V200.5H396.685V201ZM400.611 201V201.5H402.574V201V200.5H400.611V201ZM404.537 201V201.5H406.5V201V200.5H404.537V201ZM408.463 201V201.5H410.426V201V200.5H408.463V201ZM412.389 201V201.5H414.352V201V200.5H412.389V201ZM416.315 201V201.5H418.278V201V200.5H416.315V201ZM420.241 201V201.5H422.204V201V200.5H420.241V201ZM424.167 201V201.5H426.13V201V200.5H424.167V201ZM428.093 201V201.5H430.055V201V200.5H428.093V201ZM432.018 201V201.5H433V201V200.5H432.018V201ZM433 201H432.5V201.95H433H433.5V201H433ZM433 203.85H432.5V205.75H433H433.5V203.85H433ZM433 207.65H432.5V209.55H433H433.5V207.65H433ZM433 211.45H432.5V213.35H433H433.5V211.45H433ZM433 215.25H432.5V217.15H433H433.5V215.25H433ZM433 219.05H432.5V220.95H433H433.5V219.05H433ZM433 222.85H432.5V224.75H433H433.5V222.85H433ZM433 226.65H432.5V228.55H433H433.5V226.65H433ZM433 230.45H432.5V232.35H433H433.5V230.45H433ZM433 234.25H432.5V236.15H433H433.5V234.25H433ZM433 238.05H432.5V239H433H433.5V238.05H433ZM433 239V240H434V239H433ZM376.532 239V238H375.532V239H376.532ZM376.532 276H375.532V277H376.532V276ZM433 276H434V275H433V276ZM433 295V296H434V295H433ZM327 295H326V296H327V295ZM327 201V200H326V201H327ZM433 201H434V200H433V201ZM433 239V238H431.992V239V240H433V239ZM429.975 239V238H427.958V239V240H429.975V239ZM425.942 239V238H423.925V239V240H425.942V239ZM421.908 239V238H419.891V239V240H421.908V239ZM417.875 239V238H415.858V239V240H417.875V239ZM413.841 239V238H411.825V239V240H413.841V239ZM409.808 239V238H407.791V239V240H409.808V239ZM405.774 239V238H403.758V239V240H405.774V239ZM401.741 239V238H399.724V239V240H401.741V239ZM397.708 239V238H395.691V239V240H397.708V239ZM393.674 239V238H391.658V239V240H393.674V239ZM389.641 239V238H387.624V239V240H389.641V239ZM385.607 239V238H383.591V239V240H385.607V239ZM381.574 239V238H379.557V239V240H381.574V239ZM377.541 239V238H376.532V239V240H377.541V239ZM376.532 239H375.532V240.028H376.532H377.532V239H376.532ZM376.532 242.083H375.532V244.139H376.532H377.532V242.083H376.532ZM376.532 246.194H375.532V248.25H376.532H377.532V246.194H376.532ZM376.532 250.306H375.532V252.361H376.532H377.532V250.306H376.532ZM376.532 254.417H375.532V256.472H376.532H377.532V254.417H376.532ZM376.532 258.528H375.532V260.583H376.532H377.532V258.528H376.532ZM376.532 262.639H375.532V264.694H376.532H377.532V262.639H376.532ZM376.532 266.75H375.532V268.806H376.532H377.532V266.75H376.532ZM376.532 270.861H375.532V272.917H376.532H377.532V270.861H376.532ZM376.532 274.972H375.532V276H376.532H377.532V274.972H376.532ZM376.532 276V277H377.541V276V275H376.532V276ZM379.557 276V277H381.574V276V275H379.557V276ZM383.591 276V277H385.607V276V275H383.591V276ZM387.624 276V277H389.641V276V275H387.624V276ZM391.658 276V277H393.674V276V275H391.658V276ZM395.691 276V277H397.708V276V275H395.691V276ZM399.724 276V277H401.741V276V275H399.724V276ZM403.758 276V277H405.774V276V275H403.758V276ZM407.791 276V277H409.808V276V275H407.791V276ZM411.825 276V277H413.841V276V275H411.825V276ZM415.858 276V277H417.875V276V275H415.858V276ZM419.891 276V277H421.908V276V275H419.891V276ZM423.925 276V277H425.942V276V275H423.925V276ZM427.958 276V277H429.975V276V275H427.958V276ZM431.992 276V277H433V276V275H431.992V276ZM433 276H432V276.95H433H434V276H433ZM433 278.85H432V280.75H433H434V278.85H433ZM433 282.65H432V284.55H433H434V282.65H433ZM433 286.45H432V288.35H433H434V286.45H433ZM433 290.25H432V292.15H433H434V290.25H433ZM433 294.05H432V295H433H434V294.05H433ZM433 295V294H432.019V295V296H433V295ZM430.056 295V294H428.093V295V296H430.056V295ZM426.13 295V294H424.167V295V296H426.13V295ZM422.204 295V294H420.241V295V296H422.204V295ZM418.278 295V294H416.315V295V296H418.278V295ZM414.352 295V294H412.389V295V296H414.352V295ZM410.426 295V294H408.463V295V296H410.426V295ZM406.5 295V294H404.537V295V296H406.5V295ZM402.574 295V294H400.611V295V296H402.574V295ZM398.648 295V294H396.685V295V296H398.648V295ZM394.722 295V294H392.759V295V296H394.722V295ZM390.796 295V294H388.833V295V296H390.796V295ZM386.87 295V294H384.907V295V296H386.87V295ZM382.944 295V294H380.981V295V296H382.944V295ZM379.019 295V294H377.056V295V296H379.019V295ZM375.093 295V294H373.13V295V296H375.093V295ZM371.167 295V294H369.204V295V296H371.167V295ZM367.241 295V294H365.278V295V296H367.241V295ZM363.315 295V294H361.352V295V296H363.315V295ZM359.389 295V294H357.426V295V296H359.389V295ZM355.463 295V294H353.5V295V296H355.463V295ZM351.537 295V294H349.574V295V296H351.537V295ZM347.611 295V294H345.648V295V296H347.611V295ZM343.685 295V294H341.722V295V296H343.685V295ZM339.759 295V294H337.796V295V296H339.759V295ZM335.833 295V294H333.87V295V296H335.833V295ZM331.907 295V294H329.945V295V296H331.907V295ZM327.982 295V294H327V295V296H327.982V295ZM327 295H328V294.021H327H326V295H327ZM327 292.062H328V290.104H327H326V292.062H327ZM327 288.146H328V286.188H327H326V288.146H327ZM327 284.229H328V282.271H327H326V284.229H327ZM327 280.313H328V278.354H327H326V280.313H327ZM327 276.396H328V274.438H327H326V276.396H327ZM327 272.479H328V270.521H327H326V272.479H327ZM327 268.562H328V266.604H327H326V268.562H327ZM327 264.646H328V262.687H327H326V264.646H327ZM327 260.729H328V258.771H327H326V260.729H327ZM327 256.812H328V254.854H327H326V256.812H327ZM327 252.896H328V250.938H327H326V252.896H327ZM327 248.979H328V247.021H327H326V248.979H327ZM327 245.063H328V243.104H327H326V245.063H327ZM327 241.146H328V239.188H327H326V241.146H327ZM327 237.229H328V235.271H327H326V237.229H327ZM327 233.313H328V231.354H327H326V233.313H327ZM327 229.396H328V227.438H327H326V229.396H327ZM327 225.479H328V223.521H327H326V225.479H327ZM327 221.563H328V219.604H327H326V221.563H327ZM327 217.646H328V215.688H327H326V217.646H327ZM327 213.729H328V211.771H327H326V213.729H327ZM327 209.812H328V207.854H327H326V209.812H327ZM327 205.896H328V203.937H327H326V205.896H327ZM327 201.979H328V201H327H326V201.979H327ZM327 201V202H327.981V201V200H327V201ZM329.944 201V202H331.907V201V200H329.944V201ZM333.87 201V202H335.833V201V200H333.87V201ZM337.796 201V202H339.759V201V200H337.796V201ZM341.722 201V202H343.685V201V200H341.722V201ZM345.648 201V202H347.611V201V200H345.648V201ZM349.574 201V202H351.537V201V200H349.574V201ZM353.5 201V202H355.463V201V200H353.5V201ZM357.426 201V202H359.389V201V200H357.426V201ZM361.352 201V202H363.315V201V200H361.352V201ZM365.278 201V202H367.241V201V200H365.278V201ZM369.204 201V202H371.167V201V200H369.204V201ZM373.13 201V202H375.093V201V200H373.13V201ZM377.056 201V202H379.019V201V200H377.056V201ZM380.981 201V202H382.944V201V200H380.981V201ZM384.907 201V202H386.87V201V200H384.907V201ZM388.833 201V202H390.796V201V200H388.833V201ZM392.759 201V202H394.722V201V200H392.759V201ZM396.685 201V202H398.648V201V200H396.685V201ZM400.611 201V202H402.574V201V200H400.611V201ZM404.537 201V202H406.5V201V200H404.537V201ZM408.463 201V202H410.426V201V200H408.463V201ZM412.389 201V202H414.352V201V200H412.389V201ZM416.315 201V202H418.278V201V200H416.315V201ZM420.241 201V202H422.204V201V200H420.241V201ZM424.167 201V202H426.13V201V200H424.167V201ZM428.093 201V202H430.055V201V200H428.093V201ZM432.018 201V202H433V201V200H432.018V201ZM433 201H432V201.95H433H434V201H433ZM433 203.85H432V205.75H433H434V203.85H433ZM433 207.65H432V209.55H433H434V207.65H433ZM433 211.45H432V213.35H433H434V211.45H433ZM433 215.25H432V217.15H433H434V215.25H433ZM433 219.05H432V220.95H433H434V219.05H433ZM433 222.85H432V224.75H433H434V222.85H433ZM433 226.65H432V228.55H433H434V226.65H433ZM433 230.45H432V232.35H433H434V230.45H433ZM433 234.25H432V236.15H433H434V234.25H433ZM433 238.05H432V239H433H434V238.05H433Z" fill="#009CFF" mask="url(#path-127-outside-5_430_1344)"/>
</svg>
