<svg width="32" height="32" viewBox="0 0 32 32" fill="none" xmlns="http://www.w3.org/2000/svg">
<g clip-path="url(#clip0_262_10293)">
<path d="M15.9 2.86327C20.1483 2.86327 20.6514 2.88191 22.3221 2.95644C23.8748 3.02476 24.7133 3.28562 25.2723 3.503C26.0114 3.7887 26.5455 4.13652 27.0983 4.68929C27.6573 5.24827 27.9989 5.7762 28.2846 6.5153C28.502 7.07429 28.7629 7.91898 28.8312 9.4655C28.9057 11.1425 28.9243 11.6455 28.9243 15.8876C28.9243 20.1359 28.9057 20.639 28.8312 22.3097C28.7629 23.8625 28.502 24.7009 28.2846 25.2599C27.9989 25.999 27.6511 26.5332 27.0983 27.0859C26.5393 27.6449 26.0114 27.9865 25.2723 28.2722C24.7133 28.4896 23.8686 28.7505 22.3221 28.8188C20.6452 28.8933 20.1421 28.9119 15.9 28.9119C11.6517 28.9119 11.1486 28.8933 9.47789 28.8188C7.92516 28.7505 7.08668 28.4896 6.5277 28.2722C5.78859 27.9865 5.25445 27.6387 4.70168 27.0859C4.1427 26.5269 3.80109 25.999 3.51539 25.2599C3.29801 24.7009 3.03715 23.8562 2.96883 22.3097C2.8943 20.6328 2.87566 20.1297 2.87566 15.8876C2.87566 11.6393 2.8943 11.1362 2.96883 9.4655C3.03715 7.91277 3.29801 7.07429 3.51539 6.5153C3.80109 5.7762 4.14891 5.24206 4.70168 4.68929C5.26066 4.1303 5.78859 3.7887 6.5277 3.503C7.08668 3.28562 7.93137 3.02476 9.47789 2.95644C11.1486 2.88191 11.6517 2.86327 15.9 2.86327ZM15.9 3.05176e-05C11.5834 3.05176e-05 11.043 0.0186633 9.34746 0.0931946C7.65809 0.167726 6.49664 0.441007 5.49047 0.832296C4.44082 1.24222 3.55266 1.78257 2.6707 2.67073C1.78254 3.55269 1.24219 4.44085 0.832266 5.48429C0.440977 6.49667 0.167695 7.65191 0.0931641 9.34128C0.0186328 11.0431 0 11.5834 0 15.9C0 20.2166 0.0186328 20.757 0.0931641 22.4526C0.167695 24.1419 0.440977 25.3034 0.832266 26.3096C1.24219 27.3592 1.78254 28.2474 2.6707 29.1293C3.55266 30.0113 4.44082 30.5578 5.48426 30.9616C6.49664 31.3528 7.65188 31.6261 9.34125 31.7007C11.0368 31.7752 11.5772 31.7938 15.8938 31.7938C20.2104 31.7938 20.7507 31.7752 22.4463 31.7007C24.1357 31.6261 25.2972 31.3528 26.3033 30.9616C27.3468 30.5578 28.2349 30.0113 29.1169 29.1293C29.9988 28.2474 30.5454 27.3592 30.9491 26.3158C31.3404 25.3034 31.6137 24.1482 31.6882 22.4588C31.7627 20.7632 31.7814 20.2228 31.7814 15.9062C31.7814 11.5896 31.7627 11.0493 31.6882 9.3537C31.6137 7.66433 31.3404 6.50288 30.9491 5.49671C30.5578 4.44085 30.0175 3.55269 29.1293 2.67073C28.2473 1.78878 27.3592 1.24222 26.3157 0.838507C25.3034 0.447218 24.1481 0.173937 22.4588 0.0994055C20.757 0.0186633 20.2166 3.05176e-05 15.9 3.05176e-05Z" fill="white"/>
<path d="M15.8998 7.73265C11.3907 7.73265 7.73242 11.3909 7.73242 15.9C7.73242 20.4092 11.3907 24.0674 15.8998 24.0674C20.4089 24.0674 24.0672 20.4092 24.0672 15.9C24.0672 11.3909 20.4089 7.73265 15.8998 7.73265ZM15.8998 21.198C12.9745 21.198 10.6019 18.8254 10.6019 15.9C10.6019 12.9747 12.9745 10.6021 15.8998 10.6021C18.8252 10.6021 21.1977 12.9747 21.1977 15.9C21.1977 18.8254 18.8252 21.198 15.8998 21.198Z" fill="white"/>
<path d="M26.2969 7.40961C26.2969 8.46547 25.4398 9.31637 24.3902 9.31637C23.3343 9.31637 22.4834 8.45926 22.4834 7.40961C22.4834 6.35375 23.3405 5.50285 24.3902 5.50285C25.4398 5.50285 26.2969 6.35996 26.2969 7.40961Z" fill="white"/>
</g>
<defs>
<clipPath id="clip0_262_10293">
<rect width="31.8" height="31.8" fill="white"/>
</clipPath>
</defs>
</svg>
