<svg width="33" height="32" viewBox="0 0 33 32" fill="none" xmlns="http://www.w3.org/2000/svg">
<g clip-path="url(#clip0_262_10294)">
<path d="M30.113 3.05176e-05H3.01473C1.71664 3.05176e-05 0.666992 1.02484 0.666992 2.29187V29.502C0.666992 30.769 1.71664 31.8 3.01473 31.8H30.113C31.4111 31.8 32.467 30.769 32.467 29.5082V2.29187C32.467 1.02484 31.4111 3.05176e-05 30.113 3.05176e-05ZM10.1014 27.0984H5.38109V11.9188H10.1014V27.0984ZM7.74125 9.85058C6.22578 9.85058 5.00223 8.62702 5.00223 7.11776C5.00223 5.60851 6.22578 4.38495 7.74125 4.38495C9.25051 4.38495 10.4741 5.60851 10.4741 7.11776C10.4741 8.62081 9.25051 9.85058 7.74125 9.85058ZM27.7653 27.0984H23.0512V19.7198C23.0512 17.9621 23.0202 15.6951 20.5979 15.6951C18.1446 15.6951 17.7719 17.6143 17.7719 19.5955V27.0984H13.064V11.9188H17.5856V13.9933H17.6477C18.275 12.8008 19.8153 11.54 22.1072 11.54C26.8834 11.54 27.7653 14.6827 27.7653 18.7695V27.0984Z" fill="white"/>
</g>
<defs>
<clipPath id="clip0_262_10294">
<rect width="31.8" height="31.8" fill="white" transform="translate(0.666992 3.05176e-05)"/>
</clipPath>
</defs>
</svg>
