<svg width="496" height="56" viewBox="0 0 496 56" fill="none" xmlns="http://www.w3.org/2000/svg">
<path d="M302.052 0C307.403 0 312.092 1.17227 316.118 3.5166C320.144 5.86095 323.279 9.12273 325.521 13.3018C327.815 17.4298 328.961 22.2208 328.961 27.6738C328.961 33.1271 327.815 37.9439 325.521 42.123C323.279 46.2511 320.144 49.4867 316.118 51.8311C312.092 54.1754 307.403 55.3477 302.052 55.3477C296.751 55.3476 292.062 54.1754 287.985 51.8311C283.959 49.4867 280.799 46.251 278.506 42.123C276.263 37.9439 275.143 33.1271 275.143 27.6738C275.143 22.2208 276.263 17.4298 278.506 13.3018C280.799 9.12275 283.959 5.86095 287.985 3.5166C292.062 1.17224 296.751 1.85272e-05 302.052 0ZM399.723 33.79C399.723 37.6631 400.665 40.5935 402.551 42.5811C404.487 44.5177 407.163 45.4863 410.578 45.4863C413.993 45.4863 416.643 44.5177 418.528 42.5811C420.465 40.5934 421.434 37.6633 421.434 33.79V0.917969H432.136V33.7139C432.136 38.5554 431.142 42.5813 429.154 45.792C427.218 49.0027 424.593 51.3986 421.28 52.9785C417.968 54.5583 414.324 55.3477 410.349 55.3477C406.373 55.3477 402.78 54.5584 399.569 52.9785C396.359 51.3986 393.785 49.0027 391.849 45.792C389.963 42.5813 389.02 38.5553 389.02 33.7139V0.917969H399.723V33.79ZM170.476 9.55664H154.956V54.4307H144.254V9.55664H128.658V0.917969H170.476V9.55664ZM197.454 0.917969C201.786 0.917969 205.354 1.65679 208.157 3.13477C211.011 4.56177 213.126 6.54949 214.502 9.09766C215.929 11.5949 216.643 14.4233 216.643 17.583C216.643 20.0293 216.107 22.2972 215.037 24.3867C213.967 26.4253 212.54 28.1841 210.756 29.6621C212.693 30.9872 214.171 32.6946 215.19 34.7842C216.261 36.8736 216.846 39.2688 216.948 41.9697L217.56 54.4307H207.087L206.246 41.9697C206.144 40.186 205.787 38.7335 205.176 37.6123C204.615 36.4401 203.723 35.5733 202.5 35.0127C201.277 34.4521 199.621 34.1719 197.531 34.1719H185.452V54.4307H174.75V0.917969H197.454ZM233.511 54.4307H222.808V0.917969H233.511V54.4307ZM274.974 9.55664H250.587V23.3936H270.081V31.8027H250.587V54.4307H239.885V0.917969H274.974V9.55664ZM344.538 46.0977H367.932V54.4307H333.836V0.917969H344.538V46.0977ZM383.563 54.4307H372.861V0.917969H383.563V54.4307ZM466.817 40.5312L482.957 0.917969H495.724V54.4307H485.021V20.5127L470.955 54.4307H462.393L448.25 20.4746V54.4307H437.548V0.917969H450.391L466.817 40.5312ZM80.6074 15.375H107.127V41.5098H80.1875V28.251H53.8789V40.8789H26.9395V54.1387H0V28.0029H26.9395V14.7432H53.668V2.11621H80.6074V15.375ZM302.128 9.63281C298.866 9.63287 296.038 10.3717 293.643 11.8496C291.247 13.2766 289.388 15.3409 288.062 18.042C286.737 20.743 286.074 23.9536 286.074 27.6738C286.074 31.3943 286.737 34.6055 288.062 37.3066C289.388 40.0076 291.247 42.0973 293.643 43.5752C296.038 45.0021 298.866 45.7158 302.128 45.7158C305.39 45.7158 308.193 45.0021 310.537 43.5752C312.932 42.0972 314.793 40.0077 316.118 37.3066C317.443 34.6055 318.105 31.3943 318.105 27.6738C318.105 23.9536 317.443 20.743 316.118 18.042C314.793 15.3409 312.932 13.2766 310.537 11.8496C308.193 10.3718 305.39 9.63281 302.128 9.63281ZM185.452 25.5332H196.767C199.926 25.5332 202.219 24.8204 203.646 23.3936C205.073 21.9665 205.787 20.0293 205.787 17.583C205.787 15.0859 205.073 13.1494 203.646 11.7734C202.22 10.3465 199.926 9.63285 196.767 9.63281H185.452V25.5332Z" fill="white"/>
</svg>
