<svg width="170" height="119" viewBox="0 0 170 119" fill="none" xmlns="http://www.w3.org/2000/svg">
<path d="M79.918 93.4795C82.3484 93.4795 84.478 94.0114 86.3066 95.0762C88.1352 96.1409 89.5587 97.6225 90.5771 99.5205C91.6187 101.395 92.1396 103.571 92.1396 106.048C92.1396 108.525 91.6187 110.712 90.5771 112.61C89.5587 114.485 88.1351 115.955 86.3066 117.02C84.4781 118.084 82.3484 118.616 79.918 118.616C77.5108 118.616 75.381 118.084 73.5293 117.02C71.7009 115.955 70.2662 114.485 69.2246 112.61C68.2062 110.712 67.6963 108.525 67.6963 106.048C67.6963 103.571 68.2061 101.395 69.2246 99.5205C70.2662 97.6226 71.7008 96.1409 73.5293 95.0762C75.381 94.0114 77.5108 93.4795 79.918 93.4795ZM124.277 108.825C124.277 110.584 124.706 111.916 125.562 112.818C126.442 113.698 127.657 114.138 129.208 114.138C130.759 114.138 131.962 113.698 132.818 112.818C133.698 111.916 134.138 110.584 134.138 108.825V93.8955H138.999V108.791C138.999 110.99 138.547 112.818 137.645 114.276C136.765 115.735 135.573 116.822 134.068 117.54C132.564 118.258 130.909 118.616 129.104 118.616C127.298 118.616 125.666 118.258 124.208 117.54C122.75 116.822 121.581 115.735 120.701 114.276C119.845 112.818 119.417 110.99 119.417 108.791V93.8955H124.277V108.825ZM20.1592 97.8193H13.1113V118.2H8.25V97.8193H1.16797V93.8955H20.1592V97.8193ZM32.4131 93.8955C34.3803 93.8956 36.0005 94.2312 37.2734 94.9023C38.5695 95.5504 39.5303 96.4532 40.1553 97.6104C40.8034 98.7445 41.1279 100.03 41.1279 101.465C41.1279 102.576 40.8845 103.606 40.3984 104.555C39.9124 105.48 39.2642 106.279 38.4541 106.95C39.3336 107.552 40.0048 108.327 40.4678 109.276C40.9538 110.225 41.2203 111.313 41.2666 112.54L41.5439 118.2H36.7871L36.4053 112.54C36.359 111.73 36.1975 111.071 35.9199 110.562C35.6653 110.029 35.2596 109.635 34.7041 109.381C34.1486 109.126 33.3962 108.999 32.4473 108.999H26.9619V118.2H22.1006V93.8955H32.4131ZM48.7881 118.2H43.9277V93.8955H48.7881V118.2ZM67.6201 97.8193H56.5439V104.104H65.3975V107.923H56.5439V118.2H51.6836V93.8955H67.6201V97.8193ZM99.2148 114.415H109.839V118.2H94.3535V93.8955H99.2148V114.415ZM116.938 118.2H112.078V93.8955H116.938V118.2ZM154.75 111.887L162.08 93.8955H167.879V118.2H163.018V102.795L156.63 118.2H152.741L146.317 102.777V118.2H141.457V93.8955H147.29L154.75 111.887ZM79.9531 97.8535C78.4717 97.8535 77.1865 98.1891 76.0986 98.8604C75.0108 99.5084 74.1663 100.446 73.5645 101.673C72.9626 102.9 72.6611 104.358 72.6611 106.048C72.6611 107.738 72.9626 109.196 73.5645 110.423C74.1662 111.649 75.0109 112.598 76.0986 113.27C77.1865 113.918 78.4717 114.242 79.9531 114.242C81.4344 114.242 82.7078 113.918 83.7725 113.27C84.8601 112.598 85.7049 111.649 86.3066 110.423C86.9084 109.196 87.209 107.738 87.209 106.048C87.209 104.358 86.9085 102.9 86.3066 101.673C85.7049 100.446 84.8602 99.5084 83.7725 98.8604C82.7078 98.1891 81.4344 97.8536 79.9531 97.8535ZM26.9619 105.075H32.1006C33.5353 105.075 34.5765 104.751 35.2246 104.104C35.8727 103.455 36.1972 102.576 36.1973 101.465C36.1973 100.331 35.8727 99.4511 35.2246 98.8262C34.5765 98.1782 33.5354 97.8536 32.1006 97.8535H26.9619V105.075ZM43.3242 81.9531H0.885742V40.7812H43.3242V81.9531ZM127.871 20.8877H169.646V62.0596H127.208V41.1719H85.7637V61.0654H43.3252V19.8936H85.4326V0H127.871V20.8877Z" fill="black"/>
</svg>
