<svg width="496" height="56" viewBox="0 0 496 56" fill="none" xmlns="http://www.w3.org/2000/svg">
<path d="M302.052 0.569336C307.403 0.569336 312.092 1.74161 316.118 4.08594C320.144 6.43029 323.279 9.69206 325.521 13.8711C327.815 17.9991 328.961 22.7901 328.961 28.2432C328.961 33.6964 327.815 38.5133 325.521 42.6924C323.279 46.8204 320.144 50.056 316.118 52.4004C312.092 54.7448 307.403 55.917 302.052 55.917C296.751 55.917 292.062 54.7447 287.985 52.4004C283.959 50.0561 280.799 46.8203 278.506 42.6924C276.263 38.5133 275.143 33.6964 275.143 28.2432C275.143 22.7901 276.263 17.9991 278.506 13.8711C280.799 9.69209 283.959 6.43028 287.985 4.08594C292.062 1.74158 296.751 0.569354 302.052 0.569336ZM399.723 34.3594C399.723 38.2324 400.665 41.1628 402.551 43.1504C404.487 45.087 407.163 46.0557 410.578 46.0557C413.993 46.0556 416.643 45.087 418.528 43.1504C420.465 41.1628 421.434 38.2326 421.434 34.3594V1.4873H432.136V34.2832C432.136 39.1247 431.142 43.1506 429.154 46.3613C427.218 49.5721 424.593 51.968 421.28 53.5479C417.968 55.1276 414.324 55.917 410.349 55.917C406.373 55.917 402.78 55.1278 399.569 53.5479C396.359 51.9679 393.785 49.5721 391.849 46.3613C389.963 43.1506 389.02 39.1247 389.02 34.2832V1.4873H399.723V34.3594ZM170.476 10.126H154.956V55H144.254V10.126H128.658V1.4873H170.476V10.126ZM197.454 1.4873C201.786 1.4873 205.354 2.22612 208.157 3.7041C211.011 5.1311 213.126 7.11883 214.502 9.66699C215.929 12.1642 216.643 14.9926 216.643 18.1523C216.643 20.5986 216.107 22.8665 215.037 24.9561C213.967 26.9946 212.54 28.7535 210.756 30.2314C212.693 31.5565 214.171 33.264 215.19 35.3535C216.261 37.4429 216.846 39.8382 216.948 42.5391L217.56 55H207.087L206.246 42.5391C206.144 40.7554 205.787 39.3028 205.176 38.1816C204.615 37.0095 203.723 36.1426 202.5 35.582C201.277 35.0215 199.621 34.7412 197.531 34.7412H185.452V55H174.75V1.4873H197.454ZM233.511 55H222.808V1.4873H233.511V55ZM274.974 10.126H250.587V23.9629H270.081V32.3721H250.587V55H239.885V1.4873H274.974V10.126ZM344.538 46.667H367.932V55H333.836V1.4873H344.538V46.667ZM383.563 55H372.861V1.4873H383.563V55ZM466.817 41.1006L482.957 1.4873H495.724V55H485.021V21.082L470.955 55H462.393L448.25 21.0439V55H437.548V1.4873H450.391L466.817 41.1006ZM80.6074 15.9443H107.127V42.0791H80.1875V28.8203H53.8789V41.4482H26.9395V54.708H0V28.5723H26.9395V15.3125H53.668V2.68555H80.6074V15.9443ZM302.128 10.2021C298.866 10.2022 296.038 10.941 293.643 12.4189C291.247 13.8459 289.388 15.9103 288.062 18.6113C286.737 21.3124 286.074 24.5229 286.074 28.2432C286.074 31.9636 286.737 35.1748 288.062 37.876C289.388 40.5769 291.247 42.6666 293.643 44.1445C296.038 45.5715 298.866 46.2851 302.128 46.2852C305.39 46.2852 308.193 45.5714 310.537 44.1445C312.932 42.6666 314.793 40.5771 316.118 37.876C317.443 35.1748 318.105 31.9636 318.105 28.2432C318.105 24.5229 317.443 21.3123 316.118 18.6113C314.793 15.9102 312.932 13.846 310.537 12.4189C308.193 10.9411 305.39 10.2021 302.128 10.2021ZM185.452 26.1025H196.767C199.926 26.1025 202.219 25.3897 203.646 23.9629C205.073 22.5359 205.787 20.5987 205.787 18.1523C205.787 15.6552 205.073 13.7188 203.646 12.3428C202.22 10.9158 199.926 10.2022 196.767 10.2021H185.452V26.1025Z" fill="black"/>
</svg>
