<svg width="348" height="802" viewBox="0 0 348 802" fill="none" xmlns="http://www.w3.org/2000/svg">
<rect width="88.2899" height="85.6544" transform="matrix(4.37114e-08 1 1 -4.37114e-08 87.2827 446.21)" fill="#009CFF"/>
<rect width="88.2899" height="85.6544" transform="matrix(4.37114e-08 1 1 -4.37114e-08 41.5059 542.192)" fill="#009CFF"/>
<rect width="88.2899" height="85.6544" transform="matrix(4.37114e-08 1 1 -4.37114e-08 43.5723 716.704)" fill="#009CFF"/>
<rect width="88.2899" height="85.6544" transform="matrix(4.37114e-08 1 1 -4.37114e-08 0.119141 629.792)" fill="#009CFF"/>
<g clip-path="url(#clip0_550_983)">
<path fill-rule="evenodd" clip-rule="evenodd" d="M143.317 457.891C148.169 457.642 151.529 454.157 151.529 454.157L171.148 421.656L194.766 406.483C209.156 403.198 225.078 380.61 225.078 380.61C225.078 380.61 262.681 344.553 277.059 336.59C291.437 328.627 295.964 310.916 295.964 310.916C295.964 310.916 301.595 275.255 307.226 267.121C312.857 258.988 322.405 224.223 323.732 221.79C325.06 219.356 327.714 194.803 329.484 182.637C331.253 170.471 354.699 122.25 361.114 116.72C367.529 111.19 381.242 74.0285 381.242 74.0285L410.441 -1.84198L216.352 -1.82697C216.352 -1.82697 215.257 4.11621 212.989 7.40082C210.721 10.6854 210.203 15.8541 207.714 18.0108C205.226 20.1674 200.304 32.0006 200.304 32.0006C196.876 34.102 190.571 41.4026 190.571 41.4026L186.92 42.1769C174.975 47.3751 141.243 72.7019 125.096 90.8401C108.948 108.978 104.192 126.453 102.312 127.116C100.432 127.78 95.3449 130.545 95.3449 130.545C95.3449 130.545 91.3628 130.544 87.2707 134.083C83.1783 137.622 83.7311 143.264 83.3993 146.693C83.0674 150.121 84.3961 153.77 84.3961 153.77C79.4191 158.858 74.6437 170.147 74.6437 170.147C74.6437 170.147 73.5474 171.241 70.8884 176.089C68.2294 180.938 70.8898 192.356 72.2975 196.423C73.7052 200.489 84.6535 219.102 84.6535 219.102L82.1507 240.061C82.1507 240.061 77.9799 254.858 77.648 258.95C77.3161 263.042 78.6451 270.673 78.6451 270.673L78.5349 276.978C77.6501 286.379 82.0172 291.355 82.0172 291.355C82.0172 291.355 75.3477 305.168 72.6887 310.916C70.0297 316.664 69.638 319.205 69.638 319.205C69.638 319.205 68.0732 332.969 68.5424 336.567C69.0116 340.164 72.4507 344.664 72.4507 344.664C72.4507 344.664 70.6823 347.541 70.3504 352.407C70.0185 357.273 74.7987 363.627 74.7987 363.627C74.7987 363.627 77.8487 366.832 79.1 374.496C80.3513 382.16 84.1194 388.627 84.1194 388.627L88.266 395.373L89.6499 398.803C90.2581 402.509 92.5903 406.951 92.5903 406.951C92.5903 406.951 93.9198 409.377 95.523 412.662C97.1263 415.946 102.562 422.83 102.589 422.941C102.615 423.051 106.931 439.669 107.899 441.936C108.866 444.203 112.432 443.926 112.432 443.926C112.709 444.839 114.372 445.899 114.372 445.899C119.768 448.479 126.755 443.762 126.755 443.762C126.755 443.762 130.516 453.273 138.036 456.813C139.917 457.697 141.699 457.974 143.317 457.891ZM132.124 397.412L125.76 384.591L124.321 362.251C133.833 357.827 150.534 335.044 150.534 335.044L179.62 320.775L208.709 303.632L211.253 304.296C208.156 310.821 209.925 317.347 209.925 317.347C204.395 319.891 196.1 327.963 193.446 330.839C190.791 333.715 175.972 352.297 175.972 352.297C164.912 356.942 162.479 361.807 156.728 366.01C150.977 370.213 132.124 397.412 132.124 397.412Z" fill="#009CFF" stroke="white" stroke-width="3.8246" stroke-miterlimit="2.8" stroke-linecap="round" stroke-linejoin="round"/>
<path d="M127.197 444.101C127.197 444.101 120.94 416.494 132.358 396.317" stroke="white" stroke-width="3.8246" stroke-miterlimit="2.8" stroke-linecap="round" stroke-linejoin="round"/>
<path d="M112.181 442.224C112.181 442.224 108.271 433.699 109.053 425.879C109.835 418.058 105.299 414.226 105.299 414.226C105.299 414.226 100.294 413.601 100.137 418.136" stroke="white" stroke-width="3.8246" stroke-miterlimit="2.8" stroke-linecap="round" stroke-linejoin="round"/>
<path d="M125.868 385.133C125.868 385.133 121.958 371.135 109.602 371.917" stroke="white" stroke-width="3.8246" stroke-miterlimit="2.8" stroke-linecap="round" stroke-linejoin="round"/>
<path d="M124.303 362.297C124.303 362.297 125.476 354.477 119.22 350.879" stroke="white" stroke-width="3.8246" stroke-miterlimit="2.8" stroke-linecap="round" stroke-linejoin="round"/>
<path d="M211.806 303.411C211.806 303.411 217.778 302.305 225.078 302.858C232.377 303.411 249.409 302.305 259.695 299.65C269.981 296.996 285.133 292.793 285.133 292.793" stroke="white" stroke-width="3.8246" stroke-miterlimit="2.8" stroke-linecap="round" stroke-linejoin="round"/>
<path d="M210.478 317.901C210.478 317.901 219.215 313.919 231.602 318.675" stroke="white" stroke-width="3.8246" stroke-miterlimit="2.8" stroke-linecap="round" stroke-linejoin="round"/>
<path d="M177.74 352.296C177.74 352.296 184.045 350.306 191.344 358.158C198.644 366.011 201.63 373.642 201.63 373.642" stroke="white" stroke-width="3.8246" stroke-miterlimit="2.8" stroke-linecap="round" stroke-linejoin="round"/>
<path d="M172.543 355.836C173.096 355.946 182.718 355.836 184.708 356.721" stroke="white" stroke-width="3.8246" stroke-miterlimit="2.8" stroke-linecap="round" stroke-linejoin="round"/>
<path d="M208.218 303.565L227.144 295.041C227.144 295.041 235.825 288.628 235.825 279.087C235.825 269.546 231.836 261.647 228.317 259.067C224.798 256.486 221.904 254.14 219.323 253.358" stroke="white" stroke-width="3.8246" stroke-miterlimit="2.8" stroke-linecap="round" stroke-linejoin="round"/>
<path d="M150.346 334.847C150.346 334.847 119.846 350.488 117.499 351.739C115.153 352.99 100.607 359.559 92.7866 358.308C84.9661 357.057 72.9224 347.047 72.1403 344.388" stroke="white" stroke-width="3.8246" stroke-miterlimit="2.8" stroke-linecap="round" stroke-linejoin="round"/>
<path d="M82.5423 291.99C82.5423 291.99 91.223 307.788 101.624 307.318C112.026 306.849 115.076 306.302 125.086 303.252C135.096 300.202 175.308 284.941 175.308 284.941C175.308 284.941 191.345 277.752 198.976 272.001C206.608 266.25 213.575 256.849 214.46 256.407C215.345 255.964 224.967 248.665 224.967 248.665C224.967 248.665 238.992 240.57 242.12 235.995C245.248 231.42 247.751 222.785 243.548 212.941C239.345 203.098 228.506 200.222 228.506 200.222C228.506 200.222 220.543 199.006 211.695 206.195C202.847 213.384 176.082 225.218 176.082 225.218C176.082 225.218 147.548 239.043 146.663 242.25C145.778 245.457 125.981 254.526 119.898 252.646C113.815 250.766 105.963 244.462 99.8799 237.715C93.7969 230.969 89.7047 226.434 89.7047 226.434" stroke="white" stroke-width="3.8246" stroke-miterlimit="2.8" stroke-linecap="round" stroke-linejoin="round"/>
<path d="M102.329 249.994C102.329 249.994 106.161 246.787 108.585 247.022" stroke="white" stroke-width="3.8246" stroke-miterlimit="2.8" stroke-linecap="round" stroke-linejoin="round"/>
<path d="M199.143 272.666C199.143 272.666 197.594 280.961 201.189 288.979C204.783 296.998 215.732 293.182 215.732 293.182L229.336 289.035C229.336 289.035 232.488 282.896 228.949 273.938C225.41 264.979 218 259.671 218 259.671L204.617 266.97" stroke="white" stroke-width="3.8246" stroke-miterlimit="2.8" stroke-linecap="round" stroke-linejoin="round"/>
<path fill-rule="evenodd" clip-rule="evenodd" d="M225.961 244.24L238.238 237.051C238.238 237.051 245.648 231.964 242.219 224.222C238.791 216.48 231.27 208.628 231.27 208.628L220.431 218.25C220.431 218.25 213.685 227.761 217.335 237.605C220.984 247.448 225.961 244.24 225.961 244.24Z" stroke="white" stroke-width="3.8246" stroke-miterlimit="2.8" stroke-linecap="round" stroke-linejoin="round"/>
<path fill-rule="evenodd" clip-rule="evenodd" d="M228.616 193.808L243.658 189.494C243.658 189.494 252.506 186.066 249.077 177.329C245.649 168.591 240.561 164.278 240.561 164.278L230.275 168.923C230.275 168.923 222.091 175.338 221.759 179.983C221.428 184.628 220.1 196.241 228.616 193.808Z" stroke="white" stroke-width="3.8246" stroke-miterlimit="2.8" stroke-linecap="round" stroke-linejoin="round"/>
<path d="M229.281 199.338C229.281 199.338 250.626 195.356 251.732 177.439C252.838 159.522 232.82 155.983 232.82 155.983C232.82 155.983 222.866 154.877 208.599 159.412C194.331 163.946 179.732 166.932 172.101 172.905C164.47 178.877 178.405 167.485 127.198 183.965C127.198 183.965 119.567 187.614 115.585 192.149" stroke="white" stroke-width="3.8246" stroke-miterlimit="2.8" stroke-linecap="round" stroke-linejoin="round"/>
<path d="M126.422 182.858C126.422 182.858 111.049 171.134 81.2975 172.793" stroke="white" stroke-width="3.8246" stroke-miterlimit="2.8" stroke-linecap="round" stroke-linejoin="round"/>
<path d="M138.589 178.546L115.916 158.749C115.916 158.749 101.317 144.703 92.5797 141.606" stroke="white" stroke-width="3.8246" stroke-miterlimit="2.8" stroke-linecap="round" stroke-linejoin="round"/>
<path d="M84.6159 153.66C84.6159 153.66 86.828 156.757 89.9248 157.974" stroke="white" stroke-width="3.8246" stroke-miterlimit="2.8" stroke-linecap="round" stroke-linejoin="round"/>
<path d="M168.009 173.458C167.788 172.684 168.784 157.642 167.014 152.555" stroke="white" stroke-width="3.8246" stroke-miterlimit="2.8" stroke-linecap="round" stroke-linejoin="round"/>
<path d="M198.534 160.628C198.534 160.628 208.598 138.508 209.373 130.103" stroke="white" stroke-width="3.8246" stroke-miterlimit="2.8" stroke-linecap="round" stroke-linejoin="round"/>
<path d="M164.911 172.794C164.911 172.794 156.174 166.711 153.298 165.273" stroke="white" stroke-width="3.8246" stroke-miterlimit="2.8" stroke-linecap="round" stroke-linejoin="round"/>
<path d="M234.103 154.663C234.103 154.663 263.351 125.571 263.899 114.153" stroke="white" stroke-width="3.8246" stroke-miterlimit="2.8" stroke-linecap="round" stroke-linejoin="round"/>
<path d="M310.51 128.228C309.571 128.228 295.651 118.687 288.925 109.459C282.199 100.231 265.776 62.5356 259.207 55.9664" stroke="white" stroke-width="3.8246" stroke-miterlimit="2.8" stroke-linecap="round" stroke-linejoin="round"/>
<path d="M194.994 62.3057C194.994 62.3057 186.398 61.363 188.118 42.8284" stroke="white" stroke-width="3.8246" stroke-miterlimit="2.8" stroke-linecap="round" stroke-linejoin="round"/>
<path d="M197.737 269.624C197.737 269.624 196.642 257.893 194.766 255.078" stroke="white" stroke-width="3.8246" stroke-miterlimit="2.8" stroke-linecap="round" stroke-linejoin="round"/>
<path d="M188.352 275.411C188.352 275.411 188.978 267.278 184.129 264.775C179.28 262.273 181.001 262.742 179.906 258.05C178.811 253.357 180.375 248.352 176.778 246.475" stroke="white" stroke-width="3.8246" stroke-miterlimit="2.8" stroke-linecap="round" stroke-linejoin="round"/>
<path d="M179.75 276.35C179.75 276.35 170.679 258.989 169.897 256.33" stroke="white" stroke-width="3.8246" stroke-miterlimit="2.8" stroke-linecap="round" stroke-linejoin="round"/>
<path d="M175.84 313.575C175.84 313.575 169.271 309.978 167.707 306.537C166.143 303.096 161.138 300.437 160.356 293.242" stroke="white" stroke-width="3.8246" stroke-miterlimit="2.8" stroke-linecap="round" stroke-linejoin="round"/>
<path d="M171.773 320.301C171.773 320.301 158.478 310.29 157.54 300.593" stroke="white" stroke-width="3.8246" stroke-miterlimit="2.8" stroke-linecap="round" stroke-linejoin="round"/>
<path d="M160.981 320.457C160.981 320.457 153.161 315.295 150.658 306.223" stroke="white" stroke-width="3.8246" stroke-miterlimit="2.8" stroke-linecap="round" stroke-linejoin="round"/>
<path d="M105.299 353.617L92.4736 347.36" stroke="white" stroke-width="3.8246" stroke-miterlimit="2.8" stroke-linecap="round" stroke-linejoin="round"/>
<path d="M98.4175 345.482C97.6355 344.7 86.3738 329.528 85.5918 323.897" stroke="white" stroke-width="3.8246" stroke-miterlimit="2.8" stroke-linecap="round" stroke-linejoin="round"/>
<path d="M86.2168 353.304C85.904 352.679 82.7758 347.986 80.1168 344.858C77.4579 341.73 72.7656 337.037 73.7041 332.658" stroke="white" stroke-width="3.8246" stroke-miterlimit="2.8" stroke-linecap="round" stroke-linejoin="round"/>
<path d="M102.327 305.129C102.327 305.129 98.104 300.906 97.0091 296.839C95.9142 292.772 88.8757 288.237 88.8757 288.237" stroke="white" stroke-width="3.8246" stroke-miterlimit="2.8" stroke-linecap="round" stroke-linejoin="round"/>
</g>
<defs>
<clipPath id="clip0_550_983">
<rect width="281.618" height="463.841" fill="white" transform="translate(66.3823 -3.83008)"/>
</clipPath>
</defs>
</svg>
