<svg width="355" height="201" viewBox="0 0 355 201" fill="none" xmlns="http://www.w3.org/2000/svg">
<path d="M304.581 200.353L60.1305 199.91L60.2419 141.579L304.693 142.022L304.581 200.353ZM93.3783 186.786L126.601 186.846L126.662 154.884L93.4394 154.824L93.3783 186.786ZM146.759 154.921L146.698 186.882L179.92 186.943L179.981 154.981L146.759 154.921Z" fill="#BDE5FF"/>
<rect width="68.9056" height="83.5012" transform="matrix(0.999998 0.00181266 -0.00191035 0.999998 2.15979 57.9727)" fill="white" stroke="black" stroke-width="3.19622"/>
<rect width="68.9056" height="58.7305" transform="matrix(0.999998 0.00181266 -0.00191035 0.999998 2.11243 82.7432)" stroke="black" stroke-width="3.19622"/>
<rect width="68.9056" height="25.5697" transform="matrix(0.999998 0.00181266 -0.00191035 0.999998 2.04907 115.904)" stroke="black" stroke-width="1.19858"/>
<rect width="22.9685" height="25.5697" transform="matrix(0.999998 0.00181266 -0.00191035 0.999998 2.04907 115.904)" stroke="black" stroke-width="1.19858"/>
<rect width="22.9685" height="25.5697" transform="matrix(0.999998 0.00181266 -0.00191035 0.999998 48.8066 115.989)" stroke="black" stroke-width="1.19858"/>
<path d="M342.266 11.4448L71.1555 10.9534L70.9059 141.599L342.016 142.09L342.266 11.4448Z" fill="white"/>
<path d="M342.266 11.4448L342.269 9.84672L343.867 9.84962L343.864 11.4477L342.266 11.4448ZM71.1555 10.9534L69.5574 10.9505L69.5605 9.35239L71.1586 9.35529L71.1555 10.9534ZM342.266 11.4448L342.263 13.0429L71.1525 12.5515L71.1555 10.9534L71.1586 9.35529L342.269 9.84672L342.266 11.4448ZM71.1555 10.9534L72.7536 10.9563L72.504 141.601L70.9059 141.599L69.3078 141.596L69.5574 10.9505L71.1555 10.9534ZM342.016 142.09L340.418 142.087L340.668 11.4419L342.266 11.4448L343.864 11.4477L343.614 142.093L342.016 142.09Z" fill="black"/>
<rect width="51.269" height="47.1442" transform="matrix(-0.999998 -0.00181266 -0.00191035 0.999998 122.425 11.0464)" stroke="black" stroke-width="3.19622"/>
<rect width="23.3787" height="27.5674" transform="matrix(0.999998 0.00181266 -0.00191035 0.999998 318.887 11.4023)" stroke="black" stroke-width="3.19622"/>
<rect width="2.87106" height="72.7139" transform="matrix(-0.999998 -0.00181266 0.00191035 -0.999998 318.279 114.879)" stroke="black" stroke-width="3.99527"/>
<rect width="38.1441" height="14.7825" transform="matrix(0.999998 0.00181266 -0.00191035 0.999998 95.6138 89.7046)" fill="#C6C6C6"/>
<rect width="9.02335" height="47.1442" transform="matrix(0.999998 0.00181266 -0.00191035 0.999998 72.647 88.864)" fill="#C6C6C6"/>
<path d="M123.613 140.296L123.767 59.5913" stroke="black" stroke-width="0.399527" stroke-linejoin="round" stroke-dasharray="2 2"/>
<path d="M313.715 142.039L313.869 61.3342" stroke="black" stroke-width="0.399527" stroke-linejoin="round" stroke-dasharray="2 2"/>
<ellipse cx="2.46091" cy="2.39716" rx="2.46091" ry="2.39716" transform="matrix(0.999998 0.00181266 -0.00191035 0.999998 99.316 84.1179)" fill="#C6C6C6"/>
<ellipse cx="2.46091" cy="2.39716" rx="2.46091" ry="2.39716" transform="matrix(0.999998 0.00181266 -0.00191035 0.999998 99.2759 105.293)" fill="#C6C6C6"/>
<ellipse cx="2.46091" cy="2.39716" rx="2.46091" ry="2.39716" transform="matrix(0.999998 0.00181266 -0.00191035 0.999998 107.519 84.1328)" fill="#C6C6C6"/>
<ellipse cx="2.46091" cy="2.39716" rx="2.46091" ry="2.39716" transform="matrix(0.999998 0.00181266 -0.00191035 0.999998 107.479 105.308)" fill="#C6C6C6"/>
<ellipse cx="2.46091" cy="2.39716" rx="2.46091" ry="2.39716" transform="matrix(0.999998 0.00181266 -0.00191035 0.999998 115.722 84.1477)" fill="#C6C6C6"/>
<ellipse cx="2.46091" cy="2.39716" rx="2.46091" ry="2.39716" transform="matrix(0.999998 0.00181266 -0.00191035 0.999998 115.682 105.323)" fill="#C6C6C6"/>
<ellipse cx="2.46091" cy="2.39716" rx="2.46091" ry="2.39716" transform="matrix(0.999998 0.00181266 -0.00191035 0.999998 123.925 84.1626)" fill="#C6C6C6"/>
<ellipse cx="2.46091" cy="2.39716" rx="2.46091" ry="2.39716" transform="matrix(0.999998 0.00181266 -0.00191035 0.999998 123.885 105.337)" fill="#C6C6C6"/>
<rect x="0.199382" y="0.200125" width="2.88169" height="13.5839" transform="matrix(0.999998 0.00181266 -0.00191035 0.999998 123.848 124.514)" stroke="black" stroke-width="0.399527"/>
<rect x="0.200145" y="-0.199401" width="32.0025" height="0.799055" transform="matrix(0.999998 0.00181266 0.00191035 -0.999998 123.848 124.515)" stroke="black" stroke-width="0.399527"/>
<rect x="0.200145" y="-0.199401" width="32.0025" height="0.799055" transform="matrix(0.999998 0.00181266 0.00191035 -0.999998 123.82 138.898)" stroke="black" stroke-width="0.399527"/>
<rect x="0.199382" y="0.200125" width="3.29184" height="13.5839" transform="matrix(0.999998 0.00181266 -0.00191035 0.999998 126.719 124.519)" stroke="black" stroke-width="0.399527"/>
<rect x="0.199382" y="0.200125" width="2.88169" height="13.5839" transform="matrix(0.999998 0.00181266 -0.00191035 0.999998 130.001 124.526)" stroke="black" stroke-width="0.399527"/>
<rect x="0.199382" y="0.200125" width="2.88169" height="13.5839" transform="matrix(0.999998 0.00181266 -0.00191035 0.999998 132.872 124.531)" stroke="black" stroke-width="0.399527"/>
<rect x="0.199382" y="0.200125" width="2.88169" height="13.5839" transform="matrix(0.999998 0.00181266 -0.00191035 0.999998 135.743 124.536)" stroke="black" stroke-width="0.399527"/>
<rect x="0.199382" y="0.200125" width="2.88169" height="13.5839" transform="matrix(0.999998 0.00181266 -0.00191035 0.999998 138.614 124.541)" stroke="black" stroke-width="0.399527"/>
<rect x="0.199382" y="0.200125" width="2.88169" height="13.5839" transform="matrix(0.999998 0.00181266 -0.00191035 0.999998 141.485 124.546)" stroke="black" stroke-width="0.399527"/>
<rect x="0.199382" y="0.200125" width="2.88169" height="13.5839" transform="matrix(0.999998 0.00181266 -0.00191035 0.999998 144.356 124.551)" stroke="black" stroke-width="0.399527"/>
<rect x="0.199382" y="0.200125" width="2.88169" height="13.5839" transform="matrix(0.999998 0.00181266 -0.00191035 0.999998 147.227 124.557)" stroke="black" stroke-width="0.399527"/>
<rect x="0.199382" y="0.200125" width="2.88169" height="13.5839" transform="matrix(0.999998 0.00181266 -0.00191035 0.999998 150.098 124.562)" stroke="black" stroke-width="0.399527"/>
<rect x="0.199382" y="0.200125" width="2.88169" height="13.5839" transform="matrix(0.999998 0.00181266 -0.00191035 0.999998 152.969 124.567)" stroke="black" stroke-width="0.399527"/>
<path d="M124.04 131.507L156.031 131.565" stroke="black" stroke-width="0.399527"/>
<path d="M127.724 135.109L124.039 131.507L127.737 127.918" stroke="black" stroke-width="0.399527" stroke-linejoin="round"/>
<rect x="-0.200145" y="0.199401" width="2.88169" height="13.5839" transform="matrix(-0.999998 -0.00181266 -0.00191035 0.999998 312.938 124.858)" stroke="black" stroke-width="0.399527"/>
<rect x="-0.199382" y="-0.200125" width="32.0025" height="0.799055" transform="matrix(-0.999998 -0.00181266 0.00191035 -0.999998 312.939 124.857)" stroke="black" stroke-width="0.399527"/>
<rect x="-0.199382" y="-0.200125" width="32.0025" height="0.799055" transform="matrix(-0.999998 -0.00181266 0.00191035 -0.999998 312.911 139.24)" stroke="black" stroke-width="0.399527"/>
<rect x="-0.200145" y="0.199401" width="3.29184" height="13.5839" transform="matrix(-0.999998 -0.00181266 -0.00191035 0.999998 310.067 124.853)" stroke="black" stroke-width="0.399527"/>
<rect x="-0.200145" y="0.199401" width="2.88169" height="13.5839" transform="matrix(-0.999998 -0.00181266 -0.00191035 0.999998 306.786 124.847)" stroke="black" stroke-width="0.399527"/>
<rect x="-0.200145" y="0.199401" width="2.88169" height="13.5839" transform="matrix(-0.999998 -0.00181266 -0.00191035 0.999998 303.915 124.841)" stroke="black" stroke-width="0.399527"/>
<rect x="-0.200145" y="0.199401" width="2.88169" height="13.5839" transform="matrix(-0.999998 -0.00181266 -0.00191035 0.999998 301.043 124.836)" stroke="black" stroke-width="0.399527"/>
<rect x="-0.200145" y="0.199401" width="2.88169" height="13.5839" transform="matrix(-0.999998 -0.00181266 -0.00191035 0.999998 298.172 124.831)" stroke="black" stroke-width="0.399527"/>
<rect x="-0.200145" y="0.199401" width="2.88169" height="13.5839" transform="matrix(-0.999998 -0.00181266 -0.00191035 0.999998 295.301 124.826)" stroke="black" stroke-width="0.399527"/>
<rect x="-0.200145" y="0.199401" width="2.88169" height="13.5839" transform="matrix(-0.999998 -0.00181266 -0.00191035 0.999998 292.43 124.82)" stroke="black" stroke-width="0.399527"/>
<rect x="-0.200145" y="0.199401" width="2.88169" height="13.5839" transform="matrix(-0.999998 -0.00181266 -0.00191035 0.999998 289.559 124.815)" stroke="black" stroke-width="0.399527"/>
<rect x="-0.200145" y="0.199401" width="2.88169" height="13.5839" transform="matrix(-0.999998 -0.00181266 -0.00191035 0.999998 286.688 124.81)" stroke="black" stroke-width="0.399527"/>
<rect x="-0.200145" y="0.199401" width="2.88169" height="13.5839" transform="matrix(-0.999998 -0.00181266 -0.00191035 0.999998 283.817 124.805)" stroke="black" stroke-width="0.399527"/>
<path d="M313.119 131.849L281.127 131.791" stroke="black" stroke-width="0.399527"/>
<path d="M309.421 135.438L313.119 131.849L309.435 128.247" stroke="black" stroke-width="0.399527" stroke-linejoin="round"/>
<rect x="-0.199382" y="-0.200125" width="2.79669" height="13.9558" transform="matrix(0.00191035 -0.999998 -0.999998 -0.00181266 207.497 141.506)" stroke="black" stroke-width="0.399527"/>
<rect x="0.200145" y="-0.199401" width="11.5863" height="0.830929" transform="matrix(0.00191035 -0.999998 0.999998 0.00181266 207.885 141.906)" stroke="black" stroke-width="0.399527"/>
<rect x="0.200145" y="-0.199401" width="11.5863" height="0.830929" transform="matrix(0.00191035 -0.999998 0.999998 0.00181266 193.12 141.879)" stroke="black" stroke-width="0.399527"/>
<rect x="-0.199382" y="-0.200125" width="3.19622" height="13.9558" transform="matrix(0.00191035 -0.999998 -0.999998 -0.00181266 207.503 138.709)" stroke="black" stroke-width="0.399527"/>
<rect x="-0.199382" y="-0.200125" width="2.79669" height="13.9558" transform="matrix(0.00191035 -0.999998 -0.999998 -0.00181266 207.508 135.513)" stroke="black" stroke-width="0.399527"/>
<rect x="-0.199382" y="-0.200125" width="2.79669" height="13.9558" transform="matrix(0.00191035 -0.999998 -0.999998 -0.00181266 207.514 132.716)" stroke="black" stroke-width="0.399527"/>
<path d="M200.924 141.893L200.946 130.307" stroke="black" stroke-width="0.399527"/>
<path d="M197.24 138.091L200.924 141.693L204.623 138.104" stroke="black" stroke-width="0.399527" stroke-linejoin="round"/>
<mask id="path-62-inside-1_347_2664" fill="white">
<path d="M304.526 14.1731C304.523 15.9045 304.87 17.6196 305.547 19.2205C306.224 20.8213 307.218 22.2765 308.473 23.5031C309.727 24.7297 311.218 25.7035 312.859 26.3691C314.499 27.0346 316.259 27.3788 318.036 27.3821L318.061 14.1977L304.526 14.1731Z"/>
</mask>
<path d="M304.526 14.1731C304.523 15.9045 304.87 17.6196 305.547 19.2205C306.224 20.8213 307.218 22.2765 308.473 23.5031C309.727 24.7297 311.218 25.7035 312.859 26.3691C314.499 27.0346 316.259 27.3788 318.036 27.3821L318.061 14.1977L304.526 14.1731Z" stroke="black" stroke-width="0.925221" mask="url(#path-62-inside-1_347_2664)"/>
<mask id="path-63-inside-2_347_2664" fill="white">
<path d="M327.905 14.2154C327.902 15.9468 328.249 17.6619 328.926 19.2627C329.603 20.8635 330.597 22.3188 331.852 23.5453C333.106 24.7719 334.596 25.7457 336.237 26.4113C337.878 27.0769 339.637 27.4211 341.415 27.4243L341.44 14.2399L327.905 14.2154Z"/>
</mask>
<path d="M327.905 14.2154C327.902 15.9468 328.249 17.6619 328.926 19.2627C329.603 20.8635 330.597 22.3188 331.852 23.5453C333.106 24.7719 334.596 25.7457 336.237 26.4113C337.878 27.0769 339.637 27.4211 341.415 27.4243L341.44 14.2399L327.905 14.2154Z" stroke="black" stroke-width="0.925221" mask="url(#path-63-inside-2_347_2664)"/>
<mask id="path-64-inside-3_347_2664" fill="white">
<path d="M109.284 19.013C109.281 20.7444 109.627 22.4595 110.305 24.0603C110.982 25.6611 111.976 27.1164 113.23 28.3429C114.485 29.5695 115.975 30.5434 117.616 31.2089C119.257 31.8745 121.016 32.2187 122.794 32.2219L122.819 19.0375L109.284 19.013Z"/>
</mask>
<path d="M109.284 19.013C109.281 20.7444 109.627 22.4595 110.305 24.0603C110.982 25.6611 111.976 27.1164 113.23 28.3429C114.485 29.5695 115.975 30.5434 117.616 31.2089C119.257 31.8745 121.016 32.2187 122.794 32.2219L122.819 19.0375L109.284 19.013Z" stroke="black" stroke-width="0.925221" mask="url(#path-64-inside-3_347_2664)"/>
<mask id="path-65-inside-4_347_2664" fill="white">
<path d="M56.2898 63.2645C56.2865 64.9959 56.6333 66.7109 57.3105 68.3118C57.9876 69.9126 58.9818 71.3678 60.2363 72.5944C61.4908 73.821 62.9811 74.7948 64.6219 75.4604C66.2628 76.1259 68.0222 76.4701 69.7996 76.4734L69.8248 63.289L56.2898 63.2645Z"/>
</mask>
<path d="M56.2898 63.2645C56.2865 64.9959 56.6333 66.7109 57.3105 68.3118C57.9876 69.9126 58.9818 71.3678 60.2363 72.5944C61.4908 73.821 62.9811 74.7948 64.6219 75.4604C66.2628 76.1259 68.0222 76.4701 69.7996 76.4734L69.8248 63.289L56.2898 63.2645Z" stroke="black" stroke-width="0.925221" mask="url(#path-65-inside-4_347_2664)"/>
<mask id="path-66-inside-5_347_2664" fill="white">
<path d="M21.3623 97.1611C23.1397 97.1643 24.9004 96.8265 26.5438 96.1669C28.1873 95.5073 29.6812 94.5388 30.9404 93.3168C32.1996 92.0948 33.1993 90.6432 33.8826 89.0448C34.5658 87.4465 34.9192 85.7327 34.9225 84.0013L21.3875 83.9767L21.3623 97.1611Z"/>
</mask>
<path d="M21.3623 97.1611C23.1397 97.1643 24.9004 96.8265 26.5438 96.1669C28.1873 95.5073 29.6812 94.5388 30.9404 93.3168C32.1996 92.0948 33.1993 90.6432 33.8826 89.0448C34.5658 87.4465 34.9192 85.7327 34.9225 84.0013L21.3875 83.9767L21.3623 97.1611Z" stroke="black" stroke-width="0.925221" mask="url(#path-66-inside-5_347_2664)"/>
<path d="M88.2978 99.7599L88.0471 99.2057L90.6988 96.4562L91.4611 96.4575L88.2978 99.7599ZM87.8702 101.485L87.8798 96.4511L88.4623 96.4521L88.4527 101.486L87.8702 101.485ZM90.8043 101.49L88.7452 98.9265L89.1415 98.5389L91.545 101.492L90.8043 101.49ZM92.13 101.493L92.1369 97.8971L92.7122 97.8981L92.7054 101.494L92.13 101.493ZM92.4334 97.0634C92.3375 97.0632 92.2536 97.0271 92.1819 96.9551C92.1101 96.883 92.0743 96.7991 92.0745 96.7032C92.0747 96.6025 92.1108 96.5187 92.1828 96.4517C92.2549 96.3799 92.3388 96.3441 92.4347 96.3442C92.5354 96.3444 92.6192 96.3805 92.6862 96.4526C92.758 96.5198 92.7938 96.6038 92.7936 96.7045C92.7934 96.8004 92.7573 96.8842 92.6853 96.956C92.618 97.0278 92.534 97.0636 92.4334 97.0634ZM95.1174 101.585C94.7674 101.584 94.4967 101.492 94.3053 101.31C94.1138 101.127 94.0184 100.871 94.0191 100.54L94.0263 96.7786L94.6016 96.7797L94.5945 100.483C94.5941 100.665 94.6418 100.807 94.7375 100.908C94.838 101.004 94.977 101.052 95.1543 101.052C95.2119 101.053 95.267 101.045 95.3198 101.031C95.3774 101.012 95.4518 100.969 95.543 100.902L95.765 101.37C95.6402 101.451 95.5274 101.506 95.4267 101.535C95.326 101.568 95.2228 101.585 95.1174 101.585ZM93.3975 98.41L93.3985 97.8994L95.6781 97.9035L95.6772 98.4141L93.3975 98.41ZM98.0659 101.59C97.7111 101.589 97.3972 101.51 97.1242 101.351C96.8513 101.187 96.6384 100.964 96.4855 100.681C96.3326 100.398 96.2565 100.072 96.2572 99.7024C96.2579 99.3333 96.3329 99.0074 96.482 98.7248C96.636 98.4422 96.8498 98.222 97.1233 98.0643C97.3969 97.9018 97.7087 97.8209 98.0587 97.8215C98.4039 97.8221 98.713 97.9018 98.9859 98.0605C99.2589 98.2192 99.467 98.4425 99.6103 98.7304L99.0849 98.9668C98.9894 98.7749 98.8506 98.626 98.6686 98.5202C98.4867 98.4096 98.2782 98.3541 98.0433 98.3536C97.8084 98.3532 97.5997 98.4104 97.4173 98.5251C97.2397 98.6399 97.098 98.8002 96.9921 99.0062C96.891 99.2073 96.8402 99.4398 96.8397 99.7035C96.8392 99.9672 96.8891 100.202 96.9894 100.409C97.0945 100.61 97.238 100.769 97.42 100.884C97.6067 100.999 97.8176 101.057 98.0525 101.058C98.2874 101.058 98.4961 100.999 98.6785 100.879C98.8657 100.759 99.0075 100.592 99.1038 100.376L99.6283 100.615C99.4839 100.921 99.2749 101.161 99.0013 101.333C98.7277 101.505 98.4159 101.59 98.0659 101.59ZM100.353 101.508L100.363 96.4737L100.938 96.4747L100.928 101.509L100.353 101.508ZM102.884 101.512L102.888 99.6713L103.463 99.6723L103.46 101.513L102.884 101.512ZM102.888 99.6713C102.889 99.3165 102.846 99.0455 102.76 98.8584C102.679 98.6713 102.566 98.544 102.423 98.4767C102.279 98.4045 102.116 98.3682 101.934 98.3679C101.618 98.3673 101.37 98.4795 101.193 98.7046C101.02 98.9248 100.933 99.2386 100.932 99.6462L100.651 99.6457C100.652 99.2669 100.708 98.941 100.819 98.6679C100.934 98.3948 101.098 98.1866 101.309 98.0431C101.52 97.8997 101.774 97.8282 102.072 97.8288C102.35 97.8293 102.594 97.8873 102.805 98.0027C103.016 98.1134 103.178 98.291 103.293 98.5358C103.412 98.7805 103.469 99.1018 103.464 99.4997L103.463 99.6723L102.888 99.6713ZM105.938 101.604C105.588 101.604 105.279 101.524 105.011 101.365C104.742 101.202 104.532 100.978 104.379 100.695C104.231 100.412 104.157 100.086 104.158 99.7167C104.159 99.3476 104.234 99.0217 104.383 98.7391C104.537 98.4565 104.746 98.2364 105.01 98.0786C105.279 97.9161 105.586 97.8351 105.931 97.8358C106.266 97.8364 106.556 97.9208 106.8 98.0891C107.045 98.2525 107.234 98.483 107.367 98.7805C107.501 99.078 107.567 99.4281 107.567 99.8308L104.596 99.8254L104.741 99.7034C104.74 99.9911 104.79 100.238 104.89 100.444C104.995 100.651 105.141 100.809 105.328 100.92C105.515 101.026 105.728 101.079 105.968 101.079C106.222 101.08 106.435 101.02 106.608 100.901C106.786 100.781 106.923 100.623 107.019 100.427L107.515 100.679C107.423 100.866 107.301 101.029 107.147 101.168C106.998 101.306 106.82 101.414 106.614 101.49C106.413 101.567 106.187 101.605 105.938 101.604ZM104.777 99.459L104.626 99.3436L107.107 99.3481L106.956 99.4701C106.956 99.24 106.911 99.0409 106.82 98.873C106.73 98.705 106.608 98.5753 106.454 98.484C106.301 98.3926 106.124 98.3467 105.923 98.3464C105.726 98.346 105.539 98.3912 105.361 98.482C105.189 98.5728 105.047 98.7019 104.936 98.8695C104.831 99.0324 104.777 99.2288 104.777 99.459ZM108.289 101.522L108.296 97.9264L108.835 97.9273L108.87 98.589L108.864 101.523L108.289 101.522ZM110.813 101.527L110.817 99.6857L111.392 99.6867L111.388 101.528L110.813 101.527ZM110.817 99.6857C110.817 99.3309 110.777 99.0599 110.696 98.8728C110.615 98.6857 110.502 98.5584 110.359 98.491C110.215 98.4189 110.052 98.3826 109.87 98.3823C109.553 98.3817 109.306 98.4939 109.129 98.7189C108.956 98.9392 108.869 99.253 108.868 99.6605L108.587 99.66C108.588 99.2813 108.644 98.9554 108.755 98.6823C108.865 98.4092 109.026 98.201 109.238 98.0575C109.449 97.9141 109.703 97.8426 110 97.8432C110.283 97.8437 110.528 97.9016 110.734 98.0171C110.944 98.1277 111.107 98.3054 111.222 98.5501C111.341 98.7949 111.398 99.1162 111.392 99.5141L111.392 99.6867L110.817 99.6857Z" fill="black"/>
<path d="M291.262 84.5384C290.984 84.5379 290.737 84.5087 290.521 84.4508C290.306 84.3881 290.119 84.3038 289.961 84.1981C289.803 84.0875 289.674 83.9674 289.573 83.8378C289.473 83.7034 289.399 83.5618 289.351 83.4131L289.934 83.2128C290.006 83.4239 290.149 83.6087 290.365 83.7673C290.585 83.9211 290.853 83.9983 291.17 83.9989C291.558 83.9996 291.862 83.9234 292.083 83.7704C292.304 83.6174 292.415 83.4138 292.415 83.1597C292.416 82.9248 292.318 82.7353 292.122 82.5911C291.925 82.4421 291.667 82.3266 291.345 82.2445L290.792 82.0996C290.567 82.0417 290.358 81.9574 290.167 81.8468C289.98 81.7314 289.829 81.5873 289.715 81.4145C289.605 81.2369 289.55 81.0259 289.55 80.7813C289.551 80.3259 289.698 79.9714 289.991 79.7178C290.289 79.4595 290.716 79.3308 291.272 79.3318C291.603 79.3324 291.888 79.388 292.127 79.4987C292.367 79.6047 292.561 79.7416 292.709 79.9097C292.862 80.073 292.97 80.2506 293.032 80.4425L292.456 80.6428C292.365 80.4029 292.212 80.2156 291.997 80.081C291.781 79.9416 291.52 79.8716 291.213 79.871C290.892 79.8705 290.636 79.9491 290.443 80.107C290.256 80.26 290.162 80.4708 290.162 80.7393C290.161 80.9694 290.235 81.147 290.384 81.2719C290.532 81.392 290.726 81.4811 290.966 81.539L291.519 81.6767C292.008 81.7926 292.382 81.9851 292.64 82.254C292.903 82.5182 293.034 82.8037 293.034 83.1105C293.033 83.3742 292.966 83.6162 292.831 83.8365C292.696 84.052 292.497 84.2242 292.233 84.3532C291.974 84.4774 291.65 84.5391 291.262 84.5384ZM295.255 84.5457C294.905 84.545 294.634 84.4534 294.443 84.2709C294.252 84.0884 294.156 83.8317 294.157 83.5009L294.164 79.7398L294.739 79.7408L294.732 83.4444C294.732 83.6266 294.78 83.7681 294.875 83.869C294.976 83.965 295.115 84.0132 295.292 84.0135C295.35 84.0137 295.405 84.0066 295.458 83.9923C295.515 83.9732 295.59 83.9302 295.681 83.8632L295.903 84.3311C295.778 84.4124 295.665 84.4673 295.564 84.4959C295.464 84.5293 295.361 84.5458 295.255 84.5457ZM293.535 81.3711L293.536 80.8605L295.816 80.8646L295.815 81.3752L293.535 81.3711ZM298.815 84.4658L298.787 83.8761L298.79 82.5672C298.79 82.2843 298.76 82.0518 298.698 81.8695C298.636 81.6824 298.538 81.5408 298.404 81.4446C298.27 81.3485 298.095 81.3002 297.879 81.2999C297.682 81.2995 297.512 81.3399 297.368 81.4212C297.229 81.4976 297.114 81.6221 297.022 81.7945L296.505 81.5922C296.596 81.4246 296.707 81.2809 296.837 81.1613C296.966 81.0369 297.117 80.9437 297.29 80.8817C297.463 80.8149 297.659 80.7817 297.88 80.7821C298.216 80.7827 298.491 80.8503 298.707 80.9849C298.927 81.1148 299.092 81.3092 299.202 81.5683C299.312 81.8226 299.364 82.1392 299.358 82.5179L299.347 84.4668L298.815 84.4658ZM297.736 84.5502C297.314 84.5494 296.984 84.4529 296.744 84.2607C296.51 84.0637 296.393 83.7926 296.393 83.4474C296.394 83.083 296.515 82.8052 296.755 82.6139C297 82.4177 297.34 82.3201 297.776 82.3209L298.805 82.3227L298.804 82.8046L297.905 82.8029C297.569 82.8023 297.33 82.857 297.185 82.967C297.046 83.077 296.976 83.2351 296.976 83.4413C296.976 83.6283 297.045 83.777 297.184 83.8875C297.323 83.9933 297.517 84.0463 297.766 84.0468C297.972 84.0472 298.152 84.0044 298.306 83.9183C298.459 83.8275 298.577 83.7007 298.659 83.5378C298.745 83.3702 298.789 83.1737 298.789 82.9484L299.034 82.9488C299.033 83.4378 298.922 83.8284 298.701 84.1204C298.48 84.4077 298.158 84.5509 297.736 84.5502ZM301.701 85.9956C301.471 85.9952 301.26 85.9709 301.069 85.9226C300.882 85.8791 300.721 85.8285 300.587 85.7707C300.458 85.7177 300.364 85.672 300.307 85.6335L300.524 85.1665C300.586 85.2002 300.675 85.2411 300.789 85.2892C300.904 85.3422 301.039 85.3856 301.192 85.4194C301.35 85.458 301.518 85.4775 301.695 85.4778C301.925 85.4783 302.132 85.4307 302.314 85.3351C302.501 85.2444 302.645 85.0984 302.746 84.8972C302.852 84.7009 302.905 84.4469 302.906 84.1352L302.912 80.8775L303.488 80.8785L303.481 84.1291C303.481 84.5414 303.403 84.8864 303.249 85.1642C303.095 85.442 302.884 85.6502 302.615 85.7887C302.346 85.9273 302.042 85.9963 301.701 85.9956ZM301.683 84.4422C301.362 84.4417 301.079 84.3644 300.835 84.2106C300.59 84.0567 300.399 83.843 300.261 83.5695C300.127 83.2912 300.06 82.9746 300.061 82.6199C300.062 82.2555 300.129 81.9368 300.264 81.6638C300.404 81.3859 300.596 81.1705 300.841 81.0176C301.086 80.8646 301.369 80.7884 301.69 80.789C301.992 80.7895 302.255 80.8667 302.48 81.0205C302.705 81.1744 302.88 81.3904 303.004 81.6687C303.133 81.9422 303.197 82.2612 303.197 82.6255C303.196 82.9851 303.131 83.3014 303.001 83.5745C302.875 83.8475 302.7 84.0605 302.474 84.2135C302.249 84.3666 301.985 84.4428 301.683 84.4422ZM301.82 83.9463C302.031 83.9467 302.218 83.8895 302.382 83.7747C302.545 83.6599 302.672 83.5043 302.764 83.3079C302.855 83.1067 302.901 82.8743 302.902 82.6106C302.902 82.3565 302.855 82.1311 302.759 81.9344C302.668 81.7328 302.542 81.5768 302.379 81.4662C302.221 81.3509 302.034 81.293 301.818 81.2926C301.593 81.2922 301.392 81.3494 301.214 81.4641C301.041 81.5741 300.904 81.7296 300.803 81.9308C300.707 82.1272 300.658 82.3525 300.658 82.6066C300.657 82.8702 300.707 83.1029 300.808 83.3044C300.908 83.5011 301.044 83.6572 301.217 83.7726C301.394 83.888 301.595 83.9459 301.82 83.9463ZM306.062 84.5652C305.712 84.5646 305.403 84.4849 305.134 84.3262C304.866 84.1627 304.656 83.9394 304.503 83.6563C304.355 83.3732 304.281 83.047 304.282 82.6778C304.282 82.3087 304.357 81.9828 304.507 81.7002C304.66 81.4176 304.869 81.1975 305.133 81.0397C305.402 80.8772 305.709 80.7963 306.054 80.7969C306.39 80.7975 306.68 80.8819 306.924 81.0502C307.168 81.2136 307.357 81.4441 307.491 81.7416C307.625 82.0391 307.691 82.3892 307.69 82.7919L304.72 82.7865L304.864 82.6645C304.864 82.9522 304.914 83.1992 305.014 83.4055C305.119 83.6119 305.265 83.7703 305.452 83.8809C305.638 83.9868 305.852 84.0399 306.091 84.0403C306.345 84.0408 306.559 83.9812 306.732 83.8617C306.909 83.7422 307.046 83.5842 307.143 83.3878L307.638 83.6404C307.547 83.8272 307.424 83.99 307.271 84.1288C307.122 84.2675 306.944 84.3751 306.738 84.4514C306.536 84.5277 306.311 84.5657 306.062 84.5652ZM304.901 82.4201L304.75 82.3047L307.231 82.3092L307.08 82.4312C307.08 82.2011 307.035 82.002 306.944 81.8341C306.853 81.6661 306.731 81.5364 306.578 81.4451C306.425 81.3537 306.248 81.3078 306.046 81.3075C305.85 81.3071 305.663 81.3523 305.485 81.4431C305.312 81.5339 305.171 81.6631 305.06 81.8307C304.954 81.9935 304.901 82.1899 304.901 82.4201Z" fill="black"/>
<path d="M88.3859 37.7811C88.1078 37.7806 87.861 37.7514 87.6454 37.6935C87.4297 37.6307 87.2429 37.5465 87.0849 37.4407C86.9269 37.3302 86.7977 37.2101 86.6972 37.0805C86.5968 36.946 86.5228 36.8045 86.4751 36.6558L87.058 36.4554C87.1295 36.6665 87.273 36.8514 87.4884 37.01C87.7087 37.1638 87.977 37.241 88.2935 37.2416C88.6818 37.2423 88.9864 37.1661 89.2072 37.0131C89.428 36.8601 89.5387 36.6565 89.5392 36.4024C89.5396 36.1675 89.4417 35.9779 89.2454 35.8338C89.0491 35.6848 88.7905 35.5692 88.4694 35.4872L87.9159 35.3423C87.6907 35.2844 87.4823 35.2001 87.2908 35.0895C87.104 34.9741 86.9532 34.83 86.8385 34.6572C86.7286 34.4796 86.6739 34.2685 86.6743 34.024C86.6752 33.5686 86.8221 33.2141 87.115 32.9605C87.4128 32.7021 87.8397 32.5735 88.3959 32.5745C88.7267 32.5751 89.0118 32.6307 89.2513 32.7414C89.4908 32.8473 89.6848 32.9843 89.8331 33.1524C89.9862 33.3157 90.0937 33.4933 90.1557 33.6851L89.58 33.8855C89.4893 33.6456 89.3363 33.4583 89.1208 33.3237C88.9053 33.1843 88.6441 33.1143 88.3373 33.1137C88.0161 33.1131 87.7594 33.1918 87.5674 33.3496C87.3801 33.5027 87.2862 33.7135 87.2857 33.982C87.2852 34.2121 87.3592 34.3896 87.5076 34.5146C87.656 34.6347 87.85 34.7237 88.0896 34.7817L88.6431 34.9193C89.1319 35.0353 89.5055 35.2277 89.7639 35.4967C90.027 35.7609 90.1583 36.0464 90.1577 36.3532C90.1572 36.6169 90.0897 36.8589 89.955 37.0792C89.8203 37.2947 89.6211 37.4669 89.3571 37.5959C89.098 37.7201 88.7743 37.7818 88.3859 37.7811ZM92.379 37.7883C92.0291 37.7877 91.7583 37.6961 91.5669 37.5136C91.3755 37.331 91.2801 37.0744 91.2807 36.7436L91.2879 32.9824L91.8632 32.9835L91.8562 36.6871C91.8558 36.8693 91.9035 37.0108 91.9992 37.1116C92.0997 37.2077 92.2386 37.2559 92.416 37.2562C92.4735 37.2563 92.5287 37.2492 92.5815 37.235C92.639 37.2159 92.7134 37.1729 92.8046 37.1059L93.0267 37.5738C92.9019 37.655 92.7891 37.71 92.6884 37.7385C92.5876 37.7719 92.4845 37.7885 92.379 37.7883ZM90.6591 34.6138L90.6601 34.1032L92.9398 34.1073L92.9388 34.6179L90.6591 34.6138ZM95.3132 37.7936C94.9632 37.793 94.6517 37.7133 94.3787 37.5546C94.1105 37.3911 93.9 37.1678 93.7471 36.8847C93.5943 36.6015 93.5182 36.2754 93.5189 35.9062C93.5196 35.5371 93.5945 35.2112 93.7437 34.9286C93.8977 34.646 94.109 34.4258 94.3778 34.2681C94.6514 34.1056 94.9608 34.0247 95.306 34.0253C95.6608 34.0259 95.9722 34.108 96.2404 34.2715C96.5134 34.4302 96.7239 34.6511 96.872 34.9343C97.0249 35.2174 97.1009 35.5436 97.1002 35.9127C97.0995 36.2819 97.0222 36.6078 96.8682 36.8903C96.7191 37.1729 96.5101 37.3955 96.2413 37.558C95.9725 37.7157 95.6631 37.7943 95.3132 37.7936ZM95.3142 37.2615C95.5539 37.2619 95.7626 37.2048 95.9402 37.09C96.1178 36.9753 96.2571 36.8173 96.3582 36.6161C96.464 36.415 96.5172 36.1801 96.5177 35.9117C96.5182 35.6432 96.466 35.4082 96.3609 35.2066C96.2606 35.0051 96.1194 34.8466 95.9375 34.7312C95.7555 34.6158 95.5447 34.5579 95.305 34.5575C95.07 34.557 94.8614 34.6142 94.679 34.7289C94.5014 34.8437 94.3596 35.0016 94.2538 35.2028C94.1527 35.404 94.1019 35.6388 94.1014 35.9073C94.1009 36.171 94.1508 36.406 94.2511 36.6123C94.3562 36.8139 94.4997 36.9723 94.6817 37.0877C94.8684 37.2031 95.0793 37.2611 95.3142 37.2615ZM98.2158 35.7637C98.2165 35.3754 98.2914 35.0615 98.4405 34.822C98.5896 34.5778 98.7793 34.3984 99.0097 34.2837C99.2448 34.1643 99.4918 34.1048 99.7507 34.1053L99.7497 34.6446C99.5387 34.6442 99.3349 34.6798 99.1382 34.7514C98.9463 34.8182 98.7879 34.9305 98.6629 35.0885C98.538 35.2465 98.4752 35.4621 98.4747 35.7354L98.2158 35.7637ZM97.8956 37.712L97.9025 34.1163L98.4778 34.1173L98.4709 37.7131L97.8956 37.712ZM102.541 37.7205L102.513 37.1307L102.515 35.8218C102.516 35.539 102.485 35.3064 102.423 35.1241C102.361 34.937 102.263 34.7954 102.129 34.6993C101.995 34.6031 101.82 34.5549 101.604 34.5545C101.408 34.5541 101.238 34.5946 101.094 34.6758C100.954 34.7523 100.839 34.8767 100.748 35.0492L100.23 34.8469C100.322 34.6792 100.432 34.5356 100.562 34.416C100.692 34.2915 100.843 34.1983 101.016 34.1363C101.188 34.0695 101.385 34.0363 101.605 34.0367C101.941 34.0373 102.217 34.1049 102.432 34.2396C102.652 34.3694 102.817 34.5639 102.927 34.823C103.037 35.0773 103.089 35.3938 103.084 35.7725L103.073 37.7214L102.541 37.7205ZM101.462 37.8048C101.04 37.804 100.709 37.7075 100.47 37.5153C100.235 37.3183 100.118 37.0473 100.119 36.7021C100.12 36.3377 100.24 36.0598 100.48 35.8685C100.725 35.6724 101.066 35.5747 101.502 35.5755L102.53 35.5774L102.529 36.0592L101.63 36.0576C101.295 36.057 101.055 36.1117 100.911 36.2217C100.772 36.3317 100.702 36.4898 100.701 36.6959C100.701 36.8829 100.77 37.0317 100.909 37.1422C101.048 37.2479 101.242 37.301 101.491 37.3014C101.698 37.3018 101.877 37.259 102.031 37.173C102.185 37.0822 102.302 36.9553 102.384 36.7925C102.471 36.6248 102.514 36.4283 102.515 36.203L102.759 36.2034C102.758 36.6925 102.647 37.083 102.426 37.3751C102.205 37.6623 101.884 37.8056 101.462 37.8048ZM105.427 39.2503C105.197 39.2499 104.986 39.2255 104.794 39.1772C104.607 39.1337 104.447 39.0831 104.313 39.0253C104.183 38.9724 104.09 38.9266 104.032 38.8882L104.249 38.4211C104.311 38.4548 104.4 38.4957 104.515 38.5439C104.63 38.5968 104.764 38.6402 104.917 38.674C105.076 38.7127 105.243 38.7322 105.421 38.7325C105.651 38.7329 105.857 38.6853 106.039 38.5898C106.227 38.499 106.371 38.3531 106.472 38.1519C106.578 37.9555 106.631 37.7015 106.631 37.3899L106.638 34.1321L107.213 34.1332L107.207 37.3837C107.206 37.796 107.129 38.1411 106.975 38.4189C106.821 38.6967 106.609 38.9048 106.341 39.0434C106.072 39.1819 105.767 39.2509 105.427 39.2503ZM105.408 37.6969C105.087 37.6963 104.804 37.6191 104.56 37.4652C104.316 37.3114 104.125 37.0977 103.986 36.8241C103.852 36.5458 103.786 36.2293 103.787 35.8745C103.787 35.5101 103.855 35.1914 103.99 34.9184C104.129 34.6406 104.321 34.4252 104.566 34.2722C104.811 34.1192 105.094 34.043 105.415 34.0436C105.717 34.0442 105.981 34.1213 106.206 34.2752C106.431 34.429 106.606 34.6451 106.73 34.9234C106.859 35.1969 106.923 35.5158 106.922 35.8802C106.921 36.2398 106.856 36.5561 106.726 36.8291C106.601 37.1021 106.425 37.3152 106.2 37.4682C105.974 37.6212 105.71 37.6974 105.408 37.6969ZM105.546 37.2009C105.757 37.2013 105.944 37.1441 106.107 37.0293C106.27 36.9146 106.398 36.759 106.489 36.5626C106.581 36.3614 106.627 36.1289 106.627 35.8653C106.628 35.6112 106.58 35.3857 106.485 35.189C106.394 34.9875 106.267 34.8314 106.104 34.7209C105.946 34.6055 105.76 34.5476 105.544 34.5473C105.318 34.5468 105.117 34.604 104.939 34.7188C104.767 34.8287 104.63 34.9843 104.529 35.1855C104.432 35.3818 104.384 35.6071 104.383 35.8612C104.383 36.1249 104.433 36.3575 104.533 36.559C104.633 36.7558 104.77 36.9119 104.942 37.0272C105.119 37.1426 105.321 37.2005 105.546 37.2009ZM109.787 37.8199C109.437 37.8192 109.128 37.7396 108.86 37.5809C108.592 37.4174 108.381 37.1941 108.228 36.9109C108.08 36.6278 108.006 36.3016 108.007 35.9325C108.008 35.5633 108.083 35.2374 108.232 34.9548C108.386 34.6723 108.595 34.4521 108.859 34.2944C109.128 34.1318 109.435 34.0509 109.78 34.0515C110.115 34.0521 110.405 34.1366 110.65 34.3048C110.894 34.4683 111.083 34.6987 111.216 34.9962C111.35 35.2937 111.417 35.6438 111.416 36.0465L108.446 36.0412L108.59 35.9192C108.589 36.2068 108.639 36.4538 108.739 36.6602C108.844 36.8665 108.99 37.025 109.177 37.1356C109.364 37.2414 109.577 37.2945 109.817 37.295C110.071 37.2954 110.284 37.2359 110.457 37.1163C110.635 36.9968 110.772 36.8388 110.868 36.6424L111.364 36.895C111.272 37.0819 111.15 37.2446 110.996 37.3834C110.847 37.5222 110.67 37.6297 110.463 37.706C110.262 37.7824 110.036 37.8203 109.787 37.8199ZM108.626 35.6747L108.475 35.5594L110.956 35.5639L110.805 35.6859C110.806 35.4557 110.76 35.2567 110.67 35.0887C110.579 34.9207 110.457 34.7911 110.304 34.6997C110.15 34.6083 109.973 34.5625 109.772 34.5621C109.575 34.5618 109.388 34.607 109.211 34.6977C109.038 34.7885 108.896 34.9177 108.785 35.0853C108.68 35.2481 108.627 35.4446 108.626 35.6747Z" fill="black"/>
<path d="M25.8975 106.966L25.906 102.486L24.3023 102.483L24.3034 101.929L28.1149 101.936L28.1138 102.49L26.5101 102.487L26.5015 106.967L25.8975 106.966ZM29.8327 107.059C29.4827 107.059 29.1713 106.979 28.8983 106.82C28.6301 106.657 28.4196 106.434 28.2667 106.15C28.1138 105.867 28.0377 105.541 28.0384 105.172C28.0392 104.803 28.1141 104.477 28.2633 104.194C28.4172 103.912 28.6286 103.692 28.8974 103.534C29.171 103.371 29.4803 103.29 29.8255 103.291C30.1803 103.292 30.4918 103.374 30.76 103.537C31.0329 103.696 31.2435 103.917 31.3915 104.2C31.5444 104.483 31.6205 104.809 31.6198 105.178C31.6191 105.548 31.5418 105.873 31.3878 106.156C31.2386 106.439 31.0297 106.661 30.7609 106.824C30.4921 106.981 30.1827 107.06 29.8327 107.059ZM29.8337 106.527C30.0735 106.528 30.2821 106.47 30.4597 106.356C30.6373 106.241 30.7767 106.083 30.8777 105.882C30.9836 105.681 31.0368 105.446 31.0373 105.177C31.0378 104.909 30.9855 104.674 30.8804 104.472C30.7801 104.271 30.639 104.112 30.457 103.997C30.2751 103.882 30.0642 103.824 29.8245 103.823C29.5896 103.823 29.3809 103.88 29.1985 103.995C29.0209 104.109 28.8792 104.267 28.7733 104.468C28.6723 104.67 28.6215 104.905 28.621 105.173C28.6205 105.437 28.6703 105.672 28.7706 105.878C28.8757 106.08 29.0193 106.238 29.2012 106.353C29.388 106.469 29.5988 106.527 29.8337 106.527ZM32.4511 106.978L32.458 103.382L33.0333 103.383L33.0265 106.979L32.4511 106.978ZM32.7545 102.548C32.6586 102.548 32.5747 102.512 32.503 102.44C32.4312 102.368 32.3954 102.284 32.3956 102.188C32.3958 102.087 32.4319 102.004 32.5039 101.937C32.576 101.865 32.6599 101.829 32.7558 101.829C32.8565 101.829 32.9403 101.866 33.0073 101.938C33.0791 102.005 33.1149 102.089 33.1147 102.189C33.1145 102.285 33.0784 102.369 33.0064 102.441C32.9391 102.513 32.8551 102.549 32.7545 102.548ZM34.0866 106.981L34.0963 101.947L34.6716 101.948L34.662 106.982L34.0866 106.981ZM37.2416 107.073C36.8916 107.072 36.5825 106.992 36.3143 106.834C36.0462 106.67 35.8356 106.447 35.6827 106.164C35.5347 105.881 35.461 105.555 35.4617 105.185C35.4624 104.816 35.5373 104.49 35.6865 104.208C35.8404 103.925 36.0494 103.705 36.3134 103.547C36.5822 103.385 36.8892 103.304 37.2344 103.304C37.57 103.305 37.8599 103.389 38.1041 103.558C38.3483 103.721 38.5372 103.952 38.6709 104.249C38.8046 104.547 38.871 104.897 38.8702 105.299L35.9002 105.294L36.0442 105.172C36.0437 105.46 36.0935 105.707 36.1938 105.913C36.2989 106.119 36.4448 106.278 36.6316 106.388C36.8184 106.494 37.0316 106.547 37.2713 106.548C37.5254 106.548 37.7389 106.489 37.9117 106.369C38.0893 106.25 38.2263 106.092 38.3225 105.895L38.8183 106.148C38.7268 106.335 38.6043 106.498 38.4506 106.636C38.3017 106.775 38.1241 106.883 37.9178 106.959C37.7163 107.035 37.4909 107.073 37.2416 107.073ZM36.0806 104.928L35.9298 104.812L38.4109 104.817L38.2596 104.939C38.2601 104.709 38.2149 104.51 38.1241 104.342C38.0334 104.174 37.9114 104.044 37.7581 103.953C37.6049 103.861 37.4276 103.815 37.2262 103.815C37.0297 103.815 36.8426 103.86 36.665 103.951C36.4923 104.041 36.3506 104.171 36.24 104.338C36.1342 104.501 36.0811 104.697 36.0806 104.928ZM40.9444 107.08C40.5945 107.079 40.3238 106.987 40.1323 106.805C39.9409 106.622 39.8455 106.366 39.8461 106.035L39.8533 102.274L40.4286 102.275L40.4216 105.978C40.4212 106.16 40.4689 106.302 40.5646 106.403C40.6651 106.499 40.804 106.547 40.9814 106.547C41.039 106.548 41.0941 106.54 41.1469 106.526C41.2044 106.507 41.2788 106.464 41.3701 106.397L41.5921 106.865C41.4673 106.946 41.3545 107.001 41.2538 107.03C41.153 107.063 41.0499 107.08 40.9444 107.08ZM39.2246 103.905L39.2255 103.394L41.5052 103.398L41.5043 103.909L39.2246 103.905ZM43.5688 107.084C43.3051 107.084 43.0751 107.045 42.8787 106.968C42.6823 106.886 42.5171 106.78 42.3831 106.651C42.2539 106.521 42.1606 106.379 42.1034 106.226L42.6072 106.018C42.6884 106.181 42.8104 106.313 42.9732 106.414C43.136 106.515 43.3157 106.566 43.5123 106.566C43.7376 106.567 43.9271 106.524 44.0807 106.438C44.2343 106.347 44.3112 106.22 44.3115 106.057C44.3118 105.909 44.2545 105.789 44.1396 105.697C44.0295 105.606 43.8643 105.531 43.6438 105.473L43.2988 105.379C42.973 105.292 42.7191 105.163 42.5373 104.99C42.3554 104.812 42.2647 104.613 42.2651 104.392C42.2658 104.052 42.3765 103.788 42.5974 103.602C42.8231 103.41 43.1565 103.315 43.5976 103.316C43.8086 103.316 44.0003 103.348 44.1727 103.41C44.3452 103.473 44.4937 103.562 44.6181 103.677C44.7425 103.788 44.8334 103.92 44.8906 104.073L44.3868 104.295C44.3248 104.132 44.2219 104.015 44.0782 103.942C43.9345 103.87 43.7596 103.834 43.5535 103.834C43.3329 103.833 43.1602 103.881 43.0354 103.977C42.9106 104.067 42.848 104.197 42.8477 104.365C42.8475 104.46 42.8977 104.552 42.9982 104.638C43.1035 104.72 43.2568 104.787 43.4581 104.84L43.8174 104.934C44.0523 104.992 44.2487 105.079 44.4067 105.194C44.5647 105.305 44.6843 105.432 44.7655 105.576C44.8467 105.72 44.8872 105.874 44.8869 106.037C44.8865 106.252 44.8286 106.439 44.7132 106.597C44.5978 106.755 44.4418 106.877 44.2451 106.963C44.0483 107.044 43.8229 107.085 43.5688 107.084Z" fill="black"/>
<path d="M234.538 173.666L234.547 169.186L232.943 169.183L232.944 168.629L236.755 168.636L236.754 169.19L235.151 169.187L235.142 173.667L234.538 173.666ZM238.459 173.759C238.109 173.759 237.8 173.679 237.532 173.52C237.264 173.357 237.053 173.133 236.9 172.85C236.752 172.567 236.678 172.241 236.679 171.872C236.68 171.503 236.755 171.177 236.904 170.894C237.058 170.612 237.267 170.392 237.531 170.234C237.8 170.071 238.107 169.99 238.452 169.991C238.787 169.992 239.077 170.076 239.321 170.244C239.566 170.408 239.755 170.638 239.888 170.936C240.022 171.233 240.088 171.583 240.088 171.986L237.118 171.981L237.262 171.859C237.261 172.146 237.311 172.393 237.411 172.6C237.516 172.806 237.662 172.964 237.849 173.075C238.036 173.181 238.249 173.234 238.489 173.234C238.743 173.235 238.956 173.175 239.129 173.056C239.307 172.936 239.444 172.778 239.54 172.582L240.036 172.834C239.944 173.021 239.822 173.184 239.668 173.323C239.519 173.462 239.341 173.569 239.135 173.645C238.934 173.722 238.708 173.76 238.459 173.759ZM237.298 171.614L237.147 171.499L239.628 171.503L239.477 171.625C239.477 171.395 239.432 171.196 239.342 171.028C239.251 170.86 239.129 170.73 238.976 170.639C238.822 170.548 238.645 170.502 238.444 170.502C238.247 170.501 238.06 170.546 237.882 170.637C237.71 170.728 237.568 170.857 237.457 171.025C237.352 171.188 237.298 171.384 237.298 171.614ZM241.13 171.729C241.131 171.341 241.206 171.027 241.355 170.787C241.504 170.543 241.694 170.364 241.924 170.249C242.159 170.129 242.406 170.07 242.665 170.07L242.664 170.61C242.453 170.609 242.249 170.645 242.053 170.717C241.861 170.783 241.702 170.896 241.577 171.054C241.452 171.212 241.39 171.427 241.389 171.701L241.13 171.729ZM240.81 173.677L240.817 170.082L241.392 170.083L241.385 173.678L240.81 173.677ZM243.56 171.733C243.561 171.345 243.636 171.031 243.785 170.792C243.934 170.547 244.124 170.368 244.354 170.253C244.589 170.134 244.836 170.074 245.095 170.075L245.094 170.614C244.883 170.614 244.679 170.649 244.483 170.721C244.291 170.788 244.132 170.9 244.007 171.058C243.882 171.216 243.82 171.432 243.819 171.705L243.56 171.733ZM243.24 173.682L243.247 170.086L243.822 170.087L243.815 173.683L243.24 173.682ZM247.885 173.69L247.857 173.1L247.86 171.791C247.86 171.509 247.83 171.276 247.768 171.094C247.706 170.907 247.608 170.765 247.474 170.669C247.339 170.573 247.165 170.525 246.949 170.524C246.752 170.524 246.582 170.564 246.438 170.645C246.299 170.722 246.183 170.846 246.092 171.019L245.575 170.816C245.666 170.649 245.777 170.505 245.906 170.386C246.036 170.261 246.187 170.168 246.36 170.106C246.533 170.039 246.729 170.006 246.95 170.006C247.285 170.007 247.561 170.075 247.776 170.209C247.997 170.339 248.162 170.534 248.272 170.793C248.381 171.047 248.433 171.363 248.428 171.742L248.417 173.691L247.885 173.69ZM246.806 173.774C246.384 173.774 246.053 173.677 245.814 173.485C245.58 173.288 245.463 173.017 245.463 172.672C245.464 172.307 245.584 172.029 245.824 171.838C246.069 171.642 246.41 171.544 246.846 171.545L247.875 171.547L247.874 172.029L246.975 172.027C246.639 172.027 246.399 172.081 246.255 172.191C246.116 172.301 246.046 172.459 246.046 172.666C246.045 172.853 246.115 173.001 246.253 173.112C246.392 173.218 246.586 173.271 246.836 173.271C247.042 173.271 247.222 173.229 247.375 173.143C247.529 173.052 247.647 172.925 247.728 172.762C247.815 172.594 247.859 172.398 247.859 172.173L248.103 172.173C248.103 172.662 247.992 173.053 247.77 173.345C247.549 173.632 247.228 173.775 246.806 173.774ZM250.939 173.782C250.585 173.781 250.271 173.702 249.998 173.543C249.725 173.379 249.512 173.156 249.359 172.873C249.206 172.59 249.13 172.264 249.131 171.894C249.131 171.525 249.206 171.199 249.356 170.917C249.509 170.634 249.723 170.414 249.997 170.256C250.27 170.094 250.582 170.013 250.932 170.014C251.277 170.014 251.586 170.094 251.859 170.253C252.132 170.411 252.341 170.635 252.484 170.922L251.958 171.159C251.863 170.967 251.724 170.818 251.542 170.712C251.36 170.602 251.152 170.546 250.917 170.546C250.682 170.545 250.473 170.602 250.291 170.717C250.113 170.832 249.971 170.992 249.866 171.198C249.765 171.399 249.714 171.632 249.713 171.896C249.713 172.159 249.763 172.394 249.863 172.601C249.968 172.802 250.112 172.961 250.293 173.076C250.48 173.191 250.691 173.249 250.926 173.25C251.161 173.25 251.37 173.191 251.552 173.071C251.739 172.952 251.881 172.784 251.977 172.568L252.502 172.807C252.357 173.113 252.148 173.353 251.875 173.525C251.601 173.697 251.289 173.783 250.939 173.782ZM254.801 173.789C254.451 173.788 254.142 173.709 253.874 173.55C253.606 173.386 253.395 173.163 253.242 172.88C253.094 172.597 253.021 172.271 253.021 171.902C253.022 171.532 253.097 171.206 253.246 170.924C253.4 170.641 253.609 170.421 253.873 170.263C254.142 170.101 254.449 170.02 254.794 170.021C255.13 170.021 255.42 170.106 255.664 170.274C255.908 170.437 256.097 170.668 256.231 170.965C256.364 171.263 256.431 171.613 256.43 172.016L253.46 172.01L253.604 171.888C253.603 172.176 253.653 172.423 253.754 172.629C253.859 172.836 254.005 172.994 254.191 173.105C254.378 173.21 254.591 173.264 254.831 173.264C255.085 173.264 255.299 173.205 255.471 173.085C255.649 172.966 255.786 172.808 255.882 172.611L256.378 172.864C256.287 173.051 256.164 173.214 256.01 173.352C255.861 173.491 255.684 173.599 255.478 173.675C255.276 173.751 255.051 173.789 254.801 173.789ZM253.64 171.644L253.49 171.528L255.971 171.533L255.819 171.655C255.82 171.425 255.775 171.226 255.684 171.058C255.593 170.89 255.471 170.76 255.318 170.669C255.165 170.577 254.987 170.531 254.786 170.531C254.589 170.531 254.402 170.576 254.225 170.667C254.052 170.758 253.91 170.887 253.8 171.054C253.694 171.217 253.641 171.414 253.64 171.644Z" fill="black"/>
<path d="M72.5405 141.381L89.7669 141.413" stroke="black" stroke-width="3.59574" stroke-linejoin="round"/>
<path d="M104.942 141.64L122.989 141.673" stroke="black" stroke-width="3.59574" stroke-linejoin="round"/>
<path d="M138.164 141.7L157.441 141.735" stroke="black" stroke-width="3.59574" stroke-linejoin="round"/>
<path d="M172.207 141.762L189.434 141.793" stroke="black" stroke-width="3.59574" stroke-linejoin="round"/>
<path d="M264.87 141.891L343.607 142.034" stroke="black" stroke-width="3.59574" stroke-linejoin="round"/>
<path d="M73.771 141.583L339.344 142.065" stroke="black" stroke-width="0.799054" stroke-linejoin="round"/>
<path d="M29.9891 15.7999C38.393 16.8683 44.2935 24.3635 43.2014 32.5163C42.109 40.6692 34.4313 46.439 26.0272 45.3706C17.6233 44.302 11.7237 36.8062 12.816 28.6534C13.9086 20.5008 21.5853 14.7317 29.9891 15.7999Z" stroke="black" stroke-width="1.10451"/>
<path d="M26.5219 23.2504L27.1904 18.2609L27.8039 18.3389L30.2421 22.7229L30.7788 18.7171L31.3852 18.7942L30.7167 23.7837L30.1103 23.7066L27.6678 19.3003L27.1283 23.3275L26.5219 23.2504Z" fill="black"/>
<path d="M26.3468 43.0867C26.071 43.0516 25.8299 42.992 25.6235 42.9077C25.4178 42.8187 25.2434 42.712 25.1005 42.5875C24.9582 42.4583 24.8457 42.3231 24.763 42.1821C24.6809 42.0364 24.626 41.8868 24.5982 41.7335L25.2028 41.6074C25.2461 41.8255 25.3643 42.0266 25.5573 42.2106C25.7557 42.3905 26.0118 42.5004 26.3257 42.5403C26.711 42.5893 27.0232 42.5516 27.2623 42.4274C27.5015 42.3031 27.6379 42.1151 27.6717 41.8633C27.7029 41.6304 27.6305 41.4303 27.4546 41.263C27.2793 41.0909 27.0378 40.9442 26.73 40.8229L26.1997 40.6105C25.9838 40.5251 25.7881 40.4156 25.6125 40.2821C25.4423 40.1445 25.3116 39.9829 25.2204 39.7973C25.1345 39.6076 25.1078 39.3916 25.1403 39.1492C25.2008 38.6978 25.393 38.3646 25.7168 38.1496C26.0461 37.9305 26.4866 37.856 27.0383 37.9262C27.3664 37.9679 27.6421 38.0585 27.8652 38.198C28.089 38.3328 28.2635 38.4927 28.3887 38.6778C28.5192 38.8587 28.6027 39.0481 28.639 39.246L28.0416 39.3731C27.983 39.124 27.8557 38.9193 27.6595 38.759C27.4639 38.594 27.2139 38.4922 26.9096 38.4535C26.5909 38.413 26.326 38.459 26.1147 38.5917C25.9088 38.7201 25.7881 38.9174 25.7524 39.1835C25.7219 39.4116 25.772 39.5968 25.9029 39.7391C26.0344 39.8766 26.2153 39.989 26.4454 40.0763L26.9766 40.2816C27.4465 40.4573 27.792 40.6945 28.0131 40.9933C28.2397 41.2879 28.3326 41.5872 28.2919 41.8914C28.2569 42.1527 28.1581 42.3842 27.9957 42.5859C27.8338 42.7828 27.6135 42.9287 27.3348 43.0238C27.0614 43.1147 26.7321 43.1357 26.3468 43.0867Z" fill="black"/>
<path d="M35.6016 34.4296L36.2701 29.4401L39.2236 29.8156L39.15 30.3644L36.8029 30.0661L36.5871 31.6769L38.7273 31.949L38.6548 32.4907L36.5145 32.2186L36.2815 33.9578L38.6429 34.258L38.5694 34.8069L35.6016 34.4296Z" fill="black"/>
<path d="M19.0485 32.3254L21.2579 27.5319L21.8643 27.609L19.6477 32.4016L19.0485 32.3254ZM16.0094 31.9391L15.1512 26.7555L15.7576 26.8326L16.6015 32.0144L16.0094 31.9391ZM16.0736 31.9472L18.2117 27.1446L18.7895 27.2181L16.6514 32.0207L16.0736 31.9472ZM18.9985 32.3191L18.2331 27.1473L18.8109 27.2208L19.5978 32.3953L18.9985 32.3191Z" fill="black"/>
<path d="M29.9465 15.2986L31.0675 6.80859" stroke="black" stroke-width="0.552255"/>
<path d="M28.3318 9.66753L31.1033 6.53476L32.9708 10.2488" stroke="black" stroke-width="0.552255"/>
</svg>
