<svg width="1080" height="1350" viewBox="0 0 1080 1350" fill="none" xmlns="http://www.w3.org/2000/svg">
<g clip-path="url(#clip0_483_499)">
<rect width="1080" height="1350" fill="white"/>
<path d="M30.5873 182V40.9252H123.092V63.6987H58.8022V100.177H110.194V122.346H58.8022V182H30.5873ZM136.078 182V40.9252H195.934C207.355 40.9252 216.76 42.8734 224.149 46.7697C231.673 50.5317 237.249 55.7717 240.877 62.4895C244.639 69.073 246.52 76.5298 246.52 84.8599C246.52 91.3091 245.109 97.288 242.288 102.797C239.466 108.171 235.704 112.806 231.002 116.703C236.107 120.196 240.004 124.697 242.691 130.205C245.512 135.714 247.057 142.029 247.326 149.15L248.938 182H221.328L219.111 149.15C218.842 144.447 217.902 140.618 216.29 137.662C214.812 134.572 212.46 132.288 209.236 130.81C206.011 129.332 201.645 128.593 196.136 128.593H164.293V182H136.078ZM164.293 105.82H194.121C202.451 105.82 208.497 103.939 212.259 100.177C216.021 96.4146 217.902 91.3091 217.902 84.8599C217.902 78.2764 216.021 73.1709 212.259 69.5432C208.497 65.7812 202.451 63.9003 194.121 63.9003H164.293V105.82ZM264.99 182V40.9252H293.205V182H264.99ZM312.225 182V40.9252H361.803C378.329 40.9252 391.899 43.8811 402.513 49.7928C413.262 55.5701 421.189 63.7659 426.294 74.3801C431.534 84.8599 434.154 97.2208 434.154 111.463C434.154 125.57 431.534 137.931 426.294 148.545C421.189 159.159 413.262 167.422 402.513 173.334C391.899 179.111 378.329 182 361.803 182H312.225ZM340.44 157.816H360.191C371.611 157.816 380.546 156.002 386.995 152.374C393.578 148.612 398.281 143.305 401.102 136.453C403.924 129.466 405.334 121.136 405.334 111.463C405.334 101.789 403.924 93.4588 401.102 86.4722C398.281 79.4857 393.578 74.1786 386.995 70.5509C380.546 66.7889 371.611 64.9079 360.191 64.9079H340.44V157.816ZM432.658 182L484.05 40.9252H516.094L567.687 182H537.86L494.328 56.2419H505.816L462.284 182H432.658ZM456.439 150.359L463.896 128.392H536.449L543.906 150.359H456.439ZM595.22 182V132.825L547.456 40.9252H579.5L613.358 111.866H605.902L639.558 40.9252H671.199L623.435 132.825V182H595.22ZM683.412 182V40.9252H742.059C751.867 40.9252 760.13 42.4703 766.848 45.5605C773.566 48.5164 778.671 52.7486 782.165 58.2573C785.658 63.6315 787.405 69.9463 787.405 77.2016C787.405 84.3225 785.86 90.3014 782.769 95.1382C779.679 99.9751 775.581 103.67 770.476 106.223C765.505 108.775 759.996 110.321 753.95 110.858L757.174 108.641C763.624 108.775 769.334 110.455 774.305 113.679C779.41 116.904 783.374 121.136 786.195 126.376C789.151 131.616 790.629 137.326 790.629 143.507C790.629 151.031 788.815 157.749 785.188 163.66C781.56 169.438 776.253 173.939 769.266 177.163C762.414 180.388 754.017 182 744.075 182H683.412ZM711.627 159.025H739.641C746.762 159.025 752.27 157.413 756.167 154.188C760.063 150.964 762.011 146.261 762.011 140.081C762.011 134.035 759.996 129.265 755.965 125.772C751.934 122.278 746.359 120.532 739.238 120.532H711.627V159.025ZM711.627 99.572H737.424C744.276 99.572 749.516 98.0269 753.144 94.9367C756.771 91.7121 758.585 87.2112 758.585 81.4338C758.585 75.7908 756.771 71.4242 753.144 68.334C749.65 65.1095 744.343 63.4972 737.222 63.4972H711.627V99.572ZM792.627 182L844.019 40.9252H876.063L927.656 182H897.829L854.297 56.2419H865.785L822.253 182H792.627ZM816.408 150.359L823.865 128.392H896.418L903.875 150.359H816.408ZM937.497 182V40.9252H997.353C1008.77 40.9252 1018.18 42.8734 1025.57 46.7697C1033.09 50.5317 1038.67 55.7717 1042.29 62.4895C1046.06 69.073 1047.94 76.5298 1047.94 84.8599C1047.94 91.3091 1046.53 97.288 1043.71 102.797C1040.88 108.171 1037.12 112.806 1032.42 116.703C1037.53 120.196 1041.42 124.697 1044.11 130.205C1046.93 135.714 1048.48 142.029 1048.74 149.15L1050.36 182H1022.75L1020.53 149.15C1020.26 144.447 1019.32 140.618 1017.71 137.662C1016.23 134.572 1013.88 132.288 1010.65 130.81C1007.43 129.332 1003.06 128.593 997.554 128.593H965.712V182H937.497ZM965.712 105.82H995.539C1003.87 105.82 1009.91 103.939 1013.68 100.177C1017.44 96.4146 1019.32 91.3091 1019.32 84.8599C1019.32 78.2764 1017.44 73.1709 1013.68 69.5432C1009.91 65.7812 1003.87 63.9003 995.539 63.9003H965.712V105.82Z" fill="black"/>
<rect x="30.1447" y="201.829" width="1020.79" height="967.281" fill="white" stroke="black" stroke-width="1.56484"/>
<circle cx="631.343" cy="472.857" r="39.121" fill="#D9D9D9"/>
<rect x="212.748" y="588.656" width="308.273" height="618.894" rx="154.137" transform="rotate(-90 212.748 588.656)" fill="#FF0000" fill-opacity="0.88"/>
<rect x="153.285" y="397.242" width="308.273" height="914.746" rx="154.137" transform="rotate(-34.7109 153.285 397.242)" fill="black"/>
<rect x="212.748" y="280.382" width="308.273" height="808.239" rx="154.137" fill="#CBFFBF"/>
<ellipse cx="367.276" cy="434.519" rx="156.093" ry="154.137" fill="#009CFF"/>
<ellipse cx="713.106" cy="934.485" rx="156.093" ry="154.137" fill="#FED8E9"/>
<path d="M790.957 425.521C786.262 431.78 721.862 472.466 675.441 472.466C629.021 472.466 563.073 432.708 558.578 425.521C560.825 418.334 629.021 376.62 675.441 376.62C721.862 376.62 786.262 418.479 790.957 425.521Z" fill="white"/>
<circle cx="674.376" cy="424.347" r="39.121" fill="#FFE261"/>
<path d="M693.937 424.348C693.937 435.151 685.179 443.908 674.376 443.908C663.573 443.908 654.816 435.151 654.816 424.348C654.816 413.545 663.573 404.787 674.376 404.787C685.179 404.787 693.937 413.545 693.937 424.348Z" fill="black"/>
<path d="M949.78 1215.73V1189.44H966.828V1193.39H954.662V1200.63H964.5V1204.46H954.662V1215.73H949.78ZM967.887 1215.73V1197.1H972.769V1199.96C973.244 1199.01 973.858 1198.27 974.609 1197.74C975.36 1197.19 976.223 1196.92 977.2 1196.92H979.566V1201.27H976.712C975.81 1201.27 975.059 1201.51 974.459 1201.99C973.883 1202.46 973.457 1203.18 973.182 1204.13C972.906 1205.08 972.769 1206.25 972.769 1207.66V1215.73H967.887ZM982.189 1215.73V1197.1H987.071V1215.73H982.189ZM982.302 1194.03V1189.29H987.033V1194.03H982.302ZM998.596 1216.18C996.844 1216.18 995.266 1215.76 993.864 1214.9C992.488 1214.05 991.399 1212.89 990.597 1211.41C989.796 1209.91 989.396 1208.23 989.396 1206.38C989.396 1204.5 989.796 1202.84 990.597 1201.39C991.399 1199.91 992.488 1198.76 993.864 1197.93C995.266 1197.08 996.844 1196.65 998.596 1196.65C999.998 1196.65 1001.21 1196.92 1002.24 1197.44C1003.29 1197.97 1004.13 1198.69 1004.75 1199.62V1188.69H1009.64V1215.73H1004.75V1213.06C1004.18 1213.89 1003.39 1214.62 1002.39 1215.24C1001.41 1215.87 1000.15 1216.18 998.596 1216.18ZM999.648 1211.94C1000.67 1211.94 1001.58 1211.7 1002.35 1211.22C1003.15 1210.75 1003.77 1210.1 1004.19 1209.27C1004.64 1208.42 1004.87 1207.47 1004.87 1206.42C1004.87 1205.34 1004.64 1204.39 1004.19 1203.56C1003.77 1202.74 1003.15 1202.09 1002.35 1201.61C1001.58 1201.14 1000.67 1200.9 999.648 1200.9C998.646 1200.9 997.745 1201.14 996.944 1201.61C996.143 1202.09 995.517 1202.74 995.066 1203.56C994.616 1204.36 994.39 1205.3 994.39 1206.38C994.39 1207.46 994.616 1208.42 995.066 1209.27C995.517 1210.1 996.143 1210.75 996.944 1211.22C997.745 1211.7 998.646 1211.94 999.648 1211.94ZM1018.75 1216.18C1017.35 1216.18 1016.14 1215.93 1015.11 1215.43C1014.11 1214.93 1013.35 1214.25 1012.82 1213.4C1012.29 1212.55 1012.03 1211.61 1012.03 1210.59C1012.03 1208.63 1012.73 1207.13 1014.14 1206.08C1015.54 1205 1017.38 1204.46 1019.66 1204.46C1020.73 1204.46 1021.66 1204.54 1022.43 1204.69C1023.21 1204.84 1023.85 1205 1024.35 1205.18V1204.28C1024.35 1202.98 1023.97 1202.02 1023.22 1201.42C1022.5 1200.82 1021.55 1200.52 1020.37 1200.52C1019.54 1200.52 1018.8 1200.7 1018.15 1201.05C1017.5 1201.37 1017.09 1201.96 1016.91 1202.81H1012.29C1012.45 1201.49 1012.9 1200.37 1013.65 1199.47C1014.4 1198.54 1015.35 1197.84 1016.5 1197.37C1017.68 1196.89 1018.97 1196.65 1020.37 1196.65C1023.15 1196.65 1025.31 1197.32 1026.87 1198.64C1028.44 1199.97 1029.23 1201.85 1029.23 1204.28V1208.48C1029.23 1209.43 1029.28 1210.14 1029.38 1210.59C1029.51 1211.04 1029.69 1211.32 1029.94 1211.45C1030.19 1211.57 1030.53 1211.64 1030.96 1211.64H1031.11V1215.73H1030.06C1028.73 1215.73 1027.63 1215.56 1026.75 1215.2C1025.88 1214.85 1025.24 1214.17 1024.84 1213.14C1024.21 1214.02 1023.39 1214.74 1022.36 1215.32C1021.33 1215.89 1020.13 1216.18 1018.75 1216.18ZM1019.84 1212.46C1020.64 1212.46 1021.32 1212.29 1021.87 1211.94C1022.45 1211.56 1022.92 1211.06 1023.3 1210.44C1023.67 1209.78 1023.94 1209.08 1024.09 1208.33C1023.56 1208.18 1022.95 1208.04 1022.25 1207.92C1021.57 1207.77 1020.88 1207.69 1020.18 1207.69C1019.2 1207.69 1018.42 1207.92 1017.82 1208.37C1017.24 1208.8 1016.95 1209.4 1016.95 1210.17C1016.95 1210.85 1017.2 1211.4 1017.7 1211.83C1018.23 1212.25 1018.94 1212.46 1019.84 1212.46ZM1030.77 1223.99V1220.12H1034.75C1035.13 1220.12 1035.44 1220.07 1035.69 1219.97C1035.94 1219.9 1036.18 1219.71 1036.4 1219.41C1036.63 1219.11 1036.87 1218.65 1037.12 1218.02L1038.73 1214.53L1038.47 1216.67L1030.36 1197.1H1035.65L1040.84 1210.14L1046.24 1197.1H1051.43L1041.51 1219.71C1041.11 1220.64 1040.75 1221.38 1040.42 1221.93C1040.12 1222.5 1039.82 1222.93 1039.52 1223.2C1039.22 1223.5 1038.86 1223.7 1038.43 1223.8C1038.03 1223.93 1037.51 1223.99 1036.85 1223.99H1030.77ZM883.885 1265.73V1261.37H888.767C889.918 1261.37 890.732 1261.04 891.208 1260.36C891.708 1259.68 891.959 1258.78 891.959 1257.66V1239.44H896.841V1257.66C896.841 1260.26 896.115 1262.26 894.663 1263.67C893.211 1265.04 891.245 1265.73 888.767 1265.73H883.885ZM910.185 1266.18C908.258 1266.18 906.518 1265.81 904.966 1265.05C903.413 1264.28 902.174 1263.11 901.248 1261.56C900.322 1259.98 899.859 1258.01 899.859 1255.63V1239.44H904.74V1255.67C904.74 1257.69 905.229 1259.21 906.205 1260.21C907.206 1261.21 908.571 1261.71 910.298 1261.71C912.025 1261.71 913.377 1261.21 914.354 1260.21C915.355 1259.21 915.856 1257.69 915.856 1255.67V1239.44H920.738V1255.63C920.738 1258.01 920.262 1259.98 919.311 1261.56C918.359 1263.11 917.082 1264.28 915.48 1265.05C913.878 1265.81 912.113 1266.18 910.185 1266.18ZM924.147 1265.73V1239.44H929.029L941.308 1257.84V1239.44H946.19V1265.73H941.308L929.029 1247.37V1265.73H924.147ZM950.036 1265.73V1239.44H967.197V1243.39H954.917V1250.48H966.07V1254.31H954.917V1261.79H967.197V1265.73H950.036ZM992.721 1266.18C990.643 1266.18 988.891 1265.82 987.464 1265.09C986.037 1264.34 984.885 1263.36 984.009 1262.16C983.158 1260.94 982.532 1259.57 982.131 1258.07C981.756 1256.54 981.568 1255 981.568 1253.45C981.568 1250.5 981.994 1247.94 982.845 1245.79C983.721 1243.64 984.973 1241.97 986.6 1240.8C988.252 1239.59 990.243 1238.99 992.571 1238.99C994.474 1238.99 996.076 1239.36 997.378 1240.08C998.704 1240.78 999.743 1241.71 1000.49 1242.86C1001.25 1244.01 1001.68 1245.26 1001.81 1246.62H997.265C997.015 1245.44 996.476 1244.55 995.65 1243.95C994.849 1243.32 993.81 1243.01 992.533 1243.01C990.456 1243.01 988.853 1243.98 987.727 1245.9C986.625 1247.81 986.175 1250.71 986.375 1254.62L985.887 1252.89C986.262 1252.11 986.813 1251.42 987.539 1250.82C988.265 1250.2 989.116 1249.7 990.093 1249.32C991.094 1248.94 992.183 1248.76 993.36 1248.76C994.962 1248.76 996.439 1249.11 997.791 1249.81C999.168 1250.51 1000.28 1251.5 1001.13 1252.77C1001.98 1254.05 1002.41 1255.55 1002.41 1257.28C1002.41 1258.86 1002 1260.32 1001.17 1261.67C1000.37 1263.03 999.243 1264.12 997.791 1264.94C996.339 1265.77 994.649 1266.18 992.721 1266.18ZM992.458 1261.98C993.535 1261.98 994.461 1261.8 995.237 1261.45C996.038 1261.07 996.652 1260.55 997.077 1259.87C997.503 1259.17 997.716 1258.36 997.716 1257.43C997.716 1256.48 997.49 1255.67 997.04 1254.99C996.614 1254.31 996.001 1253.8 995.2 1253.45C994.424 1253.08 993.485 1252.89 992.383 1252.89C991.282 1252.89 990.318 1253.08 989.492 1253.45C988.666 1253.83 988.027 1254.35 987.577 1255.03C987.151 1255.68 986.938 1256.47 986.938 1257.39C986.938 1258.35 987.163 1259.16 987.614 1259.83C988.065 1260.51 988.703 1261.04 989.529 1261.41C990.355 1261.79 991.332 1261.98 992.458 1261.98ZM1012.94 1265.73V1243.39H1005.24V1239.44H1025.48V1243.39H1017.82V1265.73H1012.94ZM1044.93 1265.73V1239.44H1049.81V1265.73H1044.93ZM1028.29 1265.73V1239.44H1033.18V1265.73H1028.29ZM1032.54 1254.28V1250.33H1045.76V1254.28H1032.54ZM831.453 1313.93V1296.43H824.656V1292.86L829.876 1292.49C830.351 1292.44 830.727 1292.29 831.002 1292.04C831.303 1291.76 831.453 1291.4 831.453 1290.95V1289.44H836.372V1313.93H831.453ZM823.717 1315.73V1311.75H843.845V1315.73H823.717ZM858.355 1316.18C856.277 1316.18 854.525 1315.82 853.098 1315.09C851.671 1314.34 850.519 1313.36 849.643 1312.16C848.792 1310.94 848.166 1309.57 847.765 1308.07C847.39 1306.54 847.202 1305 847.202 1303.45C847.202 1300.5 847.628 1297.94 848.479 1295.79C849.355 1293.64 850.607 1291.97 852.234 1290.8C853.886 1289.59 855.876 1288.99 858.205 1288.99C860.107 1288.99 861.71 1289.36 863.011 1290.08C864.338 1290.78 865.377 1291.71 866.128 1292.86C866.879 1294.01 867.317 1295.26 867.443 1296.62H862.899C862.648 1295.44 862.11 1294.55 861.284 1293.95C860.483 1293.32 859.444 1293.01 858.167 1293.01C856.089 1293.01 854.487 1293.98 853.36 1295.9C852.259 1297.81 851.808 1300.71 852.009 1304.62L851.52 1302.89C851.896 1302.11 852.447 1301.42 853.173 1300.82C853.899 1300.2 854.75 1299.7 855.726 1299.32C856.728 1298.94 857.817 1298.76 858.993 1298.76C860.596 1298.76 862.073 1299.11 863.424 1299.81C864.801 1300.51 865.915 1301.5 866.767 1302.77C867.618 1304.05 868.043 1305.55 868.043 1307.28C868.043 1308.86 867.63 1310.32 866.804 1311.67C866.003 1313.03 864.876 1314.12 863.424 1314.94C861.972 1315.77 860.283 1316.18 858.355 1316.18ZM858.092 1311.98C859.169 1311.98 860.095 1311.8 860.871 1311.45C861.672 1311.07 862.285 1310.55 862.711 1309.87C863.137 1309.17 863.349 1308.36 863.349 1307.43C863.349 1306.48 863.124 1305.67 862.673 1304.99C862.248 1304.31 861.634 1303.8 860.833 1303.45C860.057 1303.08 859.118 1302.89 858.017 1302.89C856.915 1302.89 855.952 1303.08 855.125 1303.45C854.299 1303.83 853.661 1304.35 853.21 1305.03C852.785 1305.68 852.572 1306.47 852.572 1307.39C852.572 1308.35 852.797 1309.16 853.248 1309.83C853.698 1310.51 854.337 1311.04 855.163 1311.41C855.989 1311.79 856.965 1311.98 858.092 1311.98ZM871.137 1315.73V1310.02H877.221V1315.73H871.137ZM871.137 1302.81V1297.1H877.221V1302.81H871.137ZM890.576 1316.18C888.297 1316.18 886.345 1315.62 884.717 1314.49C883.115 1313.36 881.888 1311.79 881.037 1309.76C880.186 1307.71 879.761 1305.32 879.761 1302.59C879.761 1299.86 880.186 1297.48 881.037 1295.45C881.888 1293.4 883.115 1291.81 884.717 1290.68C886.345 1289.56 888.297 1288.99 890.576 1288.99C892.879 1288.99 894.831 1289.56 896.434 1290.68C898.036 1291.81 899.263 1293.4 900.114 1295.45C900.965 1297.48 901.391 1299.86 901.391 1302.59C901.391 1305.32 900.965 1307.71 900.114 1309.76C899.263 1311.79 898.036 1313.36 896.434 1314.49C894.831 1315.62 892.879 1316.18 890.576 1316.18ZM890.576 1311.79C892.653 1311.79 894.156 1311.01 895.082 1309.46C896.033 1307.91 896.509 1305.62 896.509 1302.59C896.509 1299.58 896.033 1297.3 895.082 1295.75C894.156 1294.18 892.653 1293.39 890.576 1293.39C888.523 1293.39 887.021 1294.18 886.069 1295.75C885.118 1297.3 884.642 1299.58 884.642 1302.59C884.642 1305.62 885.118 1307.91 886.069 1309.46C887.021 1311.01 888.523 1311.79 890.576 1311.79ZM914.999 1316.18C912.721 1316.18 910.768 1315.62 909.141 1314.49C907.539 1313.36 906.312 1311.79 905.461 1309.76C904.61 1307.71 904.184 1305.32 904.184 1302.59C904.184 1299.86 904.61 1297.48 905.461 1295.45C906.312 1293.4 907.539 1291.81 909.141 1290.68C910.768 1289.56 912.721 1288.99 914.999 1288.99C917.302 1288.99 919.255 1289.56 920.857 1290.68C922.459 1291.81 923.686 1293.4 924.537 1295.45C925.389 1297.48 925.814 1299.86 925.814 1302.59C925.814 1305.32 925.389 1307.71 924.537 1309.76C923.686 1311.79 922.459 1313.36 920.857 1314.49C919.255 1315.62 917.302 1316.18 914.999 1316.18ZM914.999 1311.79C917.077 1311.79 918.579 1311.01 919.505 1309.46C920.457 1307.91 920.932 1305.62 920.932 1302.59C920.932 1299.58 920.457 1297.3 919.505 1295.75C918.579 1294.18 917.077 1293.39 914.999 1293.39C912.946 1293.39 911.444 1294.18 910.493 1295.75C909.542 1297.3 909.066 1299.58 909.066 1302.59C909.066 1305.62 909.542 1307.91 910.493 1309.46C911.444 1311.01 912.946 1311.79 914.999 1311.79ZM927.894 1304.62V1300.56H944.943V1304.62H927.894ZM948.331 1315.73V1313.74C948.331 1311.56 948.644 1309.78 949.27 1308.41C949.896 1307.01 950.797 1305.85 951.974 1304.95C953.176 1304.05 954.628 1303.23 956.33 1302.47L957.381 1302.02C958.984 1301.27 960.248 1300.55 961.174 1299.85C962.125 1299.12 962.601 1298.16 962.601 1296.95C962.601 1296.3 962.438 1295.69 962.113 1295.11C961.813 1294.51 961.337 1294.04 960.686 1293.69C960.035 1293.31 959.196 1293.12 958.17 1293.12C957.144 1293.12 956.267 1293.34 955.541 1293.76C954.815 1294.16 954.265 1294.7 953.889 1295.38C953.514 1296.05 953.326 1296.83 953.326 1297.71H948.632C948.657 1295.75 949.107 1294.14 949.984 1292.86C950.885 1291.56 952.061 1290.6 953.514 1289.97C954.991 1289.32 956.605 1288.99 958.358 1288.99C960.26 1288.99 961.875 1289.33 963.202 1290.01C964.529 1290.66 965.543 1291.57 966.244 1292.75C966.97 1293.9 967.333 1295.21 967.333 1296.69C967.333 1298.47 966.757 1300.08 965.605 1301.54C964.454 1302.96 962.564 1304.3 959.935 1305.55L958.057 1306.46C956.881 1306.98 955.954 1307.53 955.278 1308.11C954.603 1308.66 954.127 1309.23 953.851 1309.83C953.576 1310.41 953.438 1311.05 953.438 1311.75H967.633V1315.73H948.331ZM982.256 1316.18C979.977 1316.18 978.025 1315.62 976.397 1314.49C974.795 1313.36 973.569 1311.79 972.717 1309.76C971.866 1307.71 971.441 1305.32 971.441 1302.59C971.441 1299.86 971.866 1297.48 972.717 1295.45C973.569 1293.4 974.795 1291.81 976.397 1290.68C978.025 1289.56 979.977 1288.99 982.256 1288.99C984.559 1288.99 986.512 1289.56 988.114 1290.68C989.716 1291.81 990.943 1293.4 991.794 1295.45C992.645 1297.48 993.071 1299.86 993.071 1302.59C993.071 1305.32 992.645 1307.71 991.794 1309.76C990.943 1311.79 989.716 1313.36 988.114 1314.49C986.512 1315.62 984.559 1316.18 982.256 1316.18ZM982.256 1311.79C984.333 1311.79 985.836 1311.01 986.762 1309.46C987.713 1307.91 988.189 1305.62 988.189 1302.59C988.189 1299.58 987.713 1297.3 986.762 1295.75C985.836 1294.18 984.333 1293.39 982.256 1293.39C980.203 1293.39 978.701 1294.18 977.749 1295.75C976.798 1297.3 976.322 1299.58 976.322 1302.59C976.322 1305.62 976.798 1307.91 977.749 1309.46C978.701 1311.01 980.203 1311.79 982.256 1311.79ZM995.639 1315.73V1310.02H1001.72V1315.73H995.639ZM995.639 1302.81V1297.1H1001.72V1302.81H995.639ZM1015.08 1316.18C1012.8 1316.18 1010.85 1315.62 1009.22 1314.49C1007.62 1313.36 1006.39 1311.79 1005.54 1309.76C1004.69 1307.71 1004.26 1305.32 1004.26 1302.59C1004.26 1299.86 1004.69 1297.48 1005.54 1295.45C1006.39 1293.4 1007.62 1291.81 1009.22 1290.68C1010.85 1289.56 1012.8 1288.99 1015.08 1288.99C1017.38 1288.99 1019.33 1289.56 1020.94 1290.68C1022.54 1291.81 1023.76 1293.4 1024.62 1295.45C1025.47 1297.48 1025.89 1299.86 1025.89 1302.59C1025.89 1305.32 1025.47 1307.71 1024.62 1309.76C1023.76 1311.79 1022.54 1313.36 1020.94 1314.49C1019.33 1315.62 1017.38 1316.18 1015.08 1316.18ZM1015.08 1311.79C1017.15 1311.79 1018.66 1311.01 1019.58 1309.46C1020.53 1307.91 1021.01 1305.62 1021.01 1302.59C1021.01 1299.58 1020.53 1297.3 1019.58 1295.75C1018.66 1294.18 1017.15 1293.39 1015.08 1293.39C1013.02 1293.39 1011.52 1294.18 1010.57 1295.75C1009.62 1297.3 1009.14 1299.58 1009.14 1302.59C1009.14 1305.62 1009.62 1307.91 1010.57 1309.46C1011.52 1311.01 1013.02 1311.79 1015.08 1311.79ZM1039.5 1316.18C1037.22 1316.18 1035.27 1315.62 1033.64 1314.49C1032.04 1313.36 1030.81 1311.79 1029.96 1309.76C1029.11 1307.71 1028.69 1305.32 1028.69 1302.59C1028.69 1299.86 1029.11 1297.48 1029.96 1295.45C1030.81 1293.4 1032.04 1291.81 1033.64 1290.68C1035.27 1289.56 1037.22 1288.99 1039.5 1288.99C1041.8 1288.99 1043.76 1289.56 1045.36 1290.68C1046.96 1291.81 1048.19 1293.4 1049.04 1295.45C1049.89 1297.48 1050.32 1299.86 1050.32 1302.59C1050.32 1305.32 1049.89 1307.71 1049.04 1309.76C1048.19 1311.79 1046.96 1313.36 1045.36 1314.49C1043.76 1315.62 1041.8 1316.18 1039.5 1316.18ZM1039.5 1311.79C1041.58 1311.79 1043.08 1311.01 1044.01 1309.46C1044.96 1307.91 1045.43 1305.62 1045.43 1302.59C1045.43 1299.58 1044.96 1297.3 1044.01 1295.75C1043.08 1294.18 1041.58 1293.39 1039.5 1293.39C1037.45 1293.39 1035.95 1294.18 1034.99 1295.75C1034.04 1297.3 1033.57 1299.58 1033.57 1302.59C1033.57 1305.62 1034.04 1307.91 1034.99 1309.46C1035.95 1311.01 1037.45 1311.79 1039.5 1311.79Z" fill="black"/>
<path d="M95.5368 1215.73V1193.39H87.8386V1189.44H108.079V1193.39H100.419V1215.73H95.5368ZM110.892 1215.73V1189.44H121.895C124.023 1189.44 125.776 1189.81 127.153 1190.53C128.529 1191.23 129.556 1192.2 130.232 1193.42C130.908 1194.63 131.246 1196 131.246 1197.56C131.246 1198.78 130.97 1199.91 130.42 1200.93C129.894 1201.96 129.155 1202.84 128.204 1203.56C129.205 1204.21 129.969 1205.07 130.495 1206.12C131.02 1207.14 131.308 1208.33 131.358 1209.68L131.659 1215.73H126.89L126.477 1209.76C126.426 1208.81 126.251 1208.03 125.951 1207.43C125.65 1206.81 125.175 1206.35 124.524 1206.08C123.898 1205.78 123.022 1205.63 121.895 1205.63H115.774V1215.73H110.892ZM115.774 1201.69H121.595C123.222 1201.69 124.411 1201.31 125.162 1200.56C125.913 1199.81 126.289 1198.81 126.289 1197.56C126.289 1196.25 125.913 1195.24 125.162 1194.51C124.436 1193.79 123.247 1193.42 121.595 1193.42H115.774V1201.69ZM134.95 1215.73V1189.44H139.832V1215.73H134.95ZM143.714 1215.73V1189.44H160.763V1193.39H148.596V1200.63H158.434V1204.46H148.596V1215.73H143.714ZM174.515 1216.18C171.911 1216.18 169.62 1215.61 167.643 1214.45C165.665 1213.3 164.113 1211.71 162.986 1209.68C161.885 1207.66 161.334 1205.29 161.334 1202.59C161.334 1199.91 161.885 1197.56 162.986 1195.53C164.113 1193.47 165.665 1191.87 167.643 1190.72C169.62 1189.57 171.911 1188.99 174.515 1188.99C177.143 1188.99 179.434 1189.57 181.387 1190.72C183.364 1191.87 184.904 1193.47 186.006 1195.53C187.132 1197.56 187.695 1199.91 187.695 1202.59C187.695 1205.29 187.132 1207.66 186.006 1209.68C184.904 1211.71 183.364 1213.3 181.387 1214.45C179.434 1215.61 177.143 1216.18 174.515 1216.18ZM174.552 1211.79C176.204 1211.79 177.644 1211.42 178.871 1210.7C180.097 1209.95 181.049 1208.88 181.725 1207.51C182.401 1206.13 182.738 1204.49 182.738 1202.59C182.738 1200.68 182.401 1199.04 181.725 1197.67C181.049 1196.29 180.097 1195.24 178.871 1194.51C177.644 1193.76 176.204 1193.39 174.552 1193.39C172.9 1193.39 171.448 1193.76 170.196 1194.51C168.969 1195.24 168.018 1196.29 167.342 1197.67C166.666 1199.04 166.328 1200.68 166.328 1202.59C166.328 1204.49 166.666 1206.13 167.342 1207.51C168.018 1208.88 168.969 1209.95 170.196 1210.7C171.448 1211.42 172.9 1211.79 174.552 1211.79ZM190.691 1215.73V1189.44H195.573V1211.9H207.214V1215.73H190.691ZM210.311 1215.73V1189.44H215.193V1215.73H210.311ZM228.951 1216.18C227.023 1216.18 225.284 1215.81 223.731 1215.05C222.179 1214.28 220.94 1213.11 220.014 1211.56C219.087 1209.98 218.624 1208.01 218.624 1205.63V1189.44H223.506V1205.67C223.506 1207.69 223.994 1209.21 224.971 1210.21C225.972 1211.21 227.336 1211.71 229.064 1211.71C230.791 1211.71 232.143 1211.21 233.119 1210.21C234.121 1209.21 234.621 1207.69 234.621 1205.67V1189.44H239.503V1205.63C239.503 1208.01 239.028 1209.98 238.076 1211.56C237.125 1213.11 235.848 1214.28 234.246 1215.05C232.644 1215.81 230.879 1216.18 228.951 1216.18ZM242.875 1215.73V1189.44H248.733L258.084 1211.71L256.018 1211.98L265.331 1189.44H271.152V1215.73H266.27V1193.35L267.922 1194.48L258.985 1215.73H255.079L246.105 1194.48L247.757 1193.35V1215.73H242.875ZM31.2775 1265.73V1239.44H41.9798C43.8074 1239.44 45.3345 1239.73 46.5612 1240.31C47.8129 1240.86 48.7517 1241.65 49.3776 1242.67C50.0285 1243.67 50.354 1244.85 50.354 1246.2C50.354 1247.53 50.0661 1248.64 49.4903 1249.55C48.9145 1250.45 48.1509 1251.14 47.1996 1251.61C46.2733 1252.09 45.2594 1252.37 44.1579 1252.47L44.7587 1252.06C45.9353 1252.09 46.9868 1252.4 47.9131 1253C48.8644 1253.6 49.6154 1254.39 50.1662 1255.37C50.717 1256.34 50.9923 1257.41 50.9923 1258.56C50.9923 1259.93 50.6544 1261.17 49.9784 1262.28C49.3025 1263.35 48.3136 1264.2 47.0118 1264.83C45.735 1265.43 44.1704 1265.73 42.3178 1265.73H31.2775ZM36.1592 1261.75H41.6043C43.0063 1261.75 44.0953 1261.42 44.8713 1260.77C45.6474 1260.12 46.0355 1259.2 46.0355 1257.99C46.0355 1256.79 45.6349 1255.85 44.8338 1255.18C44.0327 1254.48 42.9311 1254.13 41.5292 1254.13H36.1592V1261.75ZM36.1592 1250.48H41.2288C42.5556 1250.48 43.5821 1250.17 44.3081 1249.55C45.0341 1248.92 45.3971 1248.04 45.3971 1246.92C45.3971 1245.82 45.0466 1244.95 44.3456 1244.33C43.6446 1243.67 42.5807 1243.35 41.1537 1243.35H36.1592V1250.48ZM59.3257 1266.18C57.9237 1266.18 56.7096 1265.93 55.6831 1265.43C54.6817 1264.93 53.9182 1264.25 53.3925 1263.4C52.8667 1262.55 52.6039 1261.61 52.6039 1260.59C52.6039 1258.63 53.3048 1257.13 54.7068 1256.08C56.1087 1255 57.9488 1254.46 60.2269 1254.46C61.3034 1254.46 62.2297 1254.54 63.0058 1254.69C63.7819 1254.84 64.4203 1255 64.921 1255.18V1254.28C64.921 1252.98 64.5454 1252.02 63.7944 1251.42C63.0684 1250.82 62.1171 1250.52 60.9404 1250.52C60.1143 1250.52 59.3758 1250.7 58.7249 1251.05C58.074 1251.37 57.6609 1251.96 57.4856 1252.81H52.8667C53.0169 1251.49 53.4676 1250.37 54.2186 1249.47C54.9696 1248.54 55.921 1247.84 57.0726 1247.37C58.2492 1246.89 59.5385 1246.65 60.9404 1246.65C63.7193 1246.65 65.8848 1247.32 67.437 1248.64C69.0141 1249.97 69.8027 1251.85 69.8027 1254.28V1258.48C69.8027 1259.43 69.8528 1260.14 69.953 1260.59C70.0781 1261.04 70.2659 1261.32 70.5162 1261.45C70.7666 1261.57 71.1046 1261.64 71.5301 1261.64H71.6804V1265.73H70.6289C69.302 1265.73 68.2005 1265.56 67.3243 1265.2C66.4481 1264.85 65.8097 1264.17 65.4091 1263.14C64.7833 1264.02 63.9571 1264.74 62.9307 1265.32C61.9043 1265.89 60.7026 1266.18 59.3257 1266.18ZM60.4147 1262.46C61.2158 1262.46 61.8918 1262.29 62.4425 1261.94C63.0183 1261.56 63.494 1261.06 63.8695 1260.44C64.245 1259.78 64.5079 1259.08 64.6581 1258.33C64.1324 1258.18 63.519 1258.04 62.818 1257.92C62.1421 1257.77 61.4536 1257.69 60.7527 1257.69C59.7763 1257.69 58.9877 1257.92 58.3869 1258.37C57.8111 1258.8 57.5232 1259.4 57.5232 1260.17C57.5232 1260.85 57.7735 1261.4 58.2742 1261.83C58.8 1262.25 59.5135 1262.46 60.4147 1262.46ZM61.5037 1245.23C60.3521 1245.23 59.3507 1244.85 58.4995 1244.1C57.6484 1243.32 57.2228 1242.29 57.2228 1240.98C57.2228 1239.66 57.6484 1238.63 58.4995 1237.9C59.3507 1237.15 60.3521 1236.78 61.5037 1236.78C62.6804 1236.78 63.6817 1237.15 64.5079 1237.9C65.3591 1238.63 65.7847 1239.66 65.7847 1240.98C65.7847 1242.29 65.3591 1243.32 64.5079 1244.1C63.6817 1244.85 62.6804 1245.23 61.5037 1245.23ZM61.5037 1242.79C62.0044 1242.79 62.4175 1242.62 62.7429 1242.3C63.0684 1241.97 63.2311 1241.53 63.2311 1240.98C63.2311 1240.43 63.0684 1240.01 62.7429 1239.71C62.4175 1239.38 62.0044 1239.22 61.5037 1239.22C61.0281 1239.22 60.615 1239.38 60.2645 1239.71C59.939 1240.01 59.7763 1240.43 59.7763 1240.98C59.7763 1241.53 59.939 1241.97 60.2645 1242.3C60.615 1242.62 61.0281 1242.79 61.5037 1242.79ZM82.0374 1266.18C80.285 1266.18 78.7078 1265.76 77.3058 1264.9C75.9289 1264.05 74.8399 1262.89 74.0388 1261.41C73.2377 1259.91 72.8371 1258.23 72.8371 1256.38C72.8371 1254.5 73.2377 1252.84 74.0388 1251.39C74.8399 1249.91 75.9289 1248.76 77.3058 1247.93C78.7078 1247.08 80.285 1246.65 82.0374 1246.65C83.4394 1246.65 84.6535 1246.92 85.68 1247.44C86.7314 1247.97 87.5701 1248.69 88.196 1249.62V1238.69H93.0777V1265.73H88.196V1263.06C87.6202 1263.89 86.8316 1264.62 85.8302 1265.24C84.8538 1265.87 83.5896 1266.18 82.0374 1266.18ZM83.0889 1261.94C84.1153 1261.94 85.0165 1261.7 85.7926 1261.22C86.5937 1260.75 87.2071 1260.1 87.6327 1259.27C88.0833 1258.42 88.3086 1257.47 88.3086 1256.42C88.3086 1255.34 88.0833 1254.39 87.6327 1253.56C87.2071 1252.74 86.5937 1252.09 85.7926 1251.61C85.0165 1251.14 84.1153 1250.9 83.0889 1250.9C82.0875 1250.9 81.1862 1251.14 80.3851 1251.61C79.584 1252.09 78.9581 1252.74 78.5075 1253.56C78.0569 1254.36 77.8316 1255.3 77.8316 1256.38C77.8316 1257.46 78.0569 1258.42 78.5075 1259.27C78.9581 1260.1 79.584 1260.75 80.3851 1261.22C81.1862 1261.7 82.0875 1261.94 83.0889 1261.94ZM105.191 1266.18C103.288 1266.18 101.611 1265.78 100.159 1264.98C98.7067 1264.15 97.5676 1263.03 96.7414 1261.6C95.9153 1260.15 95.5022 1258.47 95.5022 1256.57C95.5022 1254.64 95.9028 1252.93 96.7039 1251.42C97.53 1249.92 98.6691 1248.76 100.121 1247.93C101.573 1247.08 103.263 1246.65 105.191 1246.65C107.043 1246.65 108.67 1247.05 110.072 1247.86C111.474 1248.66 112.563 1249.75 113.339 1251.12C114.141 1252.5 114.541 1254.06 114.541 1255.82C114.541 1256.07 114.541 1256.34 114.541 1256.64C114.541 1256.94 114.516 1257.26 114.466 1257.58H99.0321V1254.58H109.622C109.547 1253.38 109.096 1252.41 108.27 1251.69C107.444 1250.96 106.43 1250.6 105.228 1250.6C104.327 1250.6 103.501 1250.8 102.75 1251.2C101.999 1251.6 101.398 1252.2 100.947 1253C100.522 1253.78 100.309 1254.78 100.309 1256V1257.06C100.309 1258.11 100.522 1259.02 100.947 1259.8C101.373 1260.57 101.949 1261.17 102.675 1261.6C103.401 1262 104.227 1262.2 105.153 1262.2C106.104 1262.2 106.906 1261.99 107.556 1261.56C108.207 1261.14 108.708 1260.57 109.059 1259.87H114.015C113.665 1261.05 113.077 1262.13 112.25 1263.1C111.449 1264.05 110.448 1264.8 109.246 1265.35C108.045 1265.91 106.693 1266.18 105.191 1266.18ZM117.044 1265.73V1238.69H121.925V1249.92C122.526 1248.92 123.365 1248.13 124.441 1247.56C125.543 1246.95 126.77 1246.65 128.122 1246.65C130.425 1246.65 132.202 1247.39 133.454 1248.87C134.731 1250.32 135.369 1252.45 135.369 1255.25V1265.73H130.525V1255.7C130.525 1254.1 130.199 1252.89 129.549 1252.06C128.923 1251.21 127.934 1250.78 126.582 1250.78C125.23 1250.78 124.116 1251.26 123.24 1252.21C122.364 1253.14 121.925 1254.44 121.925 1256.12V1265.73H117.044ZM144.845 1266.18C143.443 1266.18 142.229 1265.93 141.202 1265.43C140.201 1264.93 139.437 1264.25 138.912 1263.4C138.386 1262.55 138.123 1261.61 138.123 1260.59C138.123 1258.63 138.824 1257.13 140.226 1256.08C141.628 1255 143.468 1254.46 145.746 1254.46C146.823 1254.46 147.749 1254.54 148.525 1254.69C149.301 1254.84 149.939 1255 150.44 1255.18V1254.28C150.44 1252.98 150.065 1252.02 149.314 1251.42C148.588 1250.82 147.636 1250.52 146.46 1250.52C145.633 1250.52 144.895 1250.7 144.244 1251.05C143.593 1251.37 143.18 1251.96 143.005 1252.81H138.386C138.536 1251.49 138.987 1250.37 139.738 1249.47C140.489 1248.54 141.44 1247.84 142.592 1247.37C143.768 1246.89 145.058 1246.65 146.46 1246.65C149.238 1246.65 151.404 1247.32 152.956 1248.64C154.533 1249.97 155.322 1251.85 155.322 1254.28V1258.48C155.322 1259.43 155.372 1260.14 155.472 1260.59C155.597 1261.04 155.785 1261.32 156.035 1261.45C156.286 1261.57 156.624 1261.64 157.049 1261.64H157.2V1265.73H156.148C154.821 1265.73 153.72 1265.56 152.843 1265.2C151.967 1264.85 151.329 1264.17 150.928 1263.14C150.302 1264.02 149.476 1264.74 148.45 1265.32C147.423 1265.89 146.222 1266.18 144.845 1266.18ZM145.934 1262.46C146.735 1262.46 147.411 1262.29 147.962 1261.94C148.537 1261.56 149.013 1261.06 149.389 1260.44C149.764 1259.78 150.027 1259.08 150.177 1258.33C149.652 1258.18 149.038 1258.04 148.337 1257.92C147.661 1257.77 146.973 1257.69 146.272 1257.69C145.295 1257.69 144.507 1257.92 143.906 1258.37C143.33 1258.8 143.042 1259.4 143.042 1260.17C143.042 1260.85 143.293 1261.4 143.793 1261.83C144.319 1262.25 145.033 1262.46 145.934 1262.46ZM161.959 1265.73L155.087 1247.1H160.232L164.926 1261.11L169.582 1247.1H174.689L167.855 1265.73H161.959ZM176.783 1265.73V1247.1H181.665V1249.92C182.266 1248.92 183.092 1248.13 184.143 1247.56C185.195 1246.95 186.422 1246.65 187.824 1246.65C190.152 1246.65 191.942 1247.39 193.194 1248.87C194.445 1250.32 195.071 1252.45 195.071 1255.25V1265.73H190.189V1255.7C190.189 1254.1 189.864 1252.89 189.213 1252.06C188.587 1251.21 187.586 1250.78 186.209 1250.78C184.882 1250.78 183.793 1251.26 182.942 1252.21C182.091 1253.14 181.665 1254.44 181.665 1256.12V1265.73H176.783ZM205.791 1266.18C203.337 1266.18 201.309 1265.61 199.707 1264.45C198.13 1263.3 197.241 1261.76 197.041 1259.83H202.035C202.211 1260.61 202.649 1261.24 203.35 1261.71C204.076 1262.19 204.952 1262.43 205.978 1262.43C207.055 1262.43 207.868 1262.23 208.419 1261.83C208.995 1261.42 209.283 1260.94 209.283 1260.36C209.283 1259.88 209.083 1259.51 208.682 1259.23C208.281 1258.96 207.568 1258.76 206.542 1258.63C206.166 1258.58 205.678 1258.51 205.077 1258.41C204.476 1258.31 203.988 1258.22 203.612 1258.14C202.586 1257.94 201.647 1257.62 200.796 1257.17C199.945 1256.72 199.256 1256.12 198.731 1255.37C198.23 1254.62 197.98 1253.68 197.98 1252.55C197.98 1250.9 198.593 1249.51 199.82 1248.38C201.071 1247.23 202.886 1246.65 205.265 1246.65C207.643 1246.65 209.533 1247.18 210.935 1248.23C212.337 1249.28 213.126 1250.76 213.301 1252.66H208.569C208.494 1251.91 208.131 1251.35 207.48 1250.97C206.854 1250.6 206.128 1250.41 205.302 1250.41C204.326 1250.41 203.575 1250.6 203.049 1250.97C202.523 1251.32 202.261 1251.76 202.261 1252.29C202.261 1253.19 203.087 1253.79 204.739 1254.09C204.989 1254.11 205.302 1254.16 205.678 1254.24C206.078 1254.29 206.491 1254.35 206.917 1254.43C207.343 1254.48 207.681 1254.53 207.931 1254.58C208.657 1254.68 209.37 1254.84 210.071 1255.07C210.772 1255.29 211.398 1255.6 211.949 1256C212.525 1256.38 212.975 1256.89 213.301 1257.54C213.651 1258.2 213.827 1259 213.827 1259.95C213.827 1261.17 213.514 1262.26 212.888 1263.21C212.262 1264.14 211.348 1264.87 210.147 1265.39C208.97 1265.92 207.518 1266.18 205.791 1266.18ZM226.053 1274.44C224.451 1274.44 222.924 1274.18 221.472 1273.65C220.045 1273.13 218.831 1272.3 217.829 1271.18C216.828 1270.07 216.227 1268.65 216.027 1266.89H220.871C221.096 1267.92 221.672 1268.73 222.598 1269.34C223.55 1269.94 224.664 1270.24 225.94 1270.24C226.892 1270.24 227.756 1270.04 228.532 1269.64C229.333 1269.24 229.971 1268.63 230.447 1267.83C230.922 1267.06 231.16 1266.06 231.16 1264.83V1262.5C230.785 1263.1 230.297 1263.65 229.696 1264.15C229.095 1264.65 228.381 1265.07 227.555 1265.39C226.754 1265.69 225.828 1265.84 224.776 1265.84C222.999 1265.84 221.397 1265.42 219.97 1264.57C218.568 1263.72 217.454 1262.56 216.628 1261.11C215.826 1259.66 215.426 1258.03 215.426 1256.23C215.426 1254.4 215.826 1252.77 216.628 1251.35C217.454 1249.9 218.568 1248.76 219.97 1247.93C221.397 1247.08 222.999 1246.65 224.776 1246.65C226.203 1246.65 227.468 1246.95 228.569 1247.56C229.671 1248.13 230.534 1248.84 231.16 1249.7V1247.1H236.042V1264.57C236.042 1266.72 235.579 1268.52 234.653 1269.97C233.751 1271.45 232.537 1272.56 231.01 1273.32C229.508 1274.07 227.856 1274.44 226.053 1274.44ZM225.753 1261.6C226.829 1261.6 227.756 1261.36 228.532 1260.89C229.333 1260.41 229.959 1259.77 230.409 1258.97C230.86 1258.17 231.085 1257.27 231.085 1256.27C231.085 1255.22 230.86 1254.29 230.409 1253.49C229.959 1252.69 229.333 1252.06 228.532 1251.61C227.756 1251.14 226.829 1250.9 225.753 1250.9C224.701 1250.9 223.775 1251.14 222.974 1251.61C222.173 1252.06 221.534 1252.69 221.059 1253.49C220.608 1254.29 220.383 1255.2 220.383 1256.23C220.383 1257.23 220.608 1258.14 221.059 1258.97C221.534 1259.77 222.173 1260.41 222.974 1260.89C223.775 1261.36 224.701 1261.6 225.753 1261.6ZM245.51 1266.18C244.108 1266.18 242.893 1265.93 241.867 1265.43C240.866 1264.93 240.102 1264.25 239.576 1263.4C239.051 1262.55 238.788 1261.61 238.788 1260.59C238.788 1258.63 239.489 1257.13 240.891 1256.08C242.293 1255 244.133 1254.46 246.411 1254.46C247.487 1254.46 248.414 1254.54 249.19 1254.69C249.966 1254.84 250.604 1255 251.105 1255.18V1254.28C251.105 1252.98 250.729 1252.02 249.978 1251.42C249.252 1250.82 248.301 1250.52 247.124 1250.52C246.298 1250.52 245.56 1250.7 244.909 1251.05C244.258 1251.37 243.845 1251.96 243.669 1252.81H239.051C239.201 1251.49 239.651 1250.37 240.402 1249.47C241.153 1248.54 242.105 1247.84 243.256 1247.37C244.433 1246.89 245.722 1246.65 247.124 1246.65C249.903 1246.65 252.069 1247.32 253.621 1248.64C255.198 1249.97 255.987 1251.85 255.987 1254.28V1258.48C255.987 1259.43 256.037 1260.14 256.137 1260.59C256.262 1261.04 256.45 1261.32 256.7 1261.45C256.95 1261.57 257.288 1261.64 257.714 1261.64H257.864V1265.73H256.813C255.486 1265.73 254.384 1265.56 253.508 1265.2C252.632 1264.85 251.994 1264.17 251.593 1263.14C250.967 1264.02 250.141 1264.74 249.115 1265.32C248.088 1265.89 246.886 1266.18 245.51 1266.18ZM246.599 1262.46C247.4 1262.46 248.076 1262.29 248.626 1261.94C249.202 1261.56 249.678 1261.06 250.053 1260.44C250.429 1259.78 250.692 1259.08 250.842 1258.33C250.316 1258.18 249.703 1258.04 249.002 1257.92C248.326 1257.77 247.638 1257.69 246.937 1257.69C245.96 1257.69 245.172 1257.92 244.571 1258.37C243.995 1258.8 243.707 1259.4 243.707 1260.17C243.707 1260.85 243.957 1261.4 244.458 1261.83C244.984 1262.25 245.697 1262.46 246.599 1262.46ZM268.221 1266.18C266.469 1266.18 264.892 1265.76 263.49 1264.9C262.113 1264.05 261.024 1262.89 260.223 1261.41C259.422 1259.91 259.021 1258.23 259.021 1256.38C259.021 1254.5 259.422 1252.84 260.223 1251.39C261.024 1249.91 262.113 1248.76 263.49 1247.93C264.892 1247.08 266.469 1246.65 268.221 1246.65C269.623 1246.65 270.837 1246.92 271.864 1247.44C272.915 1247.97 273.754 1248.69 274.38 1249.62V1238.69H279.262V1265.73H274.38V1263.06C273.804 1263.89 273.015 1264.62 272.014 1265.24C271.038 1265.87 269.773 1266.18 268.221 1266.18ZM269.273 1261.94C270.299 1261.94 271.2 1261.7 271.976 1261.22C272.778 1260.75 273.391 1260.1 273.817 1259.27C274.267 1258.42 274.492 1257.47 274.492 1256.42C274.492 1255.34 274.267 1254.39 273.817 1253.56C273.391 1252.74 272.778 1252.09 271.976 1251.61C271.2 1251.14 270.299 1250.9 269.273 1250.9C268.271 1250.9 267.37 1251.14 266.569 1251.61C265.768 1252.09 265.142 1252.74 264.691 1253.56C264.241 1254.36 264.015 1255.3 264.015 1256.38C264.015 1257.46 264.241 1258.42 264.691 1259.27C265.142 1260.1 265.768 1260.75 266.569 1261.22C267.37 1261.7 268.271 1261.94 269.273 1261.94ZM291.375 1266.18C289.472 1266.18 287.795 1265.78 286.343 1264.98C284.891 1264.15 283.751 1263.03 282.925 1261.6C282.099 1260.15 281.686 1258.47 281.686 1256.57C281.686 1254.64 282.087 1252.93 282.888 1251.42C283.714 1249.92 284.853 1248.76 286.305 1247.93C287.757 1247.08 289.447 1246.65 291.375 1246.65C293.227 1246.65 294.854 1247.05 296.256 1247.86C297.658 1248.66 298.747 1249.75 299.523 1251.12C300.324 1252.5 300.725 1254.06 300.725 1255.82C300.725 1256.07 300.725 1256.34 300.725 1256.64C300.725 1256.94 300.7 1257.26 300.65 1257.58H285.216V1254.58H295.806C295.731 1253.38 295.28 1252.41 294.454 1251.69C293.628 1250.96 292.614 1250.6 291.412 1250.6C290.511 1250.6 289.685 1250.8 288.934 1251.2C288.183 1251.6 287.582 1252.2 287.131 1253C286.706 1253.78 286.493 1254.78 286.493 1256V1257.06C286.493 1258.11 286.706 1259.02 287.131 1259.8C287.557 1260.57 288.133 1261.17 288.859 1261.6C289.585 1262 290.411 1262.2 291.337 1262.2C292.288 1262.2 293.089 1261.99 293.74 1261.56C294.391 1261.14 294.892 1260.57 295.242 1259.87H300.199C299.849 1261.05 299.26 1262.13 298.434 1263.1C297.633 1264.05 296.632 1264.8 295.43 1265.35C294.228 1265.91 292.877 1266.18 291.375 1266.18ZM327.548 1265.73V1260.89H314.405V1257.02L326.985 1239.44H332.016V1256.64H335.509V1260.89H332.016V1265.73H327.548ZM327.736 1258.82V1242.64L328.937 1242.97L318.272 1258.48L317.446 1256.64H329.651L327.736 1258.82ZM340.368 1265.73V1263.74C340.368 1261.56 340.681 1259.78 341.307 1258.41C341.932 1257.01 342.834 1255.85 344.01 1254.95C345.212 1254.05 346.664 1253.23 348.366 1252.47L349.418 1252.02C351.02 1251.27 352.284 1250.55 353.211 1249.85C354.162 1249.12 354.638 1248.16 354.638 1246.95C354.638 1246.3 354.475 1245.69 354.149 1245.11C353.849 1244.51 353.373 1244.04 352.722 1243.69C352.072 1243.31 351.233 1243.12 350.206 1243.12C349.18 1243.12 348.304 1243.34 347.578 1243.76C346.852 1244.16 346.301 1244.7 345.925 1245.38C345.55 1246.05 345.362 1246.83 345.362 1247.71H340.668C340.693 1245.75 341.144 1244.14 342.02 1242.86C342.921 1241.56 344.098 1240.6 345.55 1239.97C347.027 1239.32 348.642 1238.99 350.394 1238.99C352.297 1238.99 353.912 1239.33 355.238 1240.01C356.565 1240.66 357.579 1241.57 358.28 1242.75C359.006 1243.9 359.369 1245.21 359.369 1246.69C359.369 1248.47 358.793 1250.08 357.642 1251.54C356.49 1252.96 354.6 1254.3 351.971 1255.55L350.094 1256.46C348.917 1256.98 347.991 1257.53 347.315 1258.11C346.639 1258.66 346.163 1259.23 345.888 1259.83C345.613 1260.41 345.475 1261.05 345.475 1261.75H359.67V1265.73H340.368ZM362.763 1272.19V1268.55H364.266C364.741 1268.55 365.092 1268.42 365.317 1268.17C365.567 1267.92 365.693 1267.53 365.693 1267.01V1265.99H363.026V1260.29H369.373V1267.01C369.373 1268.46 368.935 1269.69 368.058 1270.69C367.207 1271.69 365.943 1272.19 364.266 1272.19H362.763ZM32.0661 1315.73V1313.74C32.0661 1311.56 32.379 1309.78 33.0049 1308.41C33.6307 1307.01 34.532 1305.85 35.7086 1304.95C36.9103 1304.05 38.3623 1303.23 40.0647 1302.47L41.1161 1302.02C42.7184 1301.27 43.9826 1300.55 44.9089 1299.85C45.8602 1299.12 46.3359 1298.16 46.3359 1296.95C46.3359 1296.3 46.1732 1295.69 45.8477 1295.11C45.5473 1294.51 45.0716 1294.04 44.4207 1293.69C43.7698 1293.31 42.9311 1293.12 41.9047 1293.12C40.8783 1293.12 40.0021 1293.34 39.2761 1293.76C38.5501 1294.16 37.9993 1294.7 37.6238 1295.38C37.2483 1296.05 37.0605 1296.83 37.0605 1297.71H32.3665C32.3915 1295.75 32.8421 1294.14 33.7184 1292.86C34.6196 1291.56 35.7962 1290.6 37.2483 1289.97C38.7253 1289.32 40.3401 1288.99 42.0925 1288.99C43.9951 1288.99 45.6099 1289.33 46.9367 1290.01C48.2636 1290.66 49.2775 1291.57 49.9784 1292.75C50.7044 1293.9 51.0674 1295.21 51.0674 1296.69C51.0674 1298.47 50.4916 1300.08 49.34 1301.54C48.1885 1302.96 46.2983 1304.3 43.6697 1305.55L41.7921 1306.46C40.6154 1306.98 39.6891 1307.53 39.0132 1308.11C38.3373 1308.66 37.8616 1309.23 37.5862 1309.83C37.3108 1310.41 37.1732 1311.05 37.1732 1311.75H51.3679V1315.73H32.0661ZM68.0932 1315.73V1310.89H54.95V1307.02L67.53 1289.44H72.5619V1306.64H76.0543V1310.89H72.5619V1315.73H68.0932ZM68.281 1308.82V1292.64L69.4827 1292.97L58.8179 1308.48L57.9917 1306.64H70.1962L68.281 1308.82ZM90.7519 1316.18C88.674 1316.18 86.884 1315.84 85.3819 1315.17C83.9048 1314.47 82.7407 1313.53 81.8895 1312.35C81.0634 1311.17 80.5877 1309.83 80.4626 1308.33H85.1941C85.4445 1309.41 86.0578 1310.3 87.0342 1311C88.0356 1311.67 89.1997 1312.01 90.5265 1312.01C91.6781 1312.01 92.6545 1311.79 93.4556 1311.34C94.2818 1310.89 94.9201 1310.26 95.3708 1309.46C95.8214 1308.66 96.0467 1307.74 96.0467 1306.72C96.0467 1305.22 95.5585 1303.99 94.5822 1303.04C93.6058 1302.09 92.2665 1301.61 90.5641 1301.61C89.4125 1301.61 88.361 1301.86 87.4097 1302.36C86.4584 1302.84 85.7699 1303.46 85.3443 1304.24H80.9132L83.2039 1289.44H98.8631V1293.72H86.8464L85.3068 1301.61L84.8937 1300.26C85.4695 1299.56 86.2832 1298.96 87.3346 1298.46C88.4111 1297.93 89.788 1297.67 91.4653 1297.67C93.4681 1297.67 95.158 1298.09 96.5349 1298.94C97.9118 1299.77 98.9633 1300.87 99.6893 1302.25C100.415 1303.6 100.778 1305.08 100.778 1306.68C100.778 1308.51 100.353 1310.14 99.5015 1311.56C98.6754 1312.99 97.5112 1314.12 96.0092 1314.94C94.5071 1315.77 92.7546 1316.18 90.7519 1316.18ZM114.837 1316.18C112.559 1316.18 110.607 1315.62 108.979 1314.49C107.377 1313.36 106.15 1311.79 105.299 1309.76C104.448 1307.71 104.022 1305.32 104.022 1302.59C104.022 1299.86 104.448 1297.48 105.299 1295.45C106.15 1293.4 107.377 1291.81 108.979 1290.68C110.607 1289.56 112.559 1288.99 114.837 1288.99C117.141 1288.99 119.093 1289.56 120.696 1290.68C122.298 1291.81 123.525 1293.4 124.376 1295.45C125.227 1297.48 125.652 1299.86 125.652 1302.59C125.652 1305.32 125.227 1307.71 124.376 1309.76C123.525 1311.79 122.298 1313.36 120.696 1314.49C119.093 1315.62 117.141 1316.18 114.837 1316.18ZM114.837 1311.79C116.915 1311.79 118.417 1311.01 119.344 1309.46C120.295 1307.91 120.771 1305.62 120.771 1302.59C120.771 1299.58 120.295 1297.3 119.344 1295.75C118.417 1294.18 116.915 1293.39 114.837 1293.39C112.785 1293.39 111.283 1294.18 110.331 1295.75C109.38 1297.3 108.904 1299.58 108.904 1302.59C108.904 1305.62 109.38 1307.91 110.331 1309.46C111.283 1311.01 112.785 1311.79 114.837 1311.79ZM150.175 1316.18C148.948 1316.18 147.734 1316.02 146.533 1315.69C145.331 1315.34 144.229 1314.8 143.228 1314.08C142.227 1313.33 141.388 1312.38 140.712 1311.22C140.061 1310.05 139.673 1308.65 139.548 1307.02H144.054C144.254 1308.3 144.668 1309.3 145.293 1310.02C145.944 1310.75 146.708 1311.26 147.584 1311.56C148.485 1311.84 149.374 1311.98 150.25 1311.98C151.227 1311.98 152.09 1311.83 152.841 1311.52C153.617 1311.22 154.218 1310.8 154.644 1310.25C155.095 1309.67 155.32 1309.01 155.32 1308.26C155.32 1307.48 155.107 1306.79 154.681 1306.19C154.256 1305.57 153.342 1305.13 151.94 1304.88L147.471 1304.05C145.318 1303.65 143.629 1302.8 142.402 1301.5C141.2 1300.17 140.599 1298.61 140.599 1296.8C140.599 1295.15 141.012 1293.75 141.839 1292.6C142.665 1291.45 143.779 1290.56 145.181 1289.93C146.583 1289.31 148.122 1288.99 149.8 1288.99C151.552 1288.99 153.129 1289.29 154.531 1289.89C155.933 1290.5 157.072 1291.42 157.948 1292.67C158.825 1293.9 159.35 1295.49 159.526 1297.44H154.944C154.794 1296.32 154.456 1295.45 153.93 1294.85C153.43 1294.23 152.816 1293.79 152.09 1293.54C151.389 1293.29 150.663 1293.16 149.912 1293.16C149.211 1293.16 148.485 1293.27 147.734 1293.5C146.983 1293.72 146.357 1294.1 145.857 1294.63C145.356 1295.13 145.106 1295.82 145.106 1296.69C145.106 1297.44 145.381 1298.12 145.932 1298.72C146.508 1299.3 147.421 1299.7 148.673 1299.92L152.804 1300.67C155.007 1301.07 156.734 1301.86 157.986 1303.04C159.263 1304.19 159.901 1305.88 159.901 1308.11C159.901 1309.43 159.613 1310.6 159.038 1311.6C158.487 1312.58 157.748 1313.41 156.822 1314.12C155.896 1314.79 154.857 1315.3 153.705 1315.66C152.554 1316.01 151.377 1316.18 150.175 1316.18ZM161.043 1323.99V1320.12H165.024C165.399 1320.12 165.712 1320.07 165.962 1319.97C166.213 1319.9 166.451 1319.71 166.676 1319.41C166.901 1319.11 167.139 1318.65 167.389 1318.02L169.004 1314.53L168.741 1316.67L160.63 1297.1H165.925L171.107 1310.14L176.515 1297.1H181.697L171.783 1319.71C171.382 1320.64 171.019 1321.38 170.694 1321.93C170.394 1322.5 170.093 1322.93 169.793 1323.2C169.492 1323.5 169.129 1323.7 168.704 1323.8C168.303 1323.93 167.777 1323.99 167.126 1323.99H161.043ZM190.257 1316.18C188.504 1316.18 186.927 1315.76 185.525 1314.9C184.148 1314.05 183.059 1312.89 182.258 1311.41C181.457 1309.91 181.056 1308.23 181.056 1306.38C181.056 1304.5 181.457 1302.84 182.258 1301.39C183.059 1299.91 184.148 1298.76 185.525 1297.93C186.927 1297.08 188.504 1296.65 190.257 1296.65C191.658 1296.65 192.873 1296.92 193.899 1297.44C194.951 1297.97 195.789 1298.69 196.415 1299.62V1288.69H201.297V1315.73H196.415V1313.06C195.839 1313.89 195.051 1314.62 194.049 1315.24C193.073 1315.87 191.809 1316.18 190.257 1316.18ZM191.308 1311.94C192.334 1311.94 193.236 1311.7 194.012 1311.22C194.813 1310.75 195.426 1310.1 195.852 1309.27C196.302 1308.42 196.528 1307.47 196.528 1306.42C196.528 1305.34 196.302 1304.39 195.852 1303.56C195.426 1302.74 194.813 1302.09 194.012 1301.61C193.236 1301.14 192.334 1300.9 191.308 1300.9C190.307 1300.9 189.405 1301.14 188.604 1301.61C187.803 1302.09 187.177 1302.74 186.727 1303.56C186.276 1304.36 186.051 1305.3 186.051 1306.38C186.051 1307.46 186.276 1308.42 186.727 1309.27C187.177 1310.1 187.803 1310.75 188.604 1311.22C189.405 1311.7 190.307 1311.94 191.308 1311.94ZM204.36 1315.73V1288.69H209.242V1299.92C209.842 1298.92 210.681 1298.13 211.757 1297.56C212.859 1296.95 214.086 1296.65 215.438 1296.65C217.741 1296.65 219.518 1297.39 220.77 1298.87C222.047 1300.32 222.685 1302.45 222.685 1305.25V1315.73H217.841V1305.7C217.841 1304.1 217.515 1302.89 216.865 1302.06C216.239 1301.21 215.25 1300.78 213.898 1300.78C212.546 1300.78 211.432 1301.26 210.556 1302.21C209.68 1303.14 209.242 1304.44 209.242 1306.12V1315.73H204.36ZM232.161 1316.18C230.759 1316.18 229.545 1315.93 228.518 1315.43C227.517 1314.93 226.753 1314.25 226.228 1313.4C225.702 1312.55 225.439 1311.61 225.439 1310.59C225.439 1308.63 226.14 1307.13 227.542 1306.08C228.944 1305 230.784 1304.46 233.062 1304.46C234.139 1304.46 235.065 1304.54 235.841 1304.69C236.617 1304.84 237.256 1305 237.756 1305.18V1304.28C237.756 1302.98 237.381 1302.02 236.63 1301.42C235.904 1300.82 234.952 1300.52 233.776 1300.52C232.95 1300.52 232.211 1300.7 231.56 1301.05C230.909 1301.37 230.496 1301.96 230.321 1302.81H225.702C225.852 1301.49 226.303 1300.37 227.054 1299.47C227.805 1298.54 228.756 1297.84 229.908 1297.37C231.084 1296.89 232.374 1296.65 233.776 1296.65C236.555 1296.65 238.72 1297.32 240.272 1298.64C241.849 1299.97 242.638 1301.85 242.638 1304.28V1308.48C242.638 1309.43 242.688 1310.14 242.788 1310.59C242.913 1311.04 243.101 1311.32 243.351 1311.45C243.602 1311.57 243.94 1311.64 244.365 1311.64H244.516V1315.73H243.464C242.137 1315.73 241.036 1315.56 240.16 1315.2C239.283 1314.85 238.645 1314.17 238.244 1313.14C237.619 1314.02 236.792 1314.74 235.766 1315.32C234.74 1315.89 233.538 1316.18 232.161 1316.18ZM233.25 1312.46C234.051 1312.46 234.727 1312.29 235.278 1311.94C235.854 1311.56 236.329 1311.06 236.705 1310.44C237.08 1309.78 237.343 1309.08 237.493 1308.33C236.968 1308.18 236.354 1308.04 235.653 1307.92C234.977 1307.77 234.289 1307.69 233.588 1307.69C232.612 1307.69 231.823 1307.92 231.222 1308.37C230.646 1308.8 230.358 1309.4 230.358 1310.17C230.358 1310.85 230.609 1311.4 231.109 1311.83C231.635 1312.25 232.349 1312.46 233.25 1312.46ZM249.275 1315.73L242.403 1297.1H247.548L252.242 1311.11L256.898 1297.1H262.006L255.171 1315.73H249.275ZM264.099 1315.73V1297.1H268.981V1299.92C269.582 1298.92 270.408 1298.13 271.46 1297.56C272.511 1296.95 273.738 1296.65 275.14 1296.65C277.468 1296.65 279.258 1297.39 280.51 1298.87C281.761 1300.32 282.387 1302.45 282.387 1305.25V1315.73H277.505V1305.7C277.505 1304.1 277.18 1302.89 276.529 1302.06C275.903 1301.21 274.902 1300.78 273.525 1300.78C272.198 1300.78 271.109 1301.26 270.258 1302.21C269.407 1303.14 268.981 1304.44 268.981 1306.12V1315.73H264.099ZM294.492 1316.18C292.589 1316.18 290.912 1315.78 289.46 1314.98C288.008 1314.15 286.869 1313.03 286.042 1311.6C285.216 1310.15 284.803 1308.47 284.803 1306.57C284.803 1304.64 285.204 1302.93 286.005 1301.42C286.831 1299.92 287.97 1298.76 289.422 1297.93C290.874 1297.08 292.564 1296.65 294.492 1296.65C296.344 1296.65 297.971 1297.05 299.373 1297.86C300.775 1298.66 301.864 1299.75 302.64 1301.12C303.442 1302.5 303.842 1304.06 303.842 1305.82C303.842 1306.07 303.842 1306.34 303.842 1306.64C303.842 1306.94 303.817 1307.26 303.767 1307.58H288.333V1304.58H298.923C298.848 1303.38 298.397 1302.41 297.571 1301.69C296.745 1300.96 295.731 1300.6 294.529 1300.6C293.628 1300.6 292.802 1300.8 292.051 1301.2C291.3 1301.6 290.699 1302.2 290.248 1303C289.823 1303.78 289.61 1304.78 289.61 1306V1307.06C289.61 1308.11 289.823 1309.02 290.248 1309.8C290.674 1310.57 291.25 1311.17 291.976 1311.6C292.702 1312 293.528 1312.2 294.454 1312.2C295.405 1312.2 296.207 1311.99 296.857 1311.56C297.508 1311.14 298.009 1310.57 298.36 1309.87H303.316C302.966 1311.05 302.378 1312.13 301.551 1313.1C300.75 1314.05 299.749 1314.8 298.547 1315.35C297.346 1315.91 295.994 1316.18 294.492 1316.18ZM306.382 1315.73V1297.1H311.264V1299.92C311.865 1298.92 312.691 1298.13 313.742 1297.56C314.794 1296.95 316.021 1296.65 317.423 1296.65C319.751 1296.65 321.541 1297.39 322.792 1298.87C324.044 1300.32 324.67 1302.45 324.67 1305.25V1315.73H319.788V1305.7C319.788 1304.1 319.463 1302.89 318.812 1302.06C318.186 1301.21 317.185 1300.78 315.808 1300.78C314.481 1300.78 313.392 1301.26 312.541 1302.21C311.69 1303.14 311.264 1304.44 311.264 1306.12V1315.73H306.382Z" fill="black"/>
<rect x="29.3623" y="1203.96" width="12.9202" height="12.2628" fill="black"/>
<rect x="42.2821" y="1197.74" width="12.9202" height="12.2628" fill="black"/>
<rect x="67.8201" y="1198.03" width="12.9202" height="12.2628" fill="black"/>
<rect x="55.1013" y="1191.81" width="12.9202" height="12.2628" fill="black"/>
</g>
<defs>
<clipPath id="clip0_483_499">
<rect width="1080" height="1350" fill="white"/>
</clipPath>
</defs>
</svg>
